<?xml version="1.0" encoding="UTF-8" standalone="no"?><!DOCTYPE svg PUBLIC "-//W3C//DTD SVG 1.1//EN" "http://www.w3.org/Graphics/SVG/1.1/DTD/svg11.dtd"><svg width="100%" height="100%" viewBox="0 0 2084 2084" version="1.1" xmlns="http://www.w3.org/2000/svg" xmlns:xlink="http://www.w3.org/1999/xlink" xml:space="preserve" xmlns:serif="http://www.serif.com/" style="fill-rule:evenodd;clip-rule:evenodd;stroke-linejoin:round;stroke-miterlimit:2;"><g><rect x="0" y="0" width="2083.333" height="2083.333" style="fill:#e91a1a;fill-opacity:0;"/><g><path d="M1035.504,477.018c78.279,-45.49 186.653,-39.079 306.269,29.975c237.801,137.297 429.826,470.004 429.059,743.258c-0.391,135.717 -48.288,231.21 -125.574,276.113l-93.477,54.323l-609.753,-1049.346l93.477,-54.323Z" style="fill:#9ad08d;"/><path d="M1248.295,561.331c-104.011,-60.056 -199.519,-72.726 -274.126,-45.113c-95.93,35.498 -157.31,137.613 -157.746,291.311c-0.767,273.148 191.348,605.916 429.059,743.153c237.801,137.296 431.09,27.041 431.858,-246.107c0.783,-273.239 -191.258,-605.961 -429.044,-743.243Z" style="fill:#5a9c57;fill-rule:nonzero;"/><path d="M1655.7,1121.683c10.819,37.589 20.36,95.509 21.639,182.891c-5.432,-82.913 -17.275,-143.556 -28.832,-181.01c-72.064,-287.308 -390.642,-692.622 -674.339,-607.346c269.883,-97.39 609.618,285.984 681.532,605.465Z" style="fill:#42954d;"/><path d="M1246.625,1142.524c41.502,23.956 75.405,4.635 75.54,-43.037c0.135,-47.687 -33.557,-106.027 -75.044,-129.983c-41.502,-23.956 -75.404,-4.635 -75.54,43.037c-0.135,47.686 33.557,106.027 75.044,129.983Zm0.677,-237.936c72.666,41.953 131.578,144.008 131.337,227.508c-0.226,83.485 -59.529,117.178 -132.195,75.224c-72.666,-41.938 -131.488,-143.842 -131.262,-227.328c0.241,-83.501 59.469,-117.343 132.12,-75.405Z" style="fill:#fff;fill-rule:nonzero;"/><path d="M1246.233,1283.04c108.991,62.915 197.864,12.174 198.21,-112.964c0.361,-125.228 -87.939,-278.159 -196.931,-341.089c-108.901,-62.885 -197.849,-12.279 -198.21,112.964c-0.361,125.138 88.015,278.204 196.931,341.089Zm1.46,-518.955c140.08,80.867 253.691,277.648 253.24,438.599c-0.466,160.952 -114.815,226.124 -254.895,145.257c-140.065,-80.867 -253.676,-277.663 -253.225,-438.614c0.451,-160.952 114.815,-226.109 254.88,-145.242Z" style="fill:#fff;fill-rule:nonzero;"/><path d="M1245.827,1423.647c176.406,101.844 320.414,19.773 320.986,-182.907c0.587,-202.709 -142.503,-450.532 -318.894,-552.376c-176.406,-101.844 -320.414,-19.773 -320.986,182.921c-0.587,202.694 142.503,450.517 318.894,552.361Zm2.272,-800.184c207.57,119.841 375.88,411.378 375.203,649.886c-0.677,238.403 -170.086,334.95 -377.656,215.109c-207.479,-119.796 -375.79,-411.318 -375.113,-649.72c0.677,-238.508 170.086,-335.07 377.565,-215.274Z" style="fill:#fff;fill-rule:nonzero;"/><path d="M1246.835,1070.339c6.877,3.973 12.49,0.767 12.505,-7.133c0.03,-7.9 -5.553,-17.561 -12.43,-21.533c-6.877,-3.958 -12.49,-0.768 -12.505,7.133c-0.03,7.9 5.552,17.561 12.429,21.533Z" style="fill:#87c38a;fill-rule:nonzero;"/><path d="M374.964,1564.902l-19.984,48.409l-9.119,22.06l57.137,-33l28.41,-55.496l-21.172,51.328l56.535,-32.654l28.44,-55.512l-21.218,51.343c11.181,-6.44 35.859,-20.691 43.398,-25.055c44.963,-25.957 62.93,-87.308 63.878,-90.543l-206.306,119.119Z" style="fill:#5ab74d;fill-rule:nonzero;"/><path d="M360.969,1577.557c0,5.192 -3.642,7.298 -8.141,4.695c-4.484,-2.588 -8.141,-8.908 -8.141,-14.1c0,-5.192 3.657,-7.298 8.141,-4.695c4.499,2.588 8.141,8.908 8.141,14.1Z" style="fill:#fdbe48;fill-rule:nonzero;"/><path d="M347.02,1562.915l893.977,-516.141c1.49,-0.873 3.536,-0.767 5.808,0.542c4.499,2.603 8.141,8.908 8.141,14.1c0,2.573 -0.888,4.379 -2.317,5.237l-893.977,516.141c1.43,-0.858 2.317,-2.678 2.317,-5.237c0,-5.192 -3.642,-11.512 -8.141,-14.1c-2.272,-1.309 -4.319,-1.43 -5.808,-0.542Z" style="fill:#fdbe48;fill-rule:nonzero;"/><path d="M334.094,1596.141c0,6.877 -4.83,9.676 -10.789,6.23c-5.959,-3.446 -10.805,-11.813 -10.805,-18.689c0,-6.892 4.846,-9.676 10.805,-6.23c5.959,3.431 10.789,11.812 10.789,18.689Z" style="fill:#5a9c57;fill-rule:nonzero;"/><path d="M315.6,1576.729l39.907,-23.038c1.956,-1.174 4.68,-1.023 7.704,0.722c5.959,3.431 10.789,11.797 10.789,18.689c0,3.401 -1.189,5.793 -3.1,6.937l-39.907,23.053c1.911,-1.159 3.1,-3.551 3.1,-6.952c0,-6.877 -4.83,-15.259 -10.789,-18.689c-3.025,-1.746 -5.749,-1.896 -7.705,-0.722Z" style="fill:#247233;fill-rule:nonzero;"/><path d="M354.724,1527.071l20.194,25.22l206.306,-119.119c-0.963,-2.122 -19.231,-42.57 -64.179,-16.613c-7.539,4.364 -17.38,10.037 -28.546,16.477l1.234,1.52l20.194,25.22l-28.651,-22.557c-18.419,10.639 -39.606,22.858 -59.71,34.46l1.234,1.52l20.194,25.22l-28.621,-22.572c-12.114,6.982 -23.595,13.618 -33.602,19.397l1.204,1.52l20.194,25.22l-28.636,-22.572c-16.854,9.736 -27.462,15.86 -28.019,16.176l9.209,11.482Z" style="fill:#5ab74d;fill-rule:nonzero;"/><path d="M395.519,1396.561l-26.935,44.918l-12.264,20.465l61.395,-24.167l36.31,-50.681l-28.546,47.626l60.748,-23.911l36.341,-50.696l-28.576,47.641c12.008,-4.725 38.522,-15.168 46.633,-18.358c48.303,-19.005 75.164,-77.03 76.578,-80.085l-221.685,87.247Z" style="fill:#5ab74d;fill-rule:nonzero;"/><path d="M379.824,1407.005c-0.767,5.146 -4.68,6.681 -8.743,3.446c-4.063,-3.235 -6.741,-10.022 -5.974,-15.153c0.767,-5.131 4.695,-6.666 8.758,-3.446c4.063,3.235 6.726,10.022 5.959,15.153Z" style="fill:#fdbe48;fill-rule:nonzero;"/><path d="M368.192,1390.467l874.038,-343.903c1.595,-0.662 3.612,-0.241 5.673,1.384c4.063,3.235 6.726,10.022 5.959,15.153c-0.376,2.543 -1.535,4.198 -3.085,4.83l-874.038,343.918c1.55,-0.647 2.709,-2.302 3.085,-4.845c0.767,-5.131 -1.896,-11.918 -5.959,-15.153c-2.061,-1.625 -4.078,-2.047 -5.673,-1.384Z" style="fill:#fdbe48;fill-rule:nonzero;"/><path d="M350.481,1421.405c-1.024,6.802 -6.215,8.848 -11.587,4.56c-5.387,-4.289 -8.938,-13.272 -7.915,-20.074c0.512,-3.356 2.016,-5.553 4.063,-6.41c2.122,-0.888 4.8,-0.331 7.539,1.836c5.387,4.289 8.924,13.287 7.9,20.089Z" style="fill:#5a9c57;fill-rule:nonzero;"/><path d="M335.072,1399.481l42.871,-16.884c2.107,-0.873 4.785,-0.316 7.509,1.851c5.387,4.289 8.924,13.272 7.915,20.089c-0.512,3.356 -2.031,5.553 -4.093,6.41l-42.871,16.869c2.046,-0.843 3.581,-3.055 4.078,-6.41c1.023,-6.802 -2.513,-15.8 -7.9,-20.089c-2.724,-2.167 -5.402,-2.709 -7.509,-1.836Z" style="fill:#247233;fill-rule:nonzero;"/><path d="M381.118,1356.158l16.237,27.929l221.669,-87.247c-0.632,-2.257 -12.715,-44.948 -61.019,-25.927c-8.096,3.175 -18.659,7.343 -30.667,12.068l0.993,1.67l16.236,27.929l-24.994,-26.544c-19.788,7.78 -42.555,16.748 -64.149,25.25l1.008,1.67l16.237,27.929l-24.979,-26.559c-13.002,5.116 -25.34,9.977 -36.1,14.205l0.963,1.685l16.236,27.944l-24.979,-26.575c-18.102,7.133 -29.509,11.617 -30.11,11.858l7.418,12.715Z" style="fill:#5ab74d;fill-rule:nonzero;"/></g></g></svg>