<?xml version="1.0" encoding="UTF-8" standalone="no"?><!DOCTYPE svg PUBLIC "-//W3C//DTD SVG 1.1//EN" "http://www.w3.org/Graphics/SVG/1.1/DTD/svg11.dtd"><svg width="100%" height="100%" viewBox="0 0 2084 2084" version="1.1" xmlns="http://www.w3.org/2000/svg" xmlns:xlink="http://www.w3.org/1999/xlink" xml:space="preserve" xmlns:serif="http://www.serif.com/" style="fill-rule:evenodd;clip-rule:evenodd;stroke-linejoin:round;stroke-miterlimit:2;"><g><rect x="0" y="0" width="2083.333" height="2083.333" style="fill:#e91a1a;fill-opacity:0;"/><g><path d="M312.5,1174.737l590.258,340.792l841.154,-485.645l-590.273,-340.808l-841.139,485.66Z" style="fill:#ededed;fill-rule:nonzero;"/><path d="M1149.245,789.267l426.656,246.321l25.506,-14.717l-426.656,-246.336l-25.506,14.732Z" style="fill:#1d1d1b;fill-rule:nonzero;"/><path d="M1079.407,829.596l426.641,246.321l15.695,-9.059l-426.641,-246.321l-15.695,9.059Z" style="fill:#1d1d1b;fill-rule:nonzero;"/><path d="M1037.212,853.943l426.656,246.336l15.695,-9.059l-426.656,-246.336l-15.695,9.059Z" style="fill:#1d1d1b;fill-rule:nonzero;"/><path d="M995.033,878.306l426.641,246.321l15.695,-9.059l-426.641,-246.321l-15.695,9.059Z" style="fill:#1d1d1b;fill-rule:nonzero;"/><path d="M910.674,927.017l426.641,246.321l15.695,-9.059l-426.641,-246.336l-15.695,9.074Z" style="fill:#1d1d1b;fill-rule:nonzero;"/><path d="M868.479,951.364l426.657,246.336l15.695,-9.059l-426.657,-246.336l-15.695,9.059Z" style="fill:#1d1d1b;fill-rule:nonzero;"/><path d="M1089.594,1127.742l163.361,94.306l15.695,-9.059l-163.361,-94.321l-15.695,9.074Z" style="fill:#1d1d1b;fill-rule:nonzero;"/><path d="M784.12,1000.074l426.641,246.336l15.695,-9.059l-426.641,-246.336l-15.695,9.059Z" style="fill:#1d1d1b;fill-rule:nonzero;"/><path d="M741.94,1024.437l426.641,246.321l15.695,-9.059l-426.641,-246.336l-15.695,9.074Z" style="fill:#1d1d1b;fill-rule:nonzero;"/><path d="M799.694,1106.479l326.707,188.642l15.695,-9.074l-326.707,-188.627l-15.695,9.059Z" style="fill:#1d1d1b;fill-rule:nonzero;"/><path d="M809.596,1258.329l190.252,109.85l15.695,-9.059l-190.252,-109.85l-15.695,9.059Z" style="fill:#1d1d1b;fill-rule:nonzero;"/><path d="M767.401,1282.691l190.267,109.851l15.695,-9.074l-190.252,-109.851l-15.71,9.074Z" style="fill:#1d1d1b;fill-rule:nonzero;"/><path d="M677.159,1282.857l-223.283,-128.917l139.736,-80.672l223.282,128.901l-139.736,80.687Zm-234.839,-128.42l233.967,135.086l152.166,-87.851l-233.967,-135.086l-152.166,87.851Z" style="fill:#1d71b8;fill-rule:nonzero;"/><path d="M677.159,1282.857l-223.283,-128.917l139.736,-80.672l223.282,128.901l-139.736,80.687Zm-234.839,-128.42l233.967,135.086l152.166,-87.851l-233.967,-135.086l-152.166,87.851Z" style="fill:#1d71b8;fill-rule:nonzero;"/><path d="M678.874,1269.51l-201.884,-116.562l114.892,-66.347l201.899,116.562l-114.907,66.347Zm-213.441,-116.066l212.583,122.732l127.321,-73.51l-212.583,-122.732l-127.321,73.51Z" style="fill:#1d71b8;fill-rule:nonzero;"/><path d="M729.345,1179.612l40.78,23.55l-11.587,6.696l-40.795,-23.55l11.602,-6.696Z" style="fill:#1d71b8;fill-rule:nonzero;"/><path d="M707.947,1167.273l-11.587,6.696l-116.066,-67.008l11.602,-6.696l116.05,67.009Z" style="fill:#1d71b8;fill-rule:nonzero;"/><path d="M586.509,1139.615l146.838,84.781l11.602,-6.681l-146.838,-84.781l-11.602,6.681Z" style="fill:#1d71b8;fill-rule:nonzero;"/><path d="M634.753,1196.556l73.419,42.391l11.587,-6.696l-73.419,-42.391l-11.587,6.696Z" style="fill:#1d71b8;fill-rule:nonzero;"/><path d="M529.929,1136.033l55.678,32.143l11.602,-6.681l-55.678,-32.158l-11.602,6.696Z" style="fill:#1d71b8;fill-rule:nonzero;"/><path d="M536.144,1168.703l146.838,84.781l11.602,-6.696l-146.838,-84.781l-11.602,6.696Z" style="fill:#1d71b8;fill-rule:nonzero;"/><path d="M1350.783,966.909l0,407.591l244.575,-141.211l0,-407.591l-244.575,141.211Z" style="fill:#9d9d9c;fill-rule:nonzero;"/><path d="M1472.943,1204.306c7.659,-4.424 13.664,-14.807 13.664,-23.355l0,-291.255l-27.072,15.62l0,291.255c0,8.547 6.004,12.008 13.408,7.735Z" style="fill:#3c3c3b;fill-rule:nonzero;"/><path d="M1530.622,1025.009l0.572,454.661l39.426,22.903l-0.572,-454.661l-39.426,-22.903Z" style="fill:#b2b2b2;fill-rule:nonzero;"/><path d="M1570.048,1047.912l0.572,454.661l39.682,-22.903l-0.572,-454.661l-39.682,22.903Z" style="fill:#5f5f5f;fill-rule:nonzero;"/><path d="M1530.622,1025.009l39.426,22.903l39.682,-22.903l-39.426,-22.918l-39.682,22.918Z" style="fill:#999;fill-rule:nonzero;"/><path d="M1691.154,932.404l0.572,454.676l39.426,22.903l-0.572,-454.661l-39.426,-22.918Z" style="fill:#898989;fill-rule:nonzero;"/><path d="M1570.619,976.163l0,526.41l200.214,-115.493l-0.572,-454.676l-199.642,43.759Z" style="fill:#5f5f5f;fill-rule:nonzero;"/><path d="M1691.154,932.404l39.426,22.918l39.682,-22.918l-39.426,-22.903l-39.682,22.903Z" style="fill:#999;fill-rule:nonzero;"/><path d="M1670.598,1350.287c7.659,-4.439 13.664,-14.822 13.664,-23.37l0,-291.254l-27.071,15.635l0,291.254c0,8.532 6.004,11.993 13.408,7.735Z" style="fill:#3c3c3b;fill-rule:nonzero;"/><path d="M1329.219,907.815l0.572,454.661l39.426,22.918l-0.572,-454.676l-39.426,-22.903Z" style="fill:#b2b2b2;fill-rule:nonzero;"/><path d="M1368.645,930.718l0.572,454.676l39.682,-22.918l-0.572,-454.661l-39.682,22.903Z" style="fill:#5f5f5f;fill-rule:nonzero;"/><path d="M1329.219,907.815l39.426,22.903l39.682,-22.903l-39.426,-22.918l-39.682,22.918Z" style="fill:#999;fill-rule:nonzero;"/><path d="M1507.659,567.82c3.205,-0.135 6.064,0.557 8.472,1.971l244.741,142.219c-2.423,-1.4 -5.267,-2.092 -8.472,-1.971c-88.136,3.295 -176.002,132.287 -182.939,137.644l-244.741,-142.234c-0.105,-35.333 75.586,-133.611 182.939,-137.629Z" style="fill:#07ab3a;fill-rule:nonzero;"/><path d="M1569.461,847.683l1.053,370.557l200.319,-115.358l-1.053,-371.084c-0.03,-13.498 -6.727,-22.196 -17.38,-21.76c-107.879,4.033 -183.044,102.793 -182.939,137.644Z" style="fill:#132e19;fill-rule:nonzero;"/><path d="M1562.84,1183.51l-233.049,-135.597l0,-90.408l233.049,135.582l0,90.424Z" style="fill:#b2b2b2;fill-rule:nonzero;"/><path d="M1569.461,847.683l1.053,370.557l-24.679,-14.341l0,-110.783l-196.437,-113.402l0,110.031l-23.625,-13.724l-1.053,-370.573l244.741,142.234Z" style="fill:#18ba4f;fill-rule:nonzero;"/><path d="M1329.791,1362.476l240.828,140.097l0,-40.72l-240.828,-140.112l0,40.735Z" style="fill:#b2b2b2;fill-rule:nonzero;"/><path d="M1369.172,1344.659l161.962,94.231l-0.06,-47.763l-122.22,-69.386l-39.682,22.918Z" style="fill:#dadada;fill-rule:nonzero;"/><path d="M1665.437,1040.479c6.606,-3.807 12.595,-4.168 16.914,-1.656l9.27,5.387c-4.319,-2.513 -10.308,-2.152 -16.914,1.67c-13.137,7.569 -23.746,25.943 -23.701,41.051c0.015,7.494 2.664,12.761 6.937,15.244l-9.285,-5.387c-4.259,-2.483 -6.907,-7.749 -6.922,-15.258c-0.045,-15.093 10.564,-33.467 23.701,-41.051Z" style="fill:#ba2922;fill-rule:nonzero;"/><path d="M1674.707,1045.881c-13.137,7.569 -23.746,25.943 -23.701,41.051c0.045,15.093 10.714,21.173 23.851,13.589c13.137,-7.584 23.746,-25.958 23.701,-41.051c-0.045,-15.093 -10.714,-21.173 -23.851,-13.589Z" style="fill:#e6332a;fill-rule:nonzero;"/></g></g></svg>