<?xml version="1.0" encoding="UTF-8"?>
<svg id="Layer_2" data-name="Layer 2" xmlns="http://www.w3.org/2000/svg" viewBox="0 0 70 70">
  <defs>
    <style>
      .cls-1 {
        fill: #252525;
      }

      .cls-2 {
        fill: #f1f1f0;
      }

      .cls-3 {
        fill: #76b581;
      }
    </style>
  </defs>
  <g id="Layer_1-2" data-name="Layer 1">
    <g>
      <circle class="cls-2" cx="35" cy="35" r="35"/>
      <path class="cls-3" d="M42.56,25.05l-2.86-8.82c.9-.27,1.82-.5,2.73-.69,1.55-.31,3.05-.49,4.48-.55v9.37c0,2.54-3.56,3.1-4.35.69Z"/>
      <path class="cls-1" d="M40.45,39.83l-12.87-17.71c3.2-2.22,6.55-3.97,10-5.2l6.79,20.91c.78,2.41-2.43,4.05-3.92,2Z"/>
      <path class="cls-3" d="M43.02,54.55l-27.93-20.29c3.21-4.25,6.82-7.89,10.68-10.84l20.36,28.02c1.49,2.05-1.06,4.6-3.11,3.11Z"/>
    </g>
  </g>
</svg>