<?xml version="1.0" encoding="UTF-8"?>
<svg id="Layer_2" data-name="Layer 2" xmlns="http://www.w3.org/2000/svg" viewBox="0 0 70 70">
  <defs>
    <style>
      .cls-1 {
        fill: #f2f2f2;
      }

      .cls-2 {
        fill: #1a1a1a;
      }

      .cls-3 {
        fill: #76b581;
      }
    </style>
  </defs>
  <g id="Layer_1-2" data-name="Layer 1">
    <g>
      <g>
        <circle class="cls-1" cx="35" cy="35" r="35"/>
        <g>
          <path class="cls-3" d="M42.56,25.05l-2.86-8.82c.9-.27,1.82-.5,2.73-.69,1.55-.31,3.05-.49,4.48-.55v9.37c0,2.54-3.56,3.1-4.35.69Z"/>
          <path class="cls-2" d="M40.45,39.83l-12.87-17.71c3.2-2.22,6.55-3.97,10-5.2l6.79,20.91c.78,2.41-2.43,4.05-3.92,2Z"/>
          <path class="cls-3" d="M43.02,54.55l-27.93-20.29c3.21-4.25,6.82-7.89,10.68-10.84l20.36,28.02c1.49,2.05-1.06,4.6-3.11,3.11Z"/>
        </g>
      </g>
      <g>
        <path class="cls-2" d="M15.83,15.21l-2.29-2.65,1.16-1c.29-.25.59-.41.9-.49.31-.08.61-.07.9.02.29.09.55.27.78.54.23.27.37.55.42.85.05.3.01.6-.11.9-.12.3-.33.57-.61.82l-1.16,1ZM15.97,14.37l.64-.56c.2-.17.34-.36.42-.56.08-.2.1-.4.06-.61-.04-.2-.14-.4-.29-.58-.16-.18-.34-.31-.53-.38s-.4-.08-.61-.02c-.21.05-.42.16-.61.33l-.64.56,1.57,1.82Z"/>
        <path class="cls-2" d="M22.03,10.78c-.26.14-.52.21-.77.21-.25,0-.48-.06-.68-.18-.21-.12-.37-.3-.5-.53-.13-.23-.19-.47-.18-.71,0-.24.07-.46.2-.66.13-.2.31-.37.54-.49.23-.12.46-.18.69-.18.23,0,.45.07.65.19.2.13.37.31.5.56.01.02.03.05.04.08.01.03.03.06.04.09l-1.96,1.06-.2-.36,1.67-.9-.15.23c-.07-.14-.16-.24-.28-.31-.11-.07-.24-.11-.37-.11-.13,0-.26.03-.4.1-.13.07-.24.17-.31.28-.07.11-.1.24-.11.37,0,.13.04.27.11.41l.05.09c.08.14.18.25.3.32.12.07.26.11.41.1.15,0,.3-.05.45-.13.13-.07.24-.16.32-.25.08-.1.14-.21.18-.35l.48.18c-.04.18-.12.35-.24.5-.12.15-.29.28-.49.4Z"/>
        <path class="cls-2" d="M26.65,8.83c-.21.07-.43.1-.64.11-.21,0-.39-.01-.53-.06l.09-.53c.14.04.29.05.47.05.17,0,.34-.03.5-.08.19-.06.31-.13.38-.21s.09-.16.06-.25c-.02-.07-.07-.11-.14-.13-.07-.02-.15-.02-.25-.01-.1,0-.21.03-.32.04-.12.02-.24.03-.36.04-.12,0-.24,0-.35-.02-.11-.03-.21-.07-.29-.14-.08-.07-.15-.18-.2-.33-.05-.16-.05-.32,0-.46s.15-.28.3-.4.33-.21.56-.29c.17-.05.35-.09.54-.11.19-.02.35,0,.49.03l-.09.53c-.14-.04-.28-.05-.41-.04s-.26.04-.38.07c-.18.06-.31.13-.38.21-.07.08-.09.17-.07.25.02.07.07.12.14.14.07.02.15.03.25.02.1,0,.21-.02.33-.04.12-.02.24-.04.36-.04.12,0,.24,0,.34.02s.21.06.29.14c.09.07.15.18.2.32.05.16.05.31,0,.46-.06.15-.16.28-.31.4-.15.12-.35.22-.58.29Z"/>
        <path class="cls-2" d="M30.5,4.72c-.12.02-.21,0-.3-.07-.08-.06-.13-.14-.15-.25-.01-.1,0-.2.07-.28.06-.08.15-.13.27-.15.12-.02.21,0,.3.06.08.06.13.14.15.24.02.11,0,.21-.07.29-.06.08-.15.14-.27.15ZM30.64,7.84l-.39-2.64.62-.09.39,2.64-.62.09Z"/>
        <path class="cls-2" d="M35.55,7.38c-.25,0-.48-.07-.68-.18-.2-.11-.36-.27-.47-.47s-.17-.42-.16-.68c0-.26.07-.48.2-.67.12-.19.29-.34.5-.44.21-.1.44-.15.69-.14.23,0,.43.06.61.15.18.09.32.24.42.43.1.19.15.44.14.73,0,.3-.07.54-.18.73s-.26.33-.44.41c-.18.09-.39.13-.61.12ZM35.6,8.51c-.25,0-.49-.04-.72-.12-.23-.07-.42-.17-.57-.3l.29-.46c.12.1.26.18.44.24.18.06.36.1.54.1.29,0,.51-.05.65-.19.14-.13.21-.33.22-.6v-.47s.08-.6.08-.6v-.61s.01-.65.01-.65l.59.02-.06,2.26c-.01.48-.15.84-.4,1.06-.25.22-.61.33-1.08.31ZM35.66,6.86c.16,0,.3-.02.42-.09s.22-.15.29-.26c.07-.11.11-.24.11-.39,0-.15-.03-.28-.09-.4-.07-.12-.16-.21-.28-.27s-.26-.1-.42-.1c-.16,0-.3.02-.43.08-.13.06-.23.14-.3.26-.07.11-.11.25-.11.4,0,.15.03.28.09.4.07.12.16.21.28.28.12.07.26.1.42.11Z"/>
        <path class="cls-2" d="M42.3,5.69c.21.05.38.13.53.26.14.12.24.28.29.46.05.19.05.42-.01.68l-.36,1.49-.61-.15.34-1.41c.06-.23.04-.42-.04-.55-.08-.14-.22-.23-.41-.28-.14-.03-.28-.04-.4,0-.12.03-.23.1-.32.2-.09.1-.15.24-.19.41l-.32,1.31-.61-.15.62-2.6.58.14-.17.7-.05-.24c.13-.14.29-.24.49-.29.19-.05.41-.04.63.01Z"/>
        <path class="cls-2" d="M55.92,15.45l.39-.35.92,1.03-.39.35-.92-1.03Z"/>
        <path class="cls-2" d="M62.15,30.41l3.48-.4.19,1.63c.05.42,0,.74-.13.98-.14.24-.35.37-.62.4-.19.02-.35,0-.49-.08-.14-.07-.26-.17-.34-.31s-.14-.29-.16-.46l.19.07c.02.19,0,.37-.05.54-.05.16-.14.3-.27.41-.13.11-.29.17-.49.2-.3.04-.54-.05-.74-.26s-.31-.54-.37-.99l-.2-1.73ZM62.73,31l.12,1.04c.03.24.09.42.18.54.09.12.23.17.4.15.17-.02.29-.1.36-.24.07-.14.09-.33.06-.57l-.13-1.09.5-.06.11.96c.03.22.08.39.18.5.09.11.22.16.38.14.16-.02.28-.09.34-.22.07-.13.09-.31.06-.53l-.11-.91-2.46.29Z"/>
        <path class="cls-2" d="M62.34,37.59c.02-.22.08-.42.19-.58s.24-.29.43-.36c.18-.08.41-.1.67-.08l1.52.15-.06.62-1.43-.14c-.24-.02-.42.01-.55.11-.13.1-.2.25-.22.44-.01.15,0,.28.05.39.05.11.13.21.24.28s.26.12.43.14l1.34.13-.06.62-2.66-.27.06-.59.72.07-.23.08c-.16-.11-.28-.25-.36-.43s-.1-.38-.08-.58Z"/>
        <path class="cls-2" d="M61.56,42.15l2.57.72-.17.6-2.57-.72.17-.6ZM64.47,43.29c.03-.11.09-.2.18-.25.09-.05.19-.06.29-.04.1.03.18.09.23.18.05.09.06.19.03.3-.03.11-.09.2-.18.25-.09.05-.18.07-.28.04-.11-.03-.19-.09-.24-.18-.05-.09-.06-.19-.03-.31Z"/>
        <path class="cls-2" d="M60.32,45.76l3.4,1.49-.25.57-3.4-1.49.25-.57Z"/>
        <path class="cls-2" d="M57.49,50.84l.52.35.58.41.62.35,1.38.92-.34.52-3.08-2.06.33-.5ZM57.96,50.09c.14-.21.32-.37.53-.48.21-.11.43-.15.67-.13.23.02.47.1.7.25.23.15.4.33.5.54s.15.43.13.67-.1.46-.24.67c-.12.19-.28.33-.46.42-.18.09-.38.13-.61.1-.22-.03-.46-.12-.73-.3-.26-.17-.44-.36-.55-.55-.11-.19-.16-.39-.15-.6.01-.2.09-.4.21-.59ZM58.36,50.45c-.08.12-.13.25-.14.39-.01.14.02.27.08.4.07.13.17.24.31.34.14.1.29.15.43.16.14,0,.28-.01.4-.08.12-.06.22-.15.31-.28.08-.12.13-.25.14-.39.01-.13-.02-.27-.08-.4-.06-.13-.17-.24-.31-.34-.14-.09-.28-.15-.43-.16-.14-.01-.28.02-.4.08s-.22.15-.31.28Z"/>
        <path class="cls-2" d="M46.17,61.38l.19.48-1.28.5-.19-.48,1.28-.51Z"/>
        <path class="cls-2" d="M29.98,62.07l-.8,3.41-1.4-.33c-.3-.07-.55-.18-.74-.33-.19-.15-.33-.33-.4-.54-.07-.21-.08-.44-.02-.69.06-.25.17-.45.33-.6.16-.15.36-.25.6-.3s.51-.03.81.04l1.05.25-.35.22.3-1.28.63.15ZM27.75,61.55l.57,1.44-.68-.16-.57-1.44.68.16ZM29.06,63.14l.21.37-1.02-.24c-.28-.07-.5-.06-.67.03-.17.09-.28.24-.33.45-.05.22-.02.4.09.55.11.15.31.26.59.33l1.02.24-.35.24.46-1.97Z"/>
        <path class="cls-2" d="M23.18,59.8c.27.13.48.29.63.49.15.2.24.42.26.66s-.02.48-.14.72c-.11.24-.27.43-.46.56s-.41.21-.65.23c-.24.02-.48-.03-.72-.15-.24-.11-.42-.26-.56-.45s-.21-.4-.23-.64c-.02-.24.03-.48.15-.73.01-.02.03-.05.04-.08s.03-.06.05-.08l2.01.95-.18.38-1.71-.81h.28c-.07.12-.1.26-.09.39.01.13.05.26.13.37.08.11.18.2.32.26.14.07.27.09.41.08s.25-.06.36-.14c.11-.08.2-.19.27-.34l.04-.09c.07-.15.1-.29.08-.43-.01-.14-.07-.27-.16-.39-.09-.12-.22-.21-.38-.29-.13-.06-.27-.1-.39-.11-.13,0-.26.01-.38.06l-.14-.49c.17-.07.35-.11.54-.1.2,0,.4.06.61.16Z"/>
        <path class="cls-2" d="M18.36,56.86c.17.13.3.29.38.48.08.19.1.39.07.62s-.15.46-.34.71c-.19.25-.38.42-.59.52-.2.1-.4.13-.6.11-.2-.03-.39-.11-.57-.25-.21-.16-.36-.34-.46-.56-.09-.21-.12-.43-.1-.67.03-.23.12-.46.29-.68.17-.22.36-.38.58-.47.22-.09.44-.12.67-.09.23.03.45.12.66.28ZM18.09,57.32c-.12-.09-.25-.14-.38-.16-.13-.02-.27,0-.4.06s-.25.16-.35.29c-.1.14-.17.28-.19.42-.02.14,0,.28.05.4s.14.23.26.32c.12.09.25.15.38.16.14.02.27,0,.4-.06.13-.06.25-.16.35-.29.1-.14.16-.28.18-.42.02-.14,0-.28-.05-.4-.06-.12-.14-.23-.26-.32ZM20.11,57l-2.19,2.91-.47-.36.38-.5.44-.56.39-.6.96-1.27.5.38Z"/>
        <path class="cls-2" d="M14.33,53.08c.2.22.32.46.38.7.06.24.05.48-.02.71-.08.23-.21.43-.41.6-.2.18-.42.29-.65.33-.23.05-.46.03-.69-.05s-.42-.22-.6-.42c-.17-.2-.28-.41-.33-.63-.05-.23-.04-.45.04-.68.08-.22.22-.43.43-.62.02-.02.04-.04.07-.06.03-.02.05-.04.08-.06l1.47,1.67-.31.28-1.25-1.42.26.1c-.12.1-.2.21-.24.34-.04.13-.05.26-.02.39.03.13.09.25.19.36.1.12.21.19.34.24s.25.05.39.02c.13-.03.26-.1.38-.2l.08-.07c.12-.11.2-.23.25-.36.04-.14.05-.28,0-.42-.04-.14-.12-.28-.23-.41-.1-.11-.21-.2-.32-.26-.11-.06-.24-.09-.38-.09l.07-.51c.18,0,.37.04.54.13s.34.22.5.39Z"/>
        <path class="cls-2" d="M10.97,48.4l-.47.27-.08.09-.82.48c-.16.09-.25.21-.29.36-.03.14,0,.31.12.51.08.13.17.25.28.35.11.1.23.17.35.22l-.27.44c-.17-.07-.33-.17-.47-.32-.15-.14-.28-.31-.38-.49-.19-.33-.27-.64-.21-.91.05-.28.25-.51.58-.71l1.35-.79.3.51ZM11.42,49.11c.1.17.16.34.18.5.02.16,0,.31-.07.44-.06.13-.16.24-.29.31-.13.08-.26.11-.4.11-.14,0-.28-.06-.42-.16-.14-.11-.28-.27-.42-.51l-.39-.67.36-.21.37.63c.11.18.21.29.31.32.1.03.19.02.27-.03.1-.06.15-.14.16-.25s-.02-.24-.1-.37c-.08-.13-.18-.23-.3-.3-.12-.07-.25-.09-.4-.07l.27-.28c.17-.03.33,0,.48.09.15.09.29.24.41.44Z"/>
        <path class="cls-2" d="M9.07,44.06c.1.28.11.52.02.72-.09.2-.27.35-.55.45l-2.25.82-.21-.59,2.24-.81c.12-.04.2-.11.24-.19.04-.09.05-.18,0-.29-.05-.13-.12-.23-.22-.29l.36-.32c.08.05.16.12.22.21.06.09.12.19.15.29ZM7.48,46.09l-.47.17-.61-1.67.47-.17.61,1.67Z"/>
        <path class="cls-2" d="M6.98,29.04l-.51-.12.32-1.34.51.12-.32,1.34Z"/>
      </g>
    </g>
  </g>
</svg>