<?xml version="1.0" encoding="UTF-8" standalone="no"?><!DOCTYPE svg PUBLIC "-//W3C//DTD SVG 1.1//EN" "http://www.w3.org/Graphics/SVG/1.1/DTD/svg11.dtd"><svg width="100%" height="100%" viewBox="0 0 4549 1875" version="1.1" xmlns="http://www.w3.org/2000/svg" xmlns:xlink="http://www.w3.org/1999/xlink" xml:space="preserve" xmlns:serif="http://www.serif.com/" style="fill-rule:evenodd;clip-rule:evenodd;stroke-linejoin:round;stroke-miterlimit:2;"><rect id="Tavola-da-disegno1" serif:id="Tavola da disegno1" x="0" y="0" width="4548.129" height="1875" style="fill:none;"/><clipPath id="_clip1"><rect x="0" y="0" width="4548.129" height="1875"/></clipPath><g clip-path="url(#_clip1)"><g><path d="M4548.129,146.332l0,40.237l-20.048,-27.587c6.577,-4.559 13.265,-8.78 20.048,-12.651Zm0,62.422l0,89.07l-93.182,-67.7c18.783,-24.891 39.937,-46.236 62.579,-63.493l30.603,42.123Zm0,406.184l0,40.237l-20.048,-27.587c6.577,-4.559 13.265,-8.78 20.048,-12.651Zm0,62.422l0,89.07l-93.182,-67.7c18.783,-24.891 39.937,-46.236 62.579,-63.493l30.603,42.123Zm0,406.472l0,40.237l-20.048,-27.587c6.577,-4.559 13.265,-8.78 20.048,-12.651Zm0,62.422l0,89.07l-93.182,-67.7c18.783,-24.891 39.937,-46.236 62.579,-63.493l30.603,42.123Zm0,406.328l0,40.237l-20.048,-27.587c6.577,-4.559 13.265,-8.78 20.048,-12.651Zm0,62.422l0,89.07l-93.182,-67.7c18.783,-24.891 39.937,-46.236 62.579,-63.493l30.603,42.123Zm-20.253,259.996l-38.134,0l-54.842,-75.464c18.74,-12.992 38.383,-23.235 58.568,-30.448l34.408,105.912Zm-54.263,0l-105.897,0l-5.951,-4.323c18.783,-24.891 39.937,-46.236 62.579,-63.493l49.269,67.816Zm-180.04,0l-38.134,0l-54.842,-75.464c18.74,-12.992 38.383,-23.235 58.568,-30.448l34.408,105.912Zm-54.263,0l-105.897,0l-5.951,-4.323c18.783,-24.891 39.937,-46.236 62.579,-63.493l49.269,67.816Zm-180.04,0l-38.134,0l-54.842,-75.464c18.74,-12.992 38.383,-23.235 58.568,-30.448l34.408,105.912Zm-54.263,0l-105.897,0l-5.951,-4.323c18.783,-24.891 39.937,-46.236 62.579,-63.493l49.269,67.816Zm-180.04,0l-38.134,0l-54.842,-75.464c18.74,-12.992 38.383,-23.235 58.568,-30.448l34.408,105.912Zm-54.263,0l-105.897,0l-5.951,-4.323c18.783,-24.891 39.937,-46.236 62.579,-63.493l49.269,67.816Zm-1117.253,0l-38.134,0l-54.842,-75.464c18.74,-12.992 38.383,-23.235 58.568,-30.448l34.408,105.912Zm-54.263,0l-105.897,0l-5.951,-4.323c18.783,-24.891 39.937,-46.236 62.579,-63.493l49.269,67.816Zm-180.04,0l-38.134,0l-54.842,-75.464c18.74,-12.992 38.383,-23.235 58.568,-30.448l34.408,105.912Zm-54.263,0l-105.897,0l-5.951,-4.323c18.783,-24.891 39.937,-46.236 62.579,-63.493l49.269,67.816Zm-180.04,0l-38.134,0l-54.842,-75.464c18.74,-12.992 38.383,-23.235 58.568,-30.448l34.408,105.912Zm-54.263,0l-105.897,0l-5.951,-4.323c18.783,-24.891 39.937,-46.236 62.579,-63.493l49.269,67.816Zm-180.04,0l-38.134,0l-54.842,-75.464c18.74,-12.992 38.383,-23.235 58.568,-30.448l34.408,105.912Zm-54.263,0l-105.897,0l-5.951,-4.323c18.783,-24.891 39.937,-46.236 62.579,-63.493l49.269,67.816Zm-1896.279,-1345.334l0,-91.143l91.828,126.397c8.732,12.016 -6.205,26.953 -18.225,18.221l-73.603,-53.476Zm0,-147.325c13.55,-7.986 27.495,-14.568 41.709,-19.647l39.801,122.51c4.588,14.129 -14.23,23.716 -22.962,11.7l-58.548,-80.564l0,-33.999Zm0,-382.341l21.855,-0l69.973,96.314c8.732,12.016 -6.205,26.953 -18.225,18.221l-73.603,-53.476l0,-61.06Zm4548.129,351.598l-0.016,54.863c-0.004,14.855 -20.861,18.159 -25.453,4.03l-16.78,-51.641c5.287,-1.585 10.653,-2.901 15.987,-4.026c9.052,-1.808 17.846,-2.89 26.262,-3.226Zm0,468.606l-0.016,54.863c-0.004,14.855 -20.861,18.159 -25.453,4.03l-16.78,-51.641c5.287,-1.585 10.653,-2.901 15.987,-4.026c9.052,-1.808 17.846,-2.89 26.262,-3.226Zm0,468.894l-0.016,54.863c-0.004,14.855 -20.861,18.159 -25.453,4.03l-16.78,-51.641c5.287,-1.585 10.653,-2.901 15.987,-4.026c9.052,-1.808 17.846,-2.89 26.262,-3.226Zm0,468.75l-0.016,54.863c-0.004,14.855 -20.861,18.159 -25.453,4.03l-16.78,-51.641c5.287,-1.585 10.653,-2.901 15.987,-4.026c9.052,-1.808 17.846,-2.89 26.262,-3.226Zm-4548.129,86.925l21.855,30.083l-21.855,0l0,-30.083Zm0,-56.183c13.55,-7.986 27.495,-14.568 41.709,-19.647l34.408,105.912l-38.134,0l-37.983,-52.266l0,-33.999Zm0,-382.341l21.855,0l69.973,96.314c8.732,12.016 -6.205,26.953 -18.225,18.221l-73.603,-53.476l0,-61.06Zm0,-30.227l21.855,30.083l-21.855,0l0,-30.083Zm0,-56.183c13.55,-7.986 27.495,-14.568 41.709,-19.647l34.408,105.912l-38.134,0l-37.983,-52.266l0,-33.999Zm0,-382.341l21.855,0l69.973,96.314c8.732,12.016 -6.205,26.953 -18.225,18.221l-73.603,-53.476l0,-61.06Zm0,-30.37l21.855,30.083l-21.855,0l0,-30.083Zm0,-56.183c13.55,-7.986 27.495,-14.568 41.709,-19.647l34.408,105.912l-38.134,0l-37.983,-52.266l0,-33.999Zm854.639,349.154l-75.407,-103.762c6.577,-4.559 13.265,-8.78 20.048,-12.651c12.546,-7.158 25.419,-13.116 38.52,-17.797l39.801,122.51c4.588,14.129 -14.23,23.716 -22.962,11.7Zm0,468.75l-75.407,-103.762c6.577,-4.559 13.265,-8.78 20.048,-12.651c12.546,-7.158 25.419,-13.116 38.52,-17.797l39.801,122.51c4.588,14.129 -14.23,23.716 -22.962,11.7Zm15.055,86.238l-163.596,-118.859c18.783,-24.891 39.937,-46.236 62.579,-63.493l119.242,164.131c8.732,12.016 -6.205,26.953 -18.225,18.221Zm0,-468.75l-163.596,-118.859c18.783,-24.891 39.937,-46.236 62.579,-63.493l119.242,164.131c8.732,12.016 -6.205,26.953 -18.225,18.221Zm-327.485,-703.197l-163.596,-118.859c18.783,-24.891 39.937,-46.236 62.579,-63.493l119.242,164.131c8.732,12.016 -6.205,26.953 -18.225,18.221Zm327.485,234.303l-163.596,-118.859c18.783,-24.891 39.937,-46.236 62.579,-63.493l119.242,164.131c8.732,12.016 -6.205,26.953 -18.225,18.221Zm-342.54,-320.541l-75.407,-103.762c18.74,-12.992 38.383,-23.235 58.568,-30.448l39.801,122.51c4.588,14.129 -14.23,23.716 -22.962,11.7Zm327.485,234.303l-75.407,-103.762c6.577,-4.559 13.265,-8.78 20.048,-12.651c12.546,-7.158 25.419,-13.116 38.52,-17.797l39.801,122.51c4.588,14.129 -14.23,23.716 -22.962,11.7Zm-78.127,-148.065l-163.596,-118.859c18.783,-24.891 39.937,-46.236 62.579,-63.493l119.242,164.131c8.732,12.016 -6.205,26.953 -18.225,18.221Zm-15.055,-86.238l-75.407,-103.762c18.74,-12.992 38.383,-23.235 58.568,-30.448l39.801,122.51c4.588,14.129 -14.23,23.716 -22.962,11.7Zm3009.246,-496.76l69.973,96.314c8.732,12.016 -6.205,26.953 -18.225,18.221l-157.645,-114.536l105.897,0Zm-792.283,348.695l-163.596,-118.859c18.783,-24.891 39.937,-46.236 62.579,-63.493l119.242,164.131c8.732,12.016 -6.205,26.953 -18.225,18.221Zm-2.701,-172.795l-16.78,-51.641c5.287,-1.585 10.653,-2.901 15.987,-4.026c9.052,-1.808 17.846,-2.89 26.262,-3.226l-0.016,54.863c-0.004,14.855 -20.861,18.159 -25.453,4.03Zm702.909,0.144l-16.78,-51.641c5.287,-1.585 10.653,-2.901 15.987,-4.026c9.052,-1.808 17.846,-2.89 26.262,-3.226l-0.016,54.863c-0.004,14.855 -20.861,18.159 -25.453,4.03Zm-556.572,1230.062l5.392,16.598c4.588,14.129 -14.23,23.716 -22.962,11.7l-20.565,-28.298l38.134,0Zm-146.337,176.044l-16.78,-51.641c5.287,-1.585 10.653,-2.901 15.987,-4.026c9.052,-1.808 17.846,-2.89 26.262,-3.226l-0.016,54.863c-0.004,14.855 -20.861,18.159 -25.453,4.03Zm-93.182,-1171.947l-16.78,-51.641c5.287,-1.585 10.653,-2.901 15.987,-4.026c9.052,-1.808 17.846,-2.89 26.262,-3.226l-0.016,54.863c-0.004,14.855 -20.861,18.159 -25.453,4.03Zm-49.047,995.903l69.973,96.314c8.732,12.016 -6.205,26.953 -18.225,18.221l-157.645,-114.536l105.897,0Zm-105.897,468.606l-5.951,-4.323c18.783,-24.891 39.937,-46.236 62.579,-63.493l49.269,67.816l-105.897,0Zm160.16,-468.606l5.392,16.598c4.588,14.129 -14.23,23.716 -22.962,11.7l-20.565,-28.298l38.134,0Zm254.556,351.455l-0.016,54.863c-0.004,14.855 -20.861,18.159 -25.453,4.03l-16.78,-51.641c5.287,-1.585 10.653,-2.901 15.987,-4.026c9.052,-1.808 17.846,-2.89 26.262,-3.226Zm-163.889,-2.616l-163.596,-118.859c18.783,-24.891 39.937,-46.236 62.579,-63.493l119.242,164.131c8.732,12.016 -6.205,26.953 -18.225,18.221Zm105.502,119.767l-54.842,-75.464c18.74,-12.992 38.383,-23.235 58.568,-30.448l34.408,105.912l-38.134,0Zm-342.506,-292.562l-16.78,-51.641c5.287,-1.585 10.653,-2.901 15.987,-4.026c9.052,-1.808 17.846,-2.89 26.262,-3.226l-0.016,54.863c-0.004,14.855 -20.861,18.159 -25.453,4.03Zm92.075,-1582.294l69.973,96.314c8.732,12.016 -6.205,26.953 -18.225,18.221l-157.645,-114.536l105.897,0Zm54.263,0l5.392,16.598c4.588,14.129 -14.23,23.716 -22.962,11.7l-20.565,-28.298l38.134,0Zm1025.178,176.188l-16.78,-51.641c5.287,-1.585 10.653,-2.901 15.987,-4.026c9.052,-1.808 17.846,-2.89 26.262,-3.226l-0.016,54.863c-0.004,14.855 -20.861,18.159 -25.453,4.03Zm-937.212,937.356l-16.78,-51.641c5.287,-1.585 10.653,-2.901 15.987,-4.026c9.052,-1.808 17.846,-2.89 26.262,-3.226l-0.016,54.863c-0.004,14.855 -20.861,18.159 -25.453,4.03Zm939.913,-764.562l-163.596,-118.859c18.783,-24.891 39.937,-46.236 62.579,-63.493l119.242,164.131c8.732,12.016 -6.205,26.953 -18.225,18.221Zm163.889,2.616l-0.016,54.863c-0.004,14.855 -20.861,18.159 -25.453,4.03l-16.78,-51.641c5.287,-1.585 10.653,-2.901 15.987,-4.026c9.052,-1.808 17.846,-2.89 26.262,-3.226Zm-74.516,-351.455l69.973,96.314c8.732,12.016 -6.205,26.953 -18.225,18.221l-157.645,-114.536l105.897,0Zm-882.95,-0.144l5.392,16.598c4.588,14.129 -14.23,23.716 -22.962,11.7l-20.565,-28.298l38.134,0Zm778.521,262.745l-75.407,-103.762c18.74,-12.992 38.383,-23.235 58.568,-30.448l39.801,122.51c4.588,14.129 -14.23,23.716 -22.962,11.7Zm-758.268,88.71l-0.016,54.863c-0.004,14.855 -20.861,18.159 -25.453,4.03l-16.78,-51.641c5.287,-1.585 10.653,-2.901 15.987,-4.026c9.052,-1.808 17.846,-2.89 26.262,-3.226Zm-292.691,1523.402l-54.842,-75.464c18.74,-12.992 38.383,-23.235 58.568,-30.448l34.408,105.912l-38.134,0Zm970.131,-1464.365l-16.78,-51.641c5.287,-1.585 10.653,-2.901 15.987,-4.026c9.052,-1.808 17.846,-2.89 26.262,-3.226l-0.016,54.863c-0.004,14.855 -20.861,18.159 -25.453,4.03Zm5.216,-410.347l5.392,16.598c4.588,14.129 -14.23,23.716 -22.962,11.7l-20.565,-28.298l38.134,0Zm-522.869,0l69.973,96.314c8.732,12.016 -6.205,26.953 -18.225,18.221l-157.645,-114.536l105.897,0Zm54.263,0l5.392,16.598c4.588,14.129 -14.23,23.716 -22.962,11.7l-20.565,-28.298l38.134,0Zm234.303,0l5.392,16.598c4.588,14.129 -14.23,23.716 -22.962,11.7l-20.565,-28.298l38.134,0Zm-522.869,1406.106l69.973,96.314c8.732,12.016 -6.205,26.953 -18.225,18.221l-157.645,-114.536l105.897,0Zm991.475,-1406.106l5.392,16.598c4.588,14.129 -14.23,23.716 -22.962,11.7l-20.565,-28.298l38.134,0Zm-522.869,0l69.973,96.314c8.732,12.016 -6.205,26.953 -18.225,18.221l-157.645,-114.536l105.897,0Zm-794.984,1113.4l-16.78,-51.641c5.287,-1.585 10.653,-2.901 15.987,-4.026c9.052,-1.808 17.846,-2.89 26.262,-3.226l-0.016,54.863c-0.004,14.855 -20.861,18.159 -25.453,4.03Zm869.499,-761.946l-0.016,54.863c-0.004,14.855 -20.861,18.159 -25.453,4.03l-16.78,-51.641c5.287,-1.585 10.653,-2.901 15.987,-4.026c9.052,-1.808 17.846,-2.89 26.262,-3.226Zm-649.019,1523.258l-5.951,-4.323c18.783,-24.891 39.937,-46.236 62.579,-63.493l49.269,67.816l-105.897,0Zm-79.359,-58.259l-16.78,-51.641c5.287,-1.585 10.653,-2.901 15.987,-4.026c9.052,-1.808 17.846,-2.89 26.262,-3.226l-0.016,54.863c-0.004,14.855 -20.861,18.159 -25.453,4.03Zm185.256,-1816.597l69.973,96.314c8.732,12.016 -6.205,26.953 -18.225,18.221l-157.645,-114.536l105.897,0Zm-104.428,1200.101l-75.407,-103.762c18.74,-12.992 38.383,-23.235 58.568,-30.448l39.801,122.51c4.588,14.129 -14.23,23.716 -22.962,11.7Zm0,-937.5l-75.407,-103.762c18.74,-12.992 38.383,-23.235 58.568,-30.448l39.801,122.51c4.588,14.129 -14.23,23.716 -22.962,11.7Zm0,1406.25l-75.407,-103.762c18.74,-12.992 38.383,-23.235 58.568,-30.448l39.801,122.51c4.588,14.129 -14.23,23.716 -22.962,11.7Zm-221.949,-1492.807l-16.78,-51.641c5.287,-1.585 10.653,-2.901 15.987,-4.026c9.052,-1.808 17.846,-2.89 26.262,-3.226l-0.016,54.863c-0.004,14.855 -20.861,18.159 -25.453,4.03Zm-1745.657,320.86l-75.407,-103.762c18.74,-12.992 38.383,-23.235 58.568,-30.448l39.801,122.51c4.588,14.129 -14.23,23.716 -22.962,11.7Zm327.485,234.303l-75.407,-103.762c6.577,-4.559 13.265,-8.78 20.048,-12.651c12.546,-7.158 25.419,-13.116 38.52,-17.797l39.801,122.51c4.588,14.129 -14.23,23.716 -22.962,11.7Zm1093.388,-147.921l-163.596,-118.859c18.783,-24.891 39.937,-46.236 62.579,-63.493l119.242,164.131c8.732,12.016 -6.205,26.953 -18.225,18.221Zm-1171.515,-0.144l-163.596,-118.859c18.783,-24.891 39.937,-46.236 62.579,-63.493l119.242,164.131c8.732,12.016 -6.205,26.953 -18.225,18.221Zm78.127,616.959l-75.407,-103.762c6.577,-4.559 13.265,-8.78 20.048,-12.651c12.546,-7.158 25.419,-13.116 38.52,-17.797l39.801,122.51c4.588,14.129 -14.23,23.716 -22.962,11.7Zm937.212,-468.75l-75.407,-103.762c6.577,-4.559 13.265,-8.78 20.048,-12.651c12.546,-7.158 25.419,-13.116 38.52,-17.797l39.801,122.51c4.588,14.129 -14.23,23.716 -22.962,11.7Zm-922.157,1023.738l-163.596,-118.859c18.783,-24.891 39.937,-46.236 62.579,-63.493l119.242,164.131c8.732,12.016 -6.205,26.953 -18.225,18.221Zm-15.055,-86.238l-75.407,-103.762c6.577,-4.559 13.265,-8.78 20.048,-12.651c12.546,-7.158 25.419,-13.116 38.52,-17.797l39.801,122.51c4.588,14.129 -14.23,23.716 -22.962,11.7Zm952.267,-1319.868l-163.596,-118.859c18.783,-24.891 39.937,-46.236 62.579,-63.493l119.242,164.131c8.732,12.016 -6.205,26.953 -18.225,18.221Zm-15.055,-86.238l-75.407,-103.762c6.577,-4.559 13.265,-8.78 20.048,-12.651c12.546,-7.158 25.419,-13.116 38.52,-17.797l39.801,122.51c4.588,14.129 -14.23,23.716 -22.962,11.7Zm-992.571,-76.319l-20.048,-27.587c6.577,-4.559 13.265,-8.78 20.048,-12.651l0,0.144c12.546,-7.158 25.419,-13.116 38.52,-17.797l39.801,122.51c4.588,14.129 -14.23,23.716 -22.962,11.7l-55.359,-76.175l0,-0.144Zm0,111.255l-93.182,-67.7c18.783,-24.891 39.937,-46.236 62.579,-63.493l30.603,42.123l0,0.144l88.639,122.007c8.732,12.016 -6.205,26.953 -18.225,18.221l-70.414,-51.159l0,-0.144Zm1007.626,519.909l-163.596,-118.859c18.783,-24.891 39.937,-46.236 62.579,-63.493l119.242,164.131c8.732,12.016 -6.205,26.953 -18.225,18.221Zm126.066,-320.541l-75.407,-103.762c18.74,-12.992 38.383,-23.235 58.568,-30.448l39.801,122.51c4.588,14.129 -14.23,23.716 -22.962,11.7Zm-1171.515,-0.144l-75.407,-103.762c18.74,-12.992 38.383,-23.235 58.568,-30.448l39.801,122.51c4.588,14.129 -14.23,23.716 -22.962,11.7Zm108.237,320.541l-163.596,-118.859c18.783,-24.891 39.937,-46.236 62.579,-63.493l119.242,164.131c8.732,12.016 -6.205,26.953 -18.225,18.221Zm-327.485,-234.303l-163.596,-118.859c18.783,-24.891 39.937,-46.236 62.579,-63.493l119.242,164.131c8.732,12.016 -6.205,26.953 -18.225,18.221Zm327.485,703.197l-163.596,-118.859c18.783,-24.891 39.937,-46.236 62.579,-63.493l119.242,164.131c8.732,12.016 -6.205,26.953 -18.225,18.221Zm828.976,-789.291l-75.407,-103.762c18.74,-12.992 38.383,-23.235 58.568,-30.448l39.801,122.51c4.588,14.129 -14.23,23.716 -22.962,11.7Zm483.661,86.238l-163.596,-118.859c18.783,-24.891 39.937,-46.236 62.579,-63.493l119.242,164.131c8.732,12.016 -6.205,26.953 -18.225,18.221Zm-15.055,-86.238l-75.407,-103.762c18.74,-12.992 38.383,-23.235 58.568,-30.448l39.801,122.51c4.588,14.129 -14.23,23.716 -22.962,11.7Zm1263.228,909.202l-5.951,-4.323c18.783,-24.891 39.937,-46.236 62.579,-63.493l49.269,67.816l-105.897,0Zm-2092.204,-1057.267l-163.596,-118.859c18.783,-24.891 39.937,-46.236 62.579,-63.493l119.242,164.131c8.732,12.016 -6.205,26.953 -18.225,18.221Zm-15.055,-86.238l-75.407,-103.762c6.577,-4.559 13.265,-8.78 20.048,-12.651c12.546,-7.158 25.419,-13.116 38.52,-17.797l39.801,122.51c4.588,14.129 -14.23,23.716 -22.962,11.7Zm1404.548,206.005l-0.198,0l-5.951,-4.323c18.783,-24.891 39.937,-46.236 62.579,-63.493l49.164,67.672l0.105,0l69.973,96.314c8.732,12.016 -6.205,26.953 -18.225,18.221l-157.447,-114.392Zm121.932,0l-0.105,0l-54.842,-75.464c18.74,-12.992 38.383,-23.235 58.568,-30.448l34.362,105.768l0.047,0l5.392,16.598c4.588,14.129 -14.23,23.716 -22.962,11.7l-20.46,-28.154Zm-1996.356,0l-0.198,0l-5.951,-4.323c18.783,-24.891 39.937,-46.236 62.579,-63.493l49.164,67.672l0.105,0l69.973,96.314c8.732,12.016 -6.205,26.953 -18.225,18.221l-157.447,-114.392Zm2448.729,468.894l69.973,96.314c8.732,12.016 -6.205,26.953 -18.225,18.221l-157.645,-114.536l105.897,0Zm-218.07,-468.894l-0.105,0l-54.842,-75.464c18.74,-12.992 38.383,-23.235 58.568,-30.448l34.362,105.768l0.047,0l5.392,16.598c4.588,14.129 -14.23,23.716 -22.962,11.7l-20.46,-28.154Zm-2108.727,0l-0.105,0l-54.842,-75.464c18.74,-12.992 38.383,-23.235 58.568,-30.448l34.362,105.768l0.047,0l5.392,16.598c4.588,14.129 -14.23,23.716 -22.962,11.7l-20.46,-28.154Zm1986.796,0l-0.198,0l-5.951,-4.323c18.783,-24.891 39.937,-46.236 62.579,-63.493l49.164,67.672l0.105,0l69.973,96.314c8.732,12.016 -6.205,26.953 -18.225,18.221l-157.447,-114.392Zm-1752.493,0l-0.105,0l-54.842,-75.464c18.74,-12.992 38.383,-23.235 58.568,-30.448l34.362,105.768l0.047,0l5.392,16.598c4.588,14.129 -14.23,23.716 -22.962,11.7l-20.46,-28.154Zm2146.757,468.894l5.392,16.598c4.588,14.129 -14.23,23.716 -22.962,11.7l-20.565,-28.298l38.134,0Zm180.04,0l69.973,96.314c8.732,12.016 -6.205,26.953 -18.225,18.221l-157.645,-114.536l105.897,0Zm54.263,0l5.392,16.598c4.588,14.129 -14.23,23.716 -22.962,11.7l-20.565,-28.298l38.134,0Zm20.253,351.455l-0.016,54.863c-0.004,14.855 -20.861,18.159 -25.453,4.03l-16.78,-51.641c5.287,-1.585 10.653,-2.901 15.987,-4.026c9.052,-1.808 17.846,-2.89 26.262,-3.226Zm-2523.245,-820.348l-0.198,0l-5.951,-4.323c18.783,-24.891 39.937,-46.236 62.579,-63.493l49.164,67.672l0.105,0l69.973,96.314c8.732,12.016 -6.205,26.953 -18.225,18.221l-157.447,-114.392Zm2464.858,937.5l-54.842,-75.464c18.74,-12.992 38.383,-23.235 58.568,-30.448l34.408,105.912l-38.134,0Zm-1293.54,-0.144l-5.951,-4.323c18.783,-24.891 39.937,-46.236 62.579,-63.493l49.269,67.816l-105.897,0Zm883.322,351.598l-0.016,54.863c-0.004,14.855 -20.861,18.159 -25.453,4.03l-16.78,-51.641c5.287,-1.585 10.653,-2.901 15.987,-4.026c9.052,-1.808 17.846,-2.89 26.262,-3.226Zm-259.772,-878.751l-16.78,-51.641c5.287,-1.585 10.653,-2.901 15.987,-4.026c9.052,-1.808 17.846,-2.89 26.262,-3.226l-0.016,54.863c-0.004,14.855 -20.861,18.159 -25.453,4.03Zm1122.468,-878.809l69.973,96.314c8.732,12.016 -6.205,26.953 -18.225,18.221l-157.645,-114.536l105.897,0Zm-89.373,348.839l-163.596,-118.859c18.783,-24.891 39.937,-46.236 62.579,-63.493l119.242,164.131c8.732,12.016 -6.205,26.953 -18.225,18.221Zm-144.93,-348.839l69.973,96.314c8.732,12.016 -6.205,26.953 -18.225,18.221l-157.645,-114.536l105.897,0Zm-794.984,644.506l-16.78,-51.641c5.287,-1.585 10.653,-2.901 15.987,-4.026c9.052,-1.808 17.846,-2.89 26.262,-3.226l-0.016,54.863c-0.004,14.855 -20.861,18.159 -25.453,4.03Zm1083.549,-644.506l5.392,16.598c4.588,14.129 -14.23,23.716 -22.962,11.7l-20.565,-28.298l38.134,0Zm-239.519,410.347l-16.78,-51.641c5.287,-1.585 10.653,-2.901 15.987,-4.026c9.052,-1.808 17.846,-2.89 26.262,-3.226l-0.016,54.863c-0.004,14.855 -20.861,18.159 -25.453,4.03Zm-970.131,526.721l-54.842,-75.464c18.74,-12.992 38.383,-23.235 58.568,-30.448l34.408,105.912l-38.134,0Zm829.009,-761.024l-16.78,-51.641c5.287,-1.585 10.653,-2.901 15.987,-4.026c9.052,-1.808 17.846,-2.89 26.262,-3.226l-0.016,54.863c-0.004,14.855 -20.861,18.159 -25.453,4.03Zm146.337,-176.044l5.392,16.598c4.588,14.129 -14.23,23.716 -22.962,11.7l-20.565,-28.298l38.134,0Zm-1097.372,937.068l-5.951,-4.323c18.783,-24.891 39.937,-46.236 62.579,-63.493l49.269,67.816l-105.897,0Zm1185.338,-761.024l-16.78,-51.641c5.287,-1.585 10.653,-2.901 15.987,-4.026c9.052,-1.808 17.846,-2.89 26.262,-3.226l-0.016,54.863c-0.004,14.855 -20.861,18.159 -25.453,4.03Zm-12.354,86.557l-75.407,-103.762c18.74,-12.992 38.383,-23.235 58.568,-30.448l39.801,122.51c4.588,14.129 -14.23,23.716 -22.962,11.7Zm-924.858,1319.549l-16.78,-51.641c5.287,-1.585 10.653,-2.901 15.987,-4.026c9.052,-1.808 17.846,-2.89 26.262,-3.226l-0.016,54.863c-0.004,14.855 -20.861,18.159 -25.453,4.03Zm2.701,172.795l-163.596,-118.859c18.783,-24.891 39.937,-46.236 62.579,-63.493l119.242,164.131c8.732,12.016 -6.205,26.953 -18.225,18.221Zm-250.827,119.767l-5.951,-4.323c18.783,-24.891 39.937,-46.236 62.579,-63.493l49.269,67.816l-105.897,0Zm-362.709,-937.356l69.973,96.314c8.732,12.016 -6.205,26.953 -18.225,18.221l-157.645,-114.536l105.897,0Zm613.536,-120.055l-163.596,-118.859c18.783,-24.891 39.937,-46.236 62.579,-63.493l119.242,164.131c8.732,12.016 -6.205,26.953 -18.225,18.221Zm-559.273,120.055l5.392,16.598c4.588,14.129 -14.23,23.716 -22.962,11.7l-20.565,-28.298l38.134,0Zm648.647,468.75l69.973,96.314c8.732,12.016 -6.205,26.953 -18.225,18.221l-157.645,-114.536l105.897,0Zm-326.378,176.044l-16.78,-51.641c5.287,-1.585 10.653,-2.901 15.987,-4.026c9.052,-1.808 17.846,-2.89 26.262,-3.226l-0.016,54.863c-0.004,14.855 -20.861,18.159 -25.453,4.03Zm108.203,292.562l-54.842,-75.464c18.74,-12.992 38.383,-23.235 58.568,-30.448l34.408,105.912l-38.134,0Zm-250.431,-937.356l69.973,96.314c8.732,12.016 -6.205,26.953 -18.225,18.221l-157.645,-114.536l105.897,0Zm54.263,0l5.392,16.598c4.588,14.129 -14.23,23.716 -22.962,11.7l-20.565,-28.298l38.134,0Zm430.472,-0.288l-54.842,-75.464c18.74,-12.992 38.383,-23.235 58.568,-30.448l34.408,105.912l-38.134,0Zm-201.384,879.385l-16.78,-51.641c5.287,-1.585 10.653,-2.901 15.987,-4.026c9.052,-1.808 17.846,-2.89 26.262,-3.226l-0.016,54.863c-0.004,14.855 -20.861,18.159 -25.453,4.03Zm-389.247,-410.491l-5.951,-4.323c18.783,-24.891 39.937,-46.236 62.579,-63.493l49.269,67.816l-105.897,0Zm-79.359,-58.259l-16.78,-51.641c5.287,-1.585 10.653,-2.901 15.987,-4.026c9.052,-1.808 17.846,-2.89 26.262,-3.226l-0.016,54.863c-0.004,14.855 -20.861,18.159 -25.453,4.03Zm728.378,-527.787l-0.016,54.863c-0.004,14.855 -20.861,18.159 -25.453,4.03l-16.78,-51.641c5.287,-1.585 10.653,-2.901 15.987,-4.026c9.052,-1.808 17.846,-2.89 26.262,-3.226Zm-178.944,848.79l-75.407,-103.762c18.74,-12.992 38.383,-23.235 58.568,-30.448l39.801,122.51c4.588,14.129 -14.23,23.716 -22.962,11.7Zm-582.353,-262.745l-54.842,-75.464c18.74,-12.992 38.383,-23.235 58.568,-30.448l34.408,105.912l-38.134,0Zm128.801,-119.767l-163.596,-118.859c18.783,-24.891 39.937,-46.236 62.579,-63.493l119.242,164.131c8.732,12.016 -6.205,26.953 -18.225,18.221Zm453.551,-555.132l-75.407,-103.762c18.74,-12.992 38.383,-23.235 58.568,-30.448l39.801,122.51c4.588,14.129 -14.23,23.716 -22.962,11.7Zm-1.469,206.005l-5.951,-4.323c18.783,-24.891 39.937,-46.236 62.579,-63.493l49.269,67.816l-105.897,0Zm-346.581,468.894l-54.842,-75.464c18.74,-12.992 38.383,-23.235 58.568,-30.448l34.408,105.912l-38.134,0Zm468.606,468.75l-54.842,-75.464c18.74,-12.992 38.383,-23.235 58.568,-30.448l34.408,105.912l-38.134,0Zm-342.506,-1230.206l-16.78,-51.641c5.287,-1.585 10.653,-2.901 15.987,-4.026c9.052,-1.808 17.846,-2.89 26.262,-3.226l-0.016,54.863c-0.004,14.855 -20.861,18.159 -25.453,4.03Zm220.481,1230.206l-5.951,-4.323c18.783,-24.891 39.937,-46.236 62.579,-63.493l49.269,67.816l-105.897,0Zm160.16,-468.606l5.392,16.598c4.588,14.129 -14.23,23.716 -22.962,11.7l-20.565,-28.298l38.134,0Zm-448.353,-117.295l-0.016,54.863c-0.004,14.855 -20.861,18.159 -25.453,4.03l-16.78,-51.641c5.287,-1.585 10.653,-2.901 15.987,-4.026c9.052,-1.808 17.846,-2.89 26.262,-3.226Zm773.323,-471.366l-163.596,-118.859c18.783,-24.891 39.937,-46.236 62.579,-63.493l119.242,164.131c8.732,12.016 -6.205,26.953 -18.225,18.221Zm557.979,120.055l69.973,96.314c8.732,12.016 -6.205,26.953 -18.225,18.221l-157.645,-114.536l105.897,0Zm-326.378,176.044l-16.78,-51.641c5.287,-1.585 10.653,-2.901 15.987,-4.026c9.052,-1.808 17.846,-2.89 26.262,-3.226l-0.016,54.863c-0.004,14.855 -20.861,18.159 -25.453,4.03Zm-327.485,-234.591l-16.78,-51.641c5.287,-1.585 10.653,-2.901 15.987,-4.026c9.052,-1.808 17.846,-2.89 26.262,-3.226l-0.016,54.863c-0.004,14.855 -20.861,18.159 -25.453,4.03Zm547.965,527.153l-5.951,-4.323c18.783,-24.891 39.937,-46.236 62.579,-63.493l49.269,67.816l-105.897,0Zm-112.278,0l-54.842,-75.464c18.74,-12.992 38.383,-23.235 58.568,-30.448l34.408,105.912l-38.134,0Zm-342.506,-761.456l-16.78,-51.641c5.287,-1.585 10.653,-2.901 15.987,-4.026c9.052,-1.808 17.846,-2.89 26.262,-3.226l-0.016,54.863c-0.004,14.855 -20.861,18.159 -25.453,4.03Zm576.809,761.456l-54.842,-75.464c18.74,-12.992 38.383,-23.235 58.568,-30.448l34.408,105.912l-38.134,0Zm-108.203,-292.562l-16.78,-51.641c5.287,-1.585 10.653,-2.901 15.987,-4.026c9.052,-1.808 17.846,-2.89 26.262,-3.226l-0.016,54.863c-0.004,14.855 -20.861,18.159 -25.453,4.03Zm-12.354,86.557l-75.407,-103.762c18.74,-12.992 38.383,-23.235 58.568,-30.448l39.801,122.51c4.588,14.129 -14.23,23.716 -22.962,11.7Zm-75.612,206.149l5.392,16.598c4.588,14.129 -14.23,23.716 -22.962,11.7l-20.565,-28.298l38.134,0Zm-54.263,0l69.973,96.314c8.732,12.016 -6.205,26.953 -18.225,18.221l-157.645,-114.536l105.897,0Zm0,-468.75l69.973,96.314c8.732,12.016 -6.205,26.953 -18.225,18.221l-157.645,-114.536l105.897,0Zm288.566,0l5.392,16.598c4.588,14.129 -14.23,23.716 -22.962,11.7l-20.565,-28.298l38.134,0Zm-239.519,410.347l-16.78,-51.641c5.287,-1.585 10.653,-2.901 15.987,-4.026c9.052,-1.808 17.846,-2.89 26.262,-3.226l-0.016,54.863c-0.004,14.855 -20.861,18.159 -25.453,4.03Zm95.883,-61.509l-163.596,-118.859c18.783,-24.891 39.937,-46.236 62.579,-63.493l119.242,164.131c8.732,12.016 -6.205,26.953 -18.225,18.221Zm-483.661,-555.132l-75.407,-103.762c18.74,-12.992 38.383,-23.235 58.568,-30.448l39.801,122.51c4.588,14.129 -14.23,23.716 -22.962,11.7Zm392.994,206.293l5.392,16.598c4.588,14.129 -14.23,23.716 -22.962,11.7l-20.565,-28.298l38.134,0Zm-160.16,468.606l-5.951,-4.323c18.783,-24.891 39.937,-46.236 62.579,-63.493l49.269,67.816l-105.897,0Zm-454.784,-761.456l-16.78,-51.641c5.287,-1.585 10.653,-2.901 15.987,-4.026c9.052,-1.808 17.846,-2.89 26.262,-3.226l-0.016,54.863c-0.004,14.855 -20.861,18.159 -25.453,4.03Zm-13.823,292.562l-5.951,-4.323c18.783,-24.891 39.937,-46.236 62.579,-63.493l49.269,67.816l-105.897,0Zm157.645,-354.071l-163.596,-118.859c18.783,-24.891 39.937,-46.236 62.579,-63.493l119.242,164.131c8.732,12.016 -6.205,26.953 -18.225,18.221Zm-211.535,183l-93.182,-67.7c18.783,-24.891 39.937,-46.236 62.579,-63.493l30.603,42.123l0,0.144l88.639,122.007c8.732,12.016 -6.205,26.953 -18.225,18.221l-70.414,-51.159l0,-0.144Zm196.48,-269.238l-75.407,-103.762c18.74,-12.992 38.383,-23.235 58.568,-30.448l39.801,122.51c4.588,14.129 -14.23,23.716 -22.962,11.7Zm249.358,86.238l-163.596,-118.859c18.783,-24.891 39.937,-46.236 62.579,-63.493l119.242,164.131c8.732,12.016 -6.205,26.953 -18.225,18.221Zm219.248,-86.238l-75.407,-103.762c18.74,-12.992 38.383,-23.235 58.568,-30.448l39.801,122.51c4.588,14.129 -14.23,23.716 -22.962,11.7Zm-234.303,0l-75.407,-103.762c18.74,-12.992 38.383,-23.235 58.568,-30.448l39.801,122.51c4.588,14.129 -14.23,23.716 -22.962,11.7Zm93.182,234.303l-75.407,-103.762c6.577,-4.559 13.265,-8.78 20.048,-12.651c12.546,-7.158 25.419,-13.116 38.52,-17.797l39.801,122.51c4.588,14.129 -14.23,23.716 -22.962,11.7Zm15.055,86.238l-163.596,-118.859c18.783,-24.891 39.937,-46.236 62.579,-63.493l119.242,164.131c8.732,12.016 -6.205,26.953 -18.225,18.221Zm141.121,-234.303l-163.596,-118.859c18.783,-24.891 39.937,-46.236 62.579,-63.493l119.242,164.131c8.732,12.016 -6.205,26.953 -18.225,18.221Zm-680.141,71.746l-20.048,-27.587c6.577,-4.559 13.265,-8.78 20.048,-12.651l0,0.144c12.546,-7.158 25.419,-13.116 38.52,-17.797l39.801,122.51c4.588,14.129 -14.23,23.716 -22.962,11.7l-55.359,-76.175l0,-0.144Zm-398.192,162.413l-163.596,-118.859c18.783,-24.891 39.937,-46.236 62.579,-63.493l119.242,164.131c8.732,12.016 -6.205,26.953 -18.225,18.221Zm-539.02,-162.413l0,0.144l-20.048,-27.587c6.577,-4.559 13.265,-8.78 20.048,-12.651l0,-0.144c12.546,-7.158 25.419,-13.116 38.52,-17.797l39.801,122.51c4.588,14.129 -14.23,23.716 -22.962,11.7l-55.359,-76.175Zm1851.656,-71.746l-163.596,-118.859c18.783,-24.891 39.937,-46.236 62.579,-63.493l119.242,164.131c8.732,12.016 -6.205,26.953 -18.225,18.221Zm-1851.656,183l0,0.144l-93.182,-67.7c18.783,-24.891 39.937,-46.236 62.579,-63.493l30.603,42.123l0,-0.144l88.639,122.007c8.732,12.016 -6.205,26.953 -18.225,18.221l-70.414,-51.159Zm196.48,-269.382l-75.407,-103.762c18.74,-12.992 38.383,-23.235 58.568,-30.448l39.801,122.51c4.588,14.129 -14.23,23.716 -22.962,11.7Zm1640.121,0.144l-75.407,-103.762c18.74,-12.992 38.383,-23.235 58.568,-30.448l39.801,122.51c4.588,14.129 -14.23,23.716 -22.962,11.7Zm-1625.066,86.094l-163.596,-118.859c18.783,-24.891 39.937,-46.236 62.579,-63.493l119.242,164.131c8.732,12.016 -6.205,26.953 -18.225,18.221Zm234.303,0l-163.596,-118.859c18.783,-24.891 39.937,-46.236 62.579,-63.493l119.242,164.131c8.732,12.016 -6.205,26.953 -18.225,18.221Zm-15.055,-86.238l-75.407,-103.762c18.74,-12.992 38.383,-23.235 58.568,-30.448l39.801,122.51c4.588,14.129 -14.23,23.716 -22.962,11.7Zm93.182,234.303l-75.407,-103.762c6.577,-4.559 13.265,-8.78 20.048,-12.651c12.546,-7.158 25.419,-13.116 38.52,-17.797l39.801,122.51c4.588,14.129 -14.23,23.716 -22.962,11.7Zm-2799.283,-555.163l-16.78,-51.641c5.287,-1.585 10.653,-2.901 15.987,-4.026c9.052,-1.808 17.846,-2.89 26.262,-3.226l-0.016,54.863c-0.004,14.855 -20.861,18.159 -25.453,4.03Zm237.004,172.795l-163.596,-118.859c18.783,-24.891 39.937,-46.236 62.579,-63.493l119.242,164.131c8.732,12.016 -6.205,26.953 -18.225,18.221Zm-15.055,-86.238l-75.407,-103.762c18.74,-12.992 38.383,-23.235 58.568,-30.448l39.801,122.51c4.588,14.129 -14.23,23.716 -22.962,11.7Zm-80.828,147.746l-16.78,-51.641c5.287,-1.585 10.653,-2.901 15.987,-4.026c9.052,-1.808 17.846,-2.89 26.262,-3.226l-0.016,54.863c-0.004,14.855 -20.861,18.159 -25.453,4.03Zm259.772,-58.893l-0.016,54.863c-0.004,14.855 -20.861,18.159 -25.453,4.03l-16.78,-51.641c5.287,-1.585 10.653,-2.901 15.987,-4.026c9.052,-1.808 17.846,-2.89 26.262,-3.226Zm-166.59,-175.41l-16.78,-51.641c5.287,-1.585 10.653,-2.901 15.987,-4.026c9.052,-1.808 17.846,-2.89 26.262,-3.226l-0.016,54.863c-0.004,14.855 -20.861,18.159 -25.453,4.03Zm-376.532,-176.044l69.973,96.314c8.732,12.016 -6.205,26.953 -18.225,18.221l-157.645,-114.536l105.897,-0Zm54.263,0l5.392,16.598c4.588,14.129 -14.23,23.716 -22.962,11.7l-20.565,-28.298l38.134,-0Zm-239.519,410.347l-16.78,-51.641c5.287,-1.585 10.653,-2.901 15.987,-4.026c9.052,-1.808 17.846,-2.89 26.262,-3.226l-0.016,54.863c-0.004,14.855 -20.861,18.159 -25.453,4.03Zm93.182,-234.303l-16.78,-51.641c5.287,-1.585 10.653,-2.901 15.987,-4.026c9.052,-1.808 17.846,-2.89 26.262,-3.226l-0.016,54.863c-0.004,14.855 -20.861,18.159 -25.453,4.03Zm-87.966,-176.044l5.392,16.598c4.588,14.129 -14.23,23.716 -22.962,11.7l-20.565,-28.298l38.134,-0Zm90.667,348.839l-163.596,-118.859c18.783,-24.891 39.937,-46.236 62.579,-63.493l119.242,164.131c8.732,12.016 -6.205,26.953 -18.225,18.221Zm-15.055,-86.238l-75.407,-103.762c18.74,-12.992 38.383,-23.235 58.568,-30.448l39.801,122.51c4.588,14.129 -14.23,23.716 -22.962,11.7Zm178.944,88.854l-0.016,54.863c-0.004,14.855 -20.861,18.159 -25.453,4.03l-16.78,-51.641c5.287,-1.585 10.653,-2.901 15.987,-4.026c9.052,-1.808 17.846,-2.89 26.262,-3.226Zm1799.909,586.189l69.973,96.314c8.732,12.016 -6.205,26.953 -18.225,18.221l-157.645,-114.536l105.897,0Zm-234.303,0l69.973,96.314c8.732,12.016 -6.205,26.953 -18.225,18.221l-157.645,-114.536l105.897,0Zm54.263,0l5.392,16.598c4.588,14.129 -14.23,23.716 -22.962,11.7l-20.565,-28.298l38.134,0Zm-160.16,468.606l-5.951,-4.323c18.783,-24.891 39.937,-46.236 62.579,-63.493l49.269,67.816l-105.897,0Zm414.716,-117.152l-0.016,54.863c-0.004,14.855 -20.861,18.159 -25.453,4.03l-16.78,-51.641c5.287,-1.585 10.653,-2.901 15.987,-4.026c9.052,-1.808 17.846,-2.89 26.262,-3.226Zm-400.893,-175.41l-16.78,-51.641c5.287,-1.585 10.653,-2.901 15.987,-4.026c9.052,-1.808 17.846,-2.89 26.262,-3.226l-0.016,54.863c-0.004,14.855 -20.861,18.159 -25.453,4.03Zm234.303,0l-16.78,-51.641c5.287,-1.585 10.653,-2.901 15.987,-4.026c9.052,-1.808 17.846,-2.89 26.262,-3.226l-0.016,54.863c-0.004,14.855 -20.861,18.159 -25.453,4.03Zm-126.1,292.562l-54.842,-75.464c18.74,-12.992 38.383,-23.235 58.568,-30.448l34.408,105.912l-38.134,0Zm272.437,-468.606l5.392,16.598c4.588,14.129 -14.23,23.716 -22.962,11.7l-20.565,-28.298l38.134,0Zm-38.134,468.606l-54.842,-75.464c18.74,-12.992 38.383,-23.235 58.568,-30.448l34.408,105.912l-38.134,0Zm-122.025,0l-5.951,-4.323c18.783,-24.891 39.937,-46.236 62.579,-63.493l49.269,67.816l-105.897,0Zm-79.359,-58.259l-16.78,-51.641c5.287,-1.585 10.653,-2.901 15.987,-4.026c9.052,-1.808 17.846,-2.89 26.262,-3.226l-0.016,54.863c-0.004,14.855 -20.861,18.159 -25.453,4.03Zm80.828,-147.746l-75.407,-103.762c18.74,-12.992 38.383,-23.235 58.568,-30.448l39.801,122.51c4.588,14.129 -14.23,23.716 -22.962,11.7Zm-129.875,206.149l69.973,96.314c8.732,12.016 -6.205,26.953 -18.225,18.221l-157.645,-114.536l105.897,0Zm54.263,0l5.392,16.598c4.588,14.129 -14.23,23.716 -22.962,11.7l-20.565,-28.298l38.134,0Zm90.667,-119.911l-163.596,-118.859c18.783,-24.891 39.937,-46.236 62.579,-63.493l119.242,164.131c8.732,12.016 -6.205,26.953 -18.225,18.221Zm-1655.176,-555.276l-75.407,-103.762c6.577,-4.559 13.265,-8.78 20.048,-12.651c12.546,-7.158 25.419,-13.116 38.52,-17.797l39.801,122.51c4.588,14.129 -14.23,23.716 -22.962,11.7Zm-78.127,-148.065l-163.596,-118.859c18.783,-24.891 39.937,-46.236 62.579,-63.493l119.242,164.131c8.732,12.016 -6.205,26.953 -18.225,18.221Zm93.182,234.303l-163.596,-118.859c18.783,-24.891 39.937,-46.236 62.579,-63.493l119.242,164.131c8.732,12.016 -6.205,26.953 -18.225,18.221Zm-15.055,851.406l-75.407,-103.762c6.577,-4.559 13.265,-8.78 20.048,-12.651c12.546,-7.158 25.419,-13.116 38.52,-17.797l39.801,122.51c4.588,14.129 -14.23,23.716 -22.962,11.7Zm15.055,86.238l-163.596,-118.859c18.783,-24.891 39.937,-46.236 62.579,-63.493l119.242,164.131c8.732,12.016 -6.205,26.953 -18.225,18.221Zm-108.237,-1258.185l-75.407,-103.762c18.74,-12.992 38.383,-23.235 58.568,-30.448l39.801,122.51c4.588,14.129 -14.23,23.716 -22.962,11.7Zm3385.778,616.784l-16.78,-51.641c5.287,-1.585 10.653,-2.901 15.987,-4.026c9.052,-1.808 17.846,-2.89 26.262,-3.226l-0.016,54.863c-0.004,14.855 -20.861,18.159 -25.453,4.03Zm234.303,468.75l-16.78,-51.641c5.287,-1.585 10.653,-2.901 15.987,-4.026c9.052,-1.808 17.846,-2.89 26.262,-3.226l-0.016,54.863c-0.004,14.855 -20.861,18.159 -25.453,4.03Zm166.59,-762.233l-0.016,54.863c-0.004,14.855 -20.861,18.159 -25.453,4.03l-16.78,-51.641c5.287,-1.585 10.653,-2.901 15.987,-4.026c9.052,-1.808 17.846,-2.89 26.262,-3.226Zm-414.716,586.045l-5.951,-4.323c18.783,-24.891 39.937,-46.236 62.579,-63.493l49.269,67.816l-105.897,0Zm154.944,-58.259l-16.78,-51.641c5.287,-1.585 10.653,-2.901 15.987,-4.026c9.052,-1.808 17.846,-2.89 26.262,-3.226l-0.016,54.863c-0.004,14.855 -20.861,18.159 -25.453,4.03Zm185.256,58.403l69.973,96.314c8.732,12.016 -6.205,26.953 -18.225,18.221l-157.645,-114.536l105.897,0Zm-185.256,410.347l-16.78,-51.641c5.287,-1.585 10.653,-2.901 15.987,-4.026c9.052,-1.808 17.846,-2.89 26.262,-3.226l-0.016,54.863c-0.004,14.855 -20.861,18.159 -25.453,4.03Zm95.883,-61.509l-163.596,-118.859c18.783,-24.891 39.937,-46.236 62.579,-63.493l119.242,164.131c8.732,12.016 -6.205,26.953 -18.225,18.221Zm-90.667,-348.839l5.392,16.598c4.588,14.129 -14.23,23.716 -22.962,11.7l-20.565,-28.298l38.134,0Zm196.169,-469.038l-54.842,-75.464c18.74,-12.992 38.383,-23.235 58.568,-30.448l34.408,105.912l-38.134,0Zm-122.025,0l-5.951,-4.323c18.783,-24.891 39.937,-46.236 62.579,-63.493l49.269,67.816l-105.897,0Zm160.16,469.038l5.392,16.598c4.588,14.129 -14.23,23.716 -22.962,11.7l-20.565,-28.298l38.134,0Zm20.253,351.455l-0.016,54.863c-0.004,14.855 -20.861,18.159 -25.453,4.03l-16.78,-51.641c5.287,-1.585 10.653,-2.901 15.987,-4.026c9.052,-1.808 17.846,-2.89 26.262,-3.226Zm-308.819,-351.455l69.973,96.314c8.732,12.016 -6.205,26.953 -18.225,18.221l-157.645,-114.536l105.897,0Zm16.128,-469.038l-54.842,-75.464c18.74,-12.992 38.383,-23.235 58.568,-30.448l34.408,105.912l-38.134,0Zm128.801,349.126l-163.596,-118.859c18.783,-24.891 39.937,-46.236 62.579,-63.493l119.242,164.131c8.732,12.016 -6.205,26.953 -18.225,18.221Zm-15.055,-86.238l-75.407,-103.762c18.74,-12.992 38.383,-23.235 58.568,-30.448l39.801,122.51c4.588,14.129 -14.23,23.716 -22.962,11.7Zm12.354,-86.557l-16.78,-51.641c5.287,-1.585 10.653,-2.901 15.987,-4.026c9.052,-1.808 17.846,-2.89 26.262,-3.226l-0.016,54.863c-0.004,14.855 -20.861,18.159 -25.453,4.03Zm-234.303,468.75l-16.78,-51.641c5.287,-1.585 10.653,-2.901 15.987,-4.026c9.052,-1.808 17.846,-2.89 26.262,-3.226l-0.016,54.863c-0.004,14.855 -20.861,18.159 -25.453,4.03Zm108.203,-176.188l-54.842,-75.464c18.74,-12.992 38.383,-23.235 58.568,-30.448l34.408,105.912l-38.134,0Zm113.747,262.745l-75.407,-103.762c18.74,-12.992 38.383,-23.235 58.568,-30.448l39.801,122.51c4.588,14.129 -14.23,23.716 -22.962,11.7Zm-3159.686,-262.889l-54.842,-75.464c18.74,-12.992 38.383,-23.235 58.568,-30.448l34.408,105.912l-38.134,0Zm-430.472,0.144l5.392,16.598c4.588,14.129 -14.23,23.716 -22.962,11.7l-20.565,-28.298l38.134,0Zm308.446,-0.144l-5.951,-4.323c18.783,-24.891 39.937,-46.236 62.579,-63.493l49.269,67.816l-105.897,0Zm2591.156,-1229.918l-16.78,-51.641c5.287,-1.585 10.653,-2.901 15.987,-4.026c9.052,-1.808 17.846,-2.89 26.262,-3.226l-0.016,54.863c-0.004,14.855 -20.861,18.159 -25.453,4.03Zm-2879.349,1112.767l-0.016,54.863c-0.004,14.855 -20.861,18.159 -25.453,4.03l-16.78,-51.641c5.287,-1.585 10.653,-2.901 15.987,-4.026c9.052,-1.808 17.846,-2.89 26.262,-3.226Zm3113.652,-1112.767l-16.78,-51.641c5.287,-1.585 10.653,-2.901 15.987,-4.026c9.052,-1.808 17.846,-2.89 26.262,-3.226l-0.016,54.863c-0.004,14.855 -20.861,18.159 -25.453,4.03Zm-12.354,86.557l-75.407,-103.762c18.74,-12.992 38.383,-23.235 58.568,-30.448l39.801,122.51c4.588,14.129 -14.23,23.716 -22.962,11.7Zm-3267.889,850.799l-16.78,-51.641c5.287,-1.585 10.653,-2.901 15.987,-4.026c9.052,-1.808 17.846,-2.89 26.262,-3.226l-0.016,54.863c-0.004,14.855 -20.861,18.159 -25.453,4.03Zm0,468.75l-16.78,-51.641c5.287,-1.585 10.653,-2.901 15.987,-4.026c9.052,-1.808 17.846,-2.89 26.262,-3.226l-0.016,54.863c-0.004,14.855 -20.861,18.159 -25.453,4.03Zm2.701,-764.849l-163.596,-118.859c18.783,-24.891 39.937,-46.236 62.579,-63.493l119.242,164.131c8.732,12.016 -6.205,26.953 -18.225,18.221Zm0,468.894l-163.596,-118.859c18.783,-24.891 39.937,-46.236 62.579,-63.493l119.242,164.131c8.732,12.016 -6.205,26.953 -18.225,18.221Zm377.939,-348.839l5.392,16.598c4.588,14.129 -14.23,23.716 -22.962,11.7l-20.565,-28.298l38.134,0Zm-272.437,468.606l-54.842,-75.464c18.74,-12.992 38.383,-23.235 58.568,-30.448l34.408,105.912l-38.134,0Zm526.994,-117.152l-0.016,54.863c-0.004,14.855 -20.861,18.159 -25.453,4.03l-16.78,-51.641c5.287,-1.585 10.653,-2.901 15.987,-4.026c9.052,-1.808 17.846,-2.89 26.262,-3.226Zm-543.122,-351.455l69.973,96.314c8.732,12.016 -6.205,26.953 -18.225,18.221l-157.645,-114.536l105.897,0Zm-105.897,468.606l-5.951,-4.323c18.783,-24.891 39.937,-46.236 62.579,-63.493l49.269,67.816l-105.897,0Zm-79.359,-527.153l-16.78,-51.641c5.287,-1.585 10.653,-2.901 15.987,-4.026c9.052,-1.808 17.846,-2.89 26.262,-3.226l-0.016,54.863c-0.004,14.855 -20.861,18.159 -25.453,4.03Zm80.828,-147.746l-75.407,-103.762c18.74,-12.992 38.383,-23.235 58.568,-30.448l39.801,122.51c4.588,14.129 -14.23,23.716 -22.962,11.7Zm338.731,206.293l69.973,96.314c8.732,12.016 -6.205,26.953 -18.225,18.221l-157.645,-114.536l105.897,0Zm234.303,0l69.973,96.314c8.732,12.016 -6.205,26.953 -18.225,18.221l-157.645,-114.536l105.897,0Zm-394.09,820.205l-0.016,54.863c-0.004,14.855 -20.861,18.159 -25.453,4.03l-16.78,-51.641c5.287,-1.585 10.653,-2.901 15.987,-4.026c9.052,-1.808 17.846,-2.89 26.262,-3.226Zm-254.556,-820.205l5.392,16.598c4.588,14.129 -14.23,23.716 -22.962,11.7l-20.565,-28.298l38.134,0Zm3370.91,-588.517l-163.596,-118.859c18.783,-24.891 39.937,-46.236 62.579,-63.493l119.242,164.131c8.732,12.016 -6.205,26.953 -18.225,18.221Zm-3136.607,588.517l5.392,16.598c4.588,14.129 -14.23,23.716 -22.962,11.7l-20.565,-28.298l38.134,0Zm-158.691,262.601l-75.407,-103.762c18.74,-12.992 38.383,-23.235 58.568,-30.448l39.801,122.51c4.588,14.129 -14.23,23.716 -22.962,11.7Zm120.556,674.755l-54.842,-75.464c18.74,-12.992 38.383,-23.235 58.568,-30.448l34.408,105.912l-38.134,0Zm-120.556,-206.005l-75.407,-103.762c18.74,-12.992 38.383,-23.235 58.568,-30.448l39.801,122.51c4.588,14.129 -14.23,23.716 -22.962,11.7Zm-1.469,206.005l-5.951,-4.323c18.783,-24.891 39.937,-46.236 62.579,-63.493l49.269,67.816l-105.897,0Zm13.823,-1230.206l-16.78,-51.641c5.287,-1.585 10.653,-2.901 15.987,-4.026c9.052,-1.808 17.846,-2.89 26.262,-3.226l-0.016,54.863c-0.004,14.855 -20.861,18.159 -25.453,4.03Zm2.701,1110.438l-163.596,-118.859c18.783,-24.891 39.937,-46.236 62.579,-63.493l119.242,164.131c8.732,12.016 -6.205,26.953 -18.225,18.221Zm89.373,-348.839l69.973,96.314c8.732,12.016 -6.205,26.953 -18.225,18.221l-157.645,-114.536l105.897,0Zm3094.986,-995.759l-16.78,-51.641c5.287,-1.585 10.653,-2.901 15.987,-4.026c9.052,-1.808 17.846,-2.89 26.262,-3.226l-0.016,54.863c-0.004,14.855 -20.861,18.159 -25.453,4.03Zm-3275.027,995.759l5.392,16.598c4.588,14.129 -14.23,23.716 -22.962,11.7l-20.565,-28.298l38.134,0Zm-5.216,-58.403l-16.78,-51.641c5.287,-1.585 10.653,-2.901 15.987,-4.026c9.052,-1.808 17.846,-2.89 26.262,-3.226l-0.016,54.863c-0.004,14.855 -20.861,18.159 -25.453,4.03Zm0,468.75l-16.78,-51.641c5.287,-1.585 10.653,-2.901 15.987,-4.026c9.052,-1.808 17.846,-2.89 26.262,-3.226l-0.016,54.863c-0.004,14.855 -20.861,18.159 -25.453,4.03Zm201.384,-879.385l-54.842,-75.464c18.74,-12.992 38.383,-23.235 58.568,-30.448l34.408,105.912l-38.134,0Zm58.388,-117.152l-0.016,54.863c-0.004,14.855 -20.861,18.159 -25.453,4.03l-16.78,-51.641c5.287,-1.585 10.653,-2.901 15.987,-4.026c9.052,-1.808 17.846,-2.89 26.262,-3.226Zm-180.413,117.152l-5.951,-4.323c18.783,-24.891 39.937,-46.236 62.579,-63.493l49.269,67.816l-105.897,0Zm628.766,0.288l5.392,16.598c4.588,14.129 -14.23,23.716 -22.962,11.7l-20.565,-28.298l38.134,0Zm957.465,-282.469l-20.048,-27.587c6.577,-4.559 13.265,-8.78 20.048,-12.651l-0,0.144c12.546,-7.158 25.419,-13.116 38.52,-17.797l39.801,122.51c4.588,14.129 -14.23,23.716 -22.962,11.7l-55.359,-76.175l0,-0.144Zm196.48,-157.984l-75.407,-103.762c18.74,-12.992 38.383,-23.235 58.568,-30.448l39.801,122.51c4.588,14.129 -14.23,23.716 -22.962,11.7Zm249.358,86.238l-163.596,-118.859c18.783,-24.891 39.937,-46.236 62.579,-63.493l119.242,164.131c8.732,12.016 -6.205,26.953 -18.225,18.221Zm78.127,616.959l-75.407,-103.762c6.577,-4.559 13.265,-8.78 20.048,-12.651c12.546,-7.158 25.419,-13.116 38.52,-17.797l39.801,122.51c4.588,14.129 -14.23,23.716 -22.962,11.7Zm-1405.818,-937.644l-75.407,-103.762c6.577,-4.559 13.265,-8.78 20.048,-12.651c12.546,-7.158 25.419,-13.116 38.52,-17.797l39.801,122.51c4.588,14.129 -14.23,23.716 -22.962,11.7Zm-453.551,86.238l-163.596,-118.859c18.783,-24.891 39.937,-46.236 62.579,-63.493l119.242,164.131c8.732,12.016 -6.205,26.953 -18.225,18.221Zm-15.055,-86.238l-75.407,-103.762c6.577,-4.559 13.265,-8.78 20.048,-12.651c12.546,-7.158 25.419,-13.116 38.52,-17.797l39.801,122.51c4.588,14.129 -14.23,23.716 -22.962,11.7Zm1350.459,972.579l-93.182,-67.7c18.783,-24.891 39.937,-46.236 62.579,-63.493l30.603,42.123l-0,0.144l88.639,122.007c8.732,12.016 -6.205,26.953 -18.225,18.221l-70.414,-51.159l0,-0.144Zm539.02,51.303l-163.596,-118.859c18.783,-24.891 39.937,-46.236 62.579,-63.493l119.242,164.131c8.732,12.016 -6.205,26.953 -18.225,18.221Zm-539.02,306.193l-20.048,-27.587c6.577,-4.559 13.265,-8.78 20.048,-12.651l0,0.144c12.546,-7.158 25.419,-13.116 38.52,-17.797l39.801,122.51c4.588,14.129 -14.23,23.716 -22.962,11.7l-55.359,-76.175l0,-0.144Zm523.965,76.319l-75.407,-103.762c6.577,-4.559 13.265,-8.78 20.048,-12.651c12.546,-7.158 25.419,-13.116 38.52,-17.797l39.801,122.51c4.588,14.129 -14.23,23.716 -22.962,11.7Zm-1390.763,-1320.156l-163.596,-118.859c18.783,-24.891 39.937,-46.236 62.579,-63.493l119.242,164.131c8.732,12.016 -6.205,26.953 -18.225,18.221Zm866.798,775.087l-20.048,-27.587c6.577,-4.559 13.265,-8.78 20.048,-12.651l-0,0.144c12.546,-7.158 25.419,-13.116 38.52,-17.797l39.801,122.51c4.588,14.129 -14.23,23.716 -22.962,11.7l-55.359,-76.175l0,-0.144Zm539.02,631.307l-163.596,-118.859c18.783,-24.891 39.937,-46.236 62.579,-63.493l119.242,164.131c8.732,12.016 -6.205,26.953 -18.225,18.221Zm-539.02,-988.946l-93.182,-67.7c18.783,-24.891 39.937,-46.236 62.579,-63.493l30.603,42.123l-0,0.144l88.639,122.007c8.732,12.016 -6.205,26.953 -18.225,18.221l-70.414,-51.159l0,-0.144Zm211.535,-183l-163.596,-118.859c18.783,-24.891 39.937,-46.236 62.579,-63.493l119.242,164.131c8.732,12.016 -6.205,26.953 -18.225,18.221Zm-211.535,1120.644l-93.182,-67.7c18.783,-24.891 39.937,-46.236 62.579,-63.493l30.603,42.123l0,0.144l88.639,122.007c8.732,12.016 -6.205,26.953 -18.225,18.221l-70.414,-51.159l0,-0.144Zm1476.232,-417.591l-163.596,-118.859c18.783,-24.891 39.937,-46.236 62.579,-63.493l119.242,164.131c8.732,12.016 -6.205,26.953 -18.225,18.221Zm-539.02,-162.413l0,0.144l-20.048,-27.587c6.577,-4.559 13.265,-8.78 20.048,-12.651l0,-0.144c12.546,-7.158 25.419,-13.116 38.52,-17.797l39.801,122.51c4.588,14.129 -14.23,23.716 -22.962,11.7l-55.359,-76.175Zm0,580.005l0,0.144l-93.182,-67.7c18.783,-24.891 39.937,-46.236 62.579,-63.493l30.603,42.123l0,-0.144l88.639,122.007c8.732,12.016 -6.205,26.953 -18.225,18.221l-70.414,-51.159Zm523.965,-503.829l-75.407,-103.762c6.577,-4.559 13.265,-8.78 20.048,-12.651c12.546,-7.158 25.419,-13.116 38.52,-17.797l39.801,122.51c4.588,14.129 -14.23,23.716 -22.962,11.7Zm-523.965,392.575l0,0.144l-20.048,-27.587c6.577,-4.559 13.265,-8.78 20.048,-12.651l0,-0.144c12.546,-7.158 25.419,-13.116 38.52,-17.797l39.801,122.51c4.588,14.129 -14.23,23.716 -22.962,11.7l-55.359,-76.175Zm539.02,162.413l-163.596,-118.859c18.783,-24.891 39.937,-46.236 62.579,-63.493l119.242,164.131c8.732,12.016 -6.205,26.953 -18.225,18.221Zm937.212,-1406.106l-163.596,-118.859c18.783,-24.891 39.937,-46.236 62.579,-63.493l119.242,164.131c8.732,12.016 -6.205,26.953 -18.225,18.221Zm-1476.232,886.197l0,0.144l-93.182,-67.7c18.783,-24.891 39.937,-46.236 62.579,-63.493l30.603,42.123l0,-0.144l88.639,122.007c8.732,12.016 -6.205,26.953 -18.225,18.221l-70.414,-51.159Zm523.965,433.671l-75.407,-103.762c6.577,-4.559 13.265,-8.78 20.048,-12.651c12.546,-7.158 25.419,-13.116 38.52,-17.797l39.801,122.51c4.588,14.129 -14.23,23.716 -22.962,11.7Zm937.212,-1406.106l-75.407,-103.762c6.577,-4.559 13.265,-8.78 20.048,-12.651c12.546,-7.158 25.419,-13.116 38.52,-17.797l39.801,122.51c4.588,14.129 -14.23,23.716 -22.962,11.7Zm-1461.177,-76.319l-0,0.144l-20.048,-27.587c6.577,-4.559 13.265,-8.78 20.048,-12.651l0,-0.144c12.546,-7.158 25.419,-13.116 38.52,-17.797l39.801,122.51c4.588,14.129 -14.23,23.716 -22.962,11.7l-55.359,-76.175Zm-2287.671,1013.675l-75.407,-103.762c6.577,-4.559 13.265,-8.78 20.048,-12.651c12.546,-7.158 25.419,-13.116 38.52,-17.797l39.801,122.51c4.588,14.129 -14.23,23.716 -22.962,11.7Zm15.055,86.238l-163.596,-118.859c18.783,-24.891 39.937,-46.236 62.579,-63.493l119.242,164.131c8.732,12.016 -6.205,26.953 -18.225,18.221Zm3280.243,-937.356l-163.596,-118.859c18.783,-24.891 39.937,-46.236 62.579,-63.493l119.242,164.131c8.732,12.016 -6.205,26.953 -18.225,18.221Zm-539.02,-51.303l-93.182,-67.7c18.783,-24.891 39.937,-46.236 62.579,-63.493l30.603,42.123l0,0.144l88.639,122.007c8.732,12.016 -6.205,26.953 -18.225,18.221l-70.414,-51.159l0,-0.144Zm-468.606,0l-0,0.144l-93.182,-67.7c18.783,-24.891 39.937,-46.236 62.579,-63.493l30.603,42.123l0,-0.144l88.639,122.007c8.732,12.016 -6.205,26.953 -18.225,18.221l-70.414,-51.159Zm468.606,-111.255l-20.048,-27.587c6.577,-4.559 13.265,-8.78 20.048,-12.651l0,0.144c12.546,-7.158 25.419,-13.116 38.52,-17.797l39.801,122.51c4.588,14.129 -14.23,23.716 -22.962,11.7l-55.359,-76.175l0,-0.144Zm523.965,76.319l-75.407,-103.762c6.577,-4.559 13.265,-8.78 20.048,-12.651c12.546,-7.158 25.419,-13.116 38.52,-17.797l39.801,122.51c4.588,14.129 -14.23,23.716 -22.962,11.7Zm468.606,937.5l-75.407,-103.762c6.577,-4.559 13.265,-8.78 20.048,-12.651c12.546,-7.158 25.419,-13.116 38.52,-17.797l39.801,122.51c4.588,14.129 -14.23,23.716 -22.962,11.7Zm-523.965,503.685l-93.182,-67.7c18.783,-24.891 39.937,-46.236 62.579,-63.493l30.603,42.123l0,0.144l88.639,122.007c8.732,12.016 -6.205,26.953 -18.225,18.221l-70.414,-51.159l-0,-0.144Zm539.02,51.303l-163.596,-118.859c18.783,-24.891 39.937,-46.236 62.579,-63.493l119.242,164.131c8.732,12.016 -6.205,26.953 -18.225,18.221Zm-539.02,-520.053l-93.182,-67.7c18.783,-24.891 39.937,-46.236 62.579,-63.493l30.603,42.123l0,0.144l88.639,122.007c8.732,12.016 -6.205,26.953 -18.225,18.221l-70.414,-51.159l0,-0.144Zm0,-111.255l-20.048,-27.587c6.577,-4.559 13.265,-8.78 20.048,-12.651l0,0.144c12.546,-7.158 25.419,-13.116 38.52,-17.797l39.801,122.51c4.588,14.129 -14.23,23.716 -22.962,11.7l-55.359,-76.175l0,-0.144Zm539.02,162.557l-163.596,-118.859c18.783,-24.891 39.937,-46.236 62.579,-63.493l119.242,164.131c8.732,12.016 -6.205,26.953 -18.225,18.221Zm-539.02,306.193l-20.048,-27.587c6.577,-4.559 13.265,-8.78 20.048,-12.651l0,0.144c12.546,-7.158 25.419,-13.116 38.52,-17.797l39.801,122.51c4.588,14.129 -14.23,23.716 -22.962,11.7l-55.359,-76.175l-0,-0.144Zm523.965,76.319l-75.407,-103.762c6.577,-4.559 13.265,-8.78 20.048,-12.651c12.546,-7.158 25.419,-13.116 38.52,-17.797l39.801,122.51c4.588,14.129 -14.23,23.716 -22.962,11.7Zm-3281.711,-262.889l-5.951,-4.323c18.783,-24.891 39.937,-46.236 62.579,-63.493l49.269,67.816l-105.897,0Zm623.55,410.491l-16.78,-51.641c5.287,-1.585 10.653,-2.901 15.987,-4.026c9.052,-1.808 17.846,-2.89 26.262,-3.226l-0.016,54.863c-0.004,14.855 -20.861,18.159 -25.453,4.03Zm-267.222,58.259l-54.842,-75.464c18.74,-12.992 38.383,-23.235 58.568,-30.448l34.408,105.912l-38.134,0Zm1300.317,-1525.874l-163.596,-118.859c18.783,-24.891 39.937,-46.236 62.579,-63.493l119.242,164.131c8.732,12.016 -6.205,26.953 -18.225,18.221Zm-773.323,471.078l-0.016,54.863c-0.004,14.855 -20.861,18.159 -25.453,4.03l-16.78,-51.641c5.287,-1.585 10.653,-2.901 15.987,-4.026c9.052,-1.808 17.846,-2.89 26.262,-3.226Zm-723.162,117.439l5.392,16.598c4.588,14.129 -14.23,23.716 -22.962,11.7l-20.565,-28.298l38.134,0Zm1481.43,-674.755l-75.407,-103.762c18.74,-12.992 38.383,-23.235 58.568,-30.448l39.801,122.51c4.588,14.129 -14.23,23.716 -22.962,11.7Zm-816.656,674.468l-54.842,-75.464c18.74,-12.992 38.383,-23.235 58.568,-30.448l34.408,105.912l-38.134,0Zm-410.219,820.492l-0.016,54.863c-0.004,14.855 -20.861,18.159 -25.453,4.03l-16.78,-51.641c5.287,-1.585 10.653,-2.901 15.987,-4.026c9.052,-1.808 17.846,-2.89 26.262,-3.226Zm304.717,-2.616l-163.596,-118.859c18.783,-24.891 39.937,-46.236 62.579,-63.493l119.242,164.131c8.732,12.016 -6.205,26.953 -18.225,18.221Zm1101.101,-1403.49l-0.016,54.863c-0.004,14.855 -20.861,18.159 -25.453,4.03l-16.78,-51.641c5.287,-1.585 10.653,-2.901 15.987,-4.026c9.052,-1.808 17.846,-2.89 26.262,-3.226Zm-1569.707,934.74l-163.596,-118.859c18.783,-24.891 39.937,-46.236 62.579,-63.493l119.242,164.131c8.732,12.016 -6.205,26.953 -18.225,18.221Zm-144.93,119.911l69.973,96.314c8.732,12.016 -6.205,26.953 -18.225,18.221l-157.645,-114.536l105.897,0Zm1454.865,-995.759l-16.78,-51.641c5.287,-1.585 10.653,-2.901 15.987,-4.026c9.052,-1.808 17.846,-2.89 26.262,-3.226l-0.016,54.863c-0.004,14.855 -20.861,18.159 -25.453,4.03Zm-1405.818,937.356l-16.78,-51.641c5.287,-1.585 10.653,-2.901 15.987,-4.026c9.052,-1.808 17.846,-2.89 26.262,-3.226l-0.016,54.863c-0.004,14.855 -20.861,18.159 -25.453,4.03Zm-141.121,-234.303l-16.78,-51.641c5.287,-1.585 10.653,-2.901 15.987,-4.026c9.052,-1.808 17.846,-2.89 26.262,-3.226l-0.016,54.863c-0.004,14.855 -20.861,18.159 -25.453,4.03Zm690.555,555.307l-75.407,-103.762c18.74,-12.992 38.383,-23.235 58.568,-30.448l39.801,122.51c4.588,14.129 -14.23,23.716 -22.962,11.7Zm-221.949,-1024.201l-16.78,-51.641c5.287,-1.585 10.653,-2.901 15.987,-4.026c9.052,-1.808 17.846,-2.89 26.262,-3.226l-0.016,54.863c-0.004,14.855 -20.861,18.159 -25.453,4.03Zm234.303,937.644l-16.78,-51.641c5.287,-1.585 10.653,-2.901 15.987,-4.026c9.052,-1.808 17.846,-2.89 26.262,-3.226l-0.016,54.863c-0.004,14.855 -20.861,18.159 -25.453,4.03Zm-93.182,-703.341l-16.78,-51.641c5.287,-1.585 10.653,-2.901 15.987,-4.026c9.052,-1.808 17.846,-2.89 26.262,-3.226l-0.016,54.863c-0.004,14.855 -20.861,18.159 -25.453,4.03Zm80.828,-147.746l-75.407,-103.762c18.74,-12.992 38.383,-23.235 58.568,-30.448l39.801,122.51c4.588,14.129 -14.23,23.716 -22.962,11.7Zm715.263,-555.019l-16.78,-51.641c5.287,-1.585 10.653,-2.901 15.987,-4.026c9.052,-1.808 17.846,-2.89 26.262,-3.226l-0.016,54.863c-0.004,14.855 -20.861,18.159 -25.453,4.03Zm-1079.441,761.312l69.973,96.314c8.732,12.016 -6.205,26.953 -18.225,18.221l-157.645,-114.536l105.897,0Zm-218.175,468.606l-54.842,-75.464c18.74,-12.992 38.383,-23.235 58.568,-30.448l34.408,105.912l-38.134,0Zm346.581,-468.894l-5.951,-4.323c18.783,-24.891 39.937,-46.236 62.579,-63.493l49.269,67.816l-105.897,0Zm1043.109,-937.068l69.973,96.314c8.732,12.016 -6.205,26.953 -18.225,18.221l-157.645,-114.536l105.897,0Zm-1277.412,1405.962l-5.951,-4.323c18.783,-24.891 39.937,-46.236 62.579,-63.493l49.269,67.816l-105.897,0Zm1511.715,-1405.962l69.973,96.314c8.732,12.016 -6.205,26.953 -18.225,18.221l-157.645,-114.536l105.897,0Zm-1026.586,817.301l-163.596,-118.859c18.783,-24.891 39.937,-46.236 62.579,-63.493l119.242,164.131c8.732,12.016 -6.205,26.953 -18.225,18.221Zm-483.661,382.656l-75.407,-103.762c18.74,-12.992 38.383,-23.235 58.568,-30.448l39.801,122.51c4.588,14.129 -14.23,23.716 -22.962,11.7Zm246.657,382.193l-16.78,-51.641c5.287,-1.585 10.653,-2.901 15.987,-4.026c9.052,-1.808 17.846,-2.89 26.262,-3.226l-0.016,54.863c-0.004,14.855 -20.861,18.159 -25.453,4.03Zm1083.549,-1582.15l5.392,16.598c4.588,14.129 -14.23,23.716 -22.962,11.7l-20.565,-28.298l38.134,0Zm-1225.778,1406.106l69.973,96.314c8.732,12.016 -6.205,26.953 -18.225,18.221l-157.645,-114.536l105.897,0Zm54.263,0l5.392,16.598c4.588,14.129 -14.23,23.716 -22.962,11.7l-20.565,-28.298l38.134,0Zm-394.463,468.606l-5.951,-4.323c18.783,-24.891 39.937,-46.236 62.579,-63.493l49.269,67.816l-105.897,0Zm716.732,-1230.206l-16.78,-51.641c5.287,-1.585 10.653,-2.901 15.987,-4.026c9.052,-1.808 17.846,-2.89 26.262,-3.226l-0.016,54.863c-0.004,14.855 -20.861,18.159 -25.453,4.03Zm1083.549,-644.506l5.392,16.598c4.588,14.129 -14.23,23.716 -22.962,11.7l-20.565,-28.298l38.134,0Zm-1694.384,937.356l69.973,96.314c8.732,12.016 -6.205,26.953 -18.225,18.221l-157.645,-114.536l105.897,0Zm308.819,351.455l-0.016,54.863c-0.004,14.855 -20.861,18.159 -25.453,4.03l-16.78,-51.641c5.287,-1.585 10.653,-2.901 15.987,-4.026c9.052,-1.808 17.846,-2.89 26.262,-3.226Zm288.193,-351.742l-5.951,-4.323c18.783,-24.891 39.937,-46.236 62.579,-63.493l49.269,67.816l-105.897,0Zm-112.278,0l-54.842,-75.464c18.74,-12.992 38.383,-23.235 58.568,-30.448l34.408,105.912l-38.134,0Zm1063.312,-761.024l-16.78,-51.641c5.287,-1.585 10.653,-2.901 15.987,-4.026c9.052,-1.808 17.846,-2.89 26.262,-3.226l-0.016,54.863c-0.004,14.855 -20.861,18.159 -25.453,4.03Zm-1297.615,1229.918l-54.842,-75.464c18.74,-12.992 38.383,-23.235 58.568,-30.448l34.408,105.912l-38.134,0Zm38.134,-468.606l5.392,16.598c4.588,14.129 -14.23,23.716 -22.962,11.7l-20.565,-28.298l38.134,0Zm-146.337,176.044l-16.78,-51.641c5.287,-1.585 10.653,-2.901 15.987,-4.026c9.052,-1.808 17.846,-2.89 26.262,-3.226l-0.016,54.863c-0.004,14.855 -20.861,18.159 -25.453,4.03Zm-87.966,292.706l5.392,16.598c4.588,14.129 -14.23,23.716 -22.962,11.7l-20.565,-28.298l38.134,0Zm74.143,468.606l-5.951,-4.323c18.783,-24.891 39.937,-46.236 62.579,-63.493l49.269,67.816l-105.897,0Zm-112.278,0l-54.842,-75.464c18.74,-12.992 38.383,-23.235 58.568,-30.448l34.408,105.912l-38.134,0Zm32.919,-58.259l-16.78,-51.641c5.287,-1.585 10.653,-2.901 15.987,-4.026c9.052,-1.808 17.846,-2.89 26.262,-3.226l-0.016,54.863c-0.004,14.855 -20.861,18.159 -25.453,4.03Zm95.883,-61.509l-163.596,-118.859c18.783,-24.891 39.937,-46.236 62.579,-63.493l119.242,164.131c8.732,12.016 -6.205,26.953 -18.225,18.221Zm-15.055,-86.238l-75.407,-103.762c18.74,-12.992 38.383,-23.235 58.568,-30.448l39.801,122.51c4.588,14.129 -14.23,23.716 -22.962,11.7Zm-75.612,-1668.851l5.392,16.598c4.588,14.129 -14.23,23.716 -22.962,11.7l-20.565,-28.298l38.134,0Zm87.966,1582.294l-16.78,-51.641c5.287,-1.585 10.653,-2.901 15.987,-4.026c9.052,-1.808 17.846,-2.89 26.262,-3.226l-0.016,54.863c-0.004,14.855 -20.861,18.159 -25.453,4.03Zm92.075,-1582.294l69.973,96.314c8.732,12.016 -6.205,26.953 -18.225,18.221l-157.645,-114.536l105.897,0Zm54.263,0l5.392,16.598c4.588,14.129 -14.23,23.716 -22.962,11.7l-20.565,-28.298l38.134,0Zm-380.64,1582.294l-16.78,-51.641c5.287,-1.585 10.653,-2.901 15.987,-4.026c9.052,-1.808 17.846,-2.89 26.262,-3.226l-0.016,54.863c-0.004,14.855 -20.861,18.159 -25.453,4.03Zm400.893,-1230.84l-0.016,54.863c-0.004,14.855 -20.861,18.159 -25.453,4.03l-16.78,-51.641c5.287,-1.585 10.653,-2.901 15.987,-4.026c9.052,-1.808 17.846,-2.89 26.262,-3.226Zm-259.772,58.893l-16.78,-51.641c5.287,-1.585 10.653,-2.901 15.987,-4.026c9.052,-1.808 17.846,-2.89 26.262,-3.226l-0.016,54.863c-0.004,14.855 -20.861,18.159 -25.453,4.03Zm-49.047,-410.347l69.973,96.314c8.732,12.016 -6.205,26.953 -18.225,18.221l-157.645,-114.536l105.897,0Zm144.93,348.839l-163.596,-118.859c18.783,-24.891 39.937,-46.236 62.579,-63.493l119.242,164.131c8.732,12.016 -6.205,26.953 -18.225,18.221Zm-237.004,-172.795l-16.78,-51.641c5.287,-1.585 10.653,-2.901 15.987,-4.026c9.052,-1.808 17.846,-2.89 26.262,-3.226l-0.016,54.863c-0.004,14.855 -20.861,18.159 -25.453,4.03Zm234.303,0l-16.78,-51.641c5.287,-1.585 10.653,-2.901 15.987,-4.026c9.052,-1.808 17.846,-2.89 26.262,-3.226l-0.016,54.863c-0.004,14.855 -20.861,18.159 -25.453,4.03Zm-12.354,86.557l-75.407,-103.762c18.74,-12.992 38.383,-23.235 58.568,-30.448l39.801,122.51c4.588,14.129 -14.23,23.716 -22.962,11.7Zm807.337,-262.457l69.973,96.314c8.732,12.016 -6.205,26.953 -18.225,18.221l-157.645,-114.536l105.897,0Zm54.263,0l5.392,16.598c4.588,14.129 -14.23,23.716 -22.962,11.7l-20.565,-28.298l38.134,0Zm-146.337,176.044l-16.78,-51.641c5.287,-1.585 10.653,-2.901 15.987,-4.026c9.052,-1.808 17.846,-2.89 26.262,-3.226l-0.016,54.863c-0.004,14.855 -20.861,18.159 -25.453,4.03Zm221.949,86.557l-75.407,-103.762c18.74,-12.992 38.383,-23.235 58.568,-30.448l39.801,122.51c4.588,14.129 -14.23,23.716 -22.962,11.7Zm15.055,86.238l-163.596,-118.859c18.783,-24.891 39.937,-46.236 62.579,-63.493l119.242,164.131c8.732,12.016 -6.205,26.953 -18.225,18.221Zm-324.97,-348.839l5.392,16.598c4.588,14.129 -14.23,23.716 -22.962,11.7l-20.565,-28.298l38.134,0Zm20.253,351.455l-0.016,54.863c-0.004,14.855 -20.861,18.159 -25.453,4.03l-16.78,-51.641c5.287,-1.585 10.653,-2.901 15.987,-4.026c9.052,-1.808 17.846,-2.89 26.262,-3.226Zm-163.889,-2.616l-163.596,-118.859c18.783,-24.891 39.937,-46.236 62.579,-63.493l119.242,164.131c8.732,12.016 -6.205,26.953 -18.225,18.221Zm-90.667,-348.839l5.392,16.598c4.588,14.129 -14.23,23.716 -22.962,11.7l-20.565,-28.298l38.134,0Zm-146.337,176.044l-16.78,-51.641c5.287,-1.585 10.653,-2.901 15.987,-4.026c9.052,-1.808 17.846,-2.89 26.262,-3.226l-0.016,54.863c-0.004,14.855 -20.861,18.159 -25.453,4.03Zm794.984,-176.044l69.973,96.314c8.732,12.016 -6.205,26.953 -18.225,18.221l-157.645,-114.536l105.897,0Zm54.263,0l5.392,16.598c4.588,14.129 -14.23,23.716 -22.962,11.7l-20.565,-28.298l38.134,0Zm-239.519,410.347l-16.78,-51.641c5.287,-1.585 10.653,-2.901 15.987,-4.026c9.052,-1.808 17.846,-2.89 26.262,-3.226l-0.016,54.863c-0.004,14.855 -20.861,18.159 -25.453,4.03Zm-387.778,-147.746l-75.407,-103.762c18.74,-12.992 38.383,-23.235 58.568,-30.448l39.801,122.51c4.588,14.129 -14.23,23.716 -22.962,11.7Zm480.96,-86.557l-16.78,-51.641c5.287,-1.585 10.653,-2.901 15.987,-4.026c9.052,-1.808 17.846,-2.89 26.262,-3.226l-0.016,54.863c-0.004,14.855 -20.861,18.159 -25.453,4.03Zm166.59,175.41l-0.016,54.863c-0.004,14.855 -20.861,18.159 -25.453,4.03l-16.78,-51.641c5.287,-1.585 10.653,-2.901 15.987,-4.026c9.052,-1.808 17.846,-2.89 26.262,-3.226Zm-777.425,-351.455l69.973,96.314c8.732,12.016 -6.205,26.953 -18.225,18.221l-157.645,-114.536l105.897,0Zm234.303,0l69.973,96.314c8.732,12.016 -6.205,26.953 -18.225,18.221l-157.645,-114.536l105.897,0Zm-185.256,410.347l-16.78,-51.641c5.287,-1.585 10.653,-2.901 15.987,-4.026c9.052,-1.808 17.846,-2.89 26.262,-3.226l-0.016,54.863c-0.004,14.855 -20.861,18.159 -25.453,4.03Zm93.182,-234.303l-16.78,-51.641c5.287,-1.585 10.653,-2.901 15.987,-4.026c9.052,-1.808 17.846,-2.89 26.262,-3.226l-0.016,54.863c-0.004,14.855 -20.861,18.159 -25.453,4.03Zm1640.121,937.356l-16.78,-51.641c5.287,-1.585 10.653,-2.901 15.987,-4.026c9.052,-1.808 17.846,-2.89 26.262,-3.226l-0.016,54.863c-0.004,14.855 -20.861,18.159 -25.453,4.03Zm-468.606,-468.894l-16.78,-51.641c5.287,-1.585 10.653,-2.901 15.987,-4.026c9.052,-1.808 17.846,-2.89 26.262,-3.226l-0.016,54.863c-0.004,14.855 -20.861,18.159 -25.453,4.03Zm702.909,468.894l-16.78,-51.641c5.287,-1.585 10.653,-2.901 15.987,-4.026c9.052,-1.808 17.846,-2.89 26.262,-3.226l-0.016,54.863c-0.004,14.855 -20.861,18.159 -25.453,4.03Zm-12.354,86.557l-75.407,-103.762c18.74,-12.992 38.383,-23.235 58.568,-30.448l39.801,122.51c4.588,14.129 -14.23,23.716 -22.962,11.7Zm-129.875,206.149l69.973,96.314c8.732,12.016 -6.205,26.953 -18.225,18.221l-157.645,-114.536l105.897,0Zm54.263,0l5.392,16.598c4.588,14.129 -14.23,23.716 -22.962,11.7l-20.565,-28.298l38.134,0Zm1171.515,0.144l5.392,16.598c4.588,14.129 -14.23,23.716 -22.962,11.7l-20.565,-28.298l38.134,0Zm-394.463,-469.038l-5.951,-4.323c18.783,-24.891 39.937,-46.236 62.579,-63.493l49.269,67.816l-105.897,0Zm340.2,469.038l69.973,96.314c8.732,12.016 -6.205,26.953 -18.225,18.221l-157.645,-114.536l105.897,0Zm-89.373,348.839l-163.596,-118.859c18.783,-24.891 39.937,-46.236 62.579,-63.493l119.242,164.131c8.732,12.016 -6.205,26.953 -18.225,18.221Zm105.502,-817.876l-54.842,-75.464c18.74,-12.992 38.383,-23.235 58.568,-30.448l34.408,105.912l-38.134,0Zm-122.025,0l-5.951,-4.323c18.783,-24.891 39.937,-46.236 62.579,-63.493l49.269,67.816l-105.897,0Zm1.469,-206.005l-75.407,-103.762c18.74,-12.992 38.383,-23.235 58.568,-30.448l39.801,122.51c4.588,14.129 -14.23,23.716 -22.962,11.7Zm-1407.287,205.861l-5.951,-4.323c18.783,-24.891 39.937,-46.236 62.579,-63.493l49.269,67.816l-105.897,0Zm13.823,-292.562l-16.78,-51.641c5.287,-1.585 10.653,-2.901 15.987,-4.026c9.052,-1.808 17.846,-2.89 26.262,-3.226l-0.016,54.863c-0.004,14.855 -20.861,18.159 -25.453,4.03Zm1279.718,292.706l-54.842,-75.464c18.74,-12.992 38.383,-23.235 58.568,-30.448l34.408,105.912l-38.134,0Zm-1292.072,-206.149l-75.407,-103.762c18.74,-12.992 38.383,-23.235 58.568,-30.448l39.801,122.51c4.588,14.129 -14.23,23.716 -22.962,11.7Zm-235.772,206.005l-5.951,-4.323c18.783,-24.891 39.937,-46.236 62.579,-63.493l49.269,67.816l-105.897,0Zm574.503,0.288l69.973,96.314c8.732,12.016 -6.205,26.953 -18.225,18.221l-157.645,-114.536l105.897,0Zm845.138,644.938l-16.78,-51.641c5.287,-1.585 10.653,-2.901 15.987,-4.026c9.052,-1.808 17.846,-2.89 26.262,-3.226l-0.016,54.863c-0.004,14.855 -20.861,18.159 -25.453,4.03Zm237.004,-764.849l-163.596,-118.859c18.783,-24.891 39.937,-46.236 62.579,-63.493l119.242,164.131c8.732,12.016 -6.205,26.953 -18.225,18.221Zm-95.883,61.509l-16.78,-51.641c5.287,-1.585 10.653,-2.901 15.987,-4.026c9.052,-1.808 17.846,-2.89 26.262,-3.226l-0.016,54.863c-0.004,14.855 -20.861,18.159 -25.453,4.03Zm-1146.046,-59.037l-0.016,54.863c-0.004,14.855 -20.861,18.159 -25.453,4.03l-16.78,-51.641c5.287,-1.585 10.653,-2.901 15.987,-4.026c9.052,-1.808 17.846,-2.89 26.262,-3.226Zm-163.889,-2.616l-163.596,-118.859c18.783,-24.891 39.937,-46.236 62.579,-63.493l119.242,164.131c8.732,12.016 -6.205,26.953 -18.225,18.221Zm-128.801,119.767l-54.842,-75.464c18.74,-12.992 38.383,-23.235 58.568,-30.448l34.408,105.912l-38.134,0Zm761.297,351.742l-0.016,54.863c-0.004,14.855 -20.861,18.159 -25.453,4.03l-16.78,-51.641c5.287,-1.585 10.653,-2.901 15.987,-4.026c9.052,-1.808 17.846,-2.89 26.262,-3.226Zm770.622,293.483l-16.78,-51.641c5.287,-1.585 10.653,-2.901 15.987,-4.026c9.052,-1.808 17.846,-2.89 26.262,-3.226l-0.016,54.863c-0.004,14.855 -20.861,18.159 -25.453,4.03Zm-829.009,-176.332l-54.842,-75.464c18.74,-12.992 38.383,-23.235 58.568,-30.448l34.408,105.912l-38.134,0Zm594.706,-761.312l-16.78,-51.641c5.287,-1.585 10.653,-2.901 15.987,-4.026c9.052,-1.808 17.846,-2.89 26.262,-3.226l-0.016,54.863c-0.004,14.855 -20.861,18.159 -25.453,4.03Zm234.303,0l-16.78,-51.641c5.287,-1.585 10.653,-2.901 15.987,-4.026c9.052,-1.808 17.846,-2.89 26.262,-3.226l-0.016,54.863c-0.004,14.855 -20.861,18.159 -25.453,4.03Zm-1025.178,292.706l5.392,16.598c4.588,14.129 -14.23,23.716 -22.962,11.7l-20.565,-28.298l38.134,0Zm74.143,468.606l-5.951,-4.323c18.783,-24.891 39.937,-46.236 62.579,-63.493l49.269,67.816l-105.897,0Zm-547.965,-527.153l-16.78,-51.641c5.287,-1.585 10.653,-2.901 15.987,-4.026c9.052,-1.808 17.846,-2.89 26.262,-3.226l-0.016,54.863c-0.004,14.855 -20.861,18.159 -25.453,4.03Zm435.688,527.153l-54.842,-75.464c18.74,-12.992 38.383,-23.235 58.568,-30.448l34.408,105.912l-38.134,0Zm-234.303,-468.894l-54.842,-75.464c18.74,-12.992 38.383,-23.235 58.568,-30.448l34.408,105.912l-38.134,0Zm112.278,468.894l-5.951,-4.323c18.783,-24.891 39.937,-46.236 62.579,-63.493l49.269,67.816l-105.897,0Zm154.944,-58.259l-16.78,-51.641c5.287,-1.585 10.653,-2.901 15.987,-4.026c9.052,-1.808 17.846,-2.89 26.262,-3.226l-0.016,54.863c-0.004,14.855 -20.861,18.159 -25.453,4.03Zm1018.04,321.147l-75.407,-103.762c18.74,-12.992 38.383,-23.235 58.568,-30.448l39.801,122.51c4.588,14.129 -14.23,23.716 -22.962,11.7Zm-80.828,147.746l-16.78,-51.641c5.287,-1.585 10.653,-2.901 15.987,-4.026c9.052,-1.808 17.846,-2.89 26.262,-3.226l-0.016,54.863c-0.004,14.855 -20.861,18.159 -25.453,4.03Zm-751.956,-879.241l69.973,96.314c8.732,12.016 -6.205,26.953 -18.225,18.221l-157.645,-114.536l105.897,0Zm54.263,0l5.392,16.598c4.588,14.129 -14.23,23.716 -22.962,11.7l-20.565,-28.298l38.134,0Zm-143.636,348.839l-163.596,-118.859c18.783,-24.891 39.937,-46.236 62.579,-63.493l119.242,164.131c8.732,12.016 -6.205,26.953 -18.225,18.221Zm-2647.747,-466.278l-0.016,54.863c-0.004,14.855 -20.861,18.159 -25.453,4.03l-16.78,-51.641c5.287,-1.585 10.653,-2.901 15.987,-4.026c9.052,-1.808 17.846,-2.89 26.262,-3.226Zm-166.59,293.483l-16.78,-51.641c5.287,-1.585 10.653,-2.901 15.987,-4.026c9.052,-1.808 17.846,-2.89 26.262,-3.226l-0.016,54.863c-0.004,14.855 -20.861,18.159 -25.453,4.03Zm-93.182,234.303l-16.78,-51.641c5.287,-1.585 10.653,-2.901 15.987,-4.026c9.052,-1.808 17.846,-2.89 26.262,-3.226l-0.016,54.863c-0.004,14.855 -20.861,18.159 -25.453,4.03Zm201.384,527.009l-54.842,-75.464c18.74,-12.992 38.383,-23.235 58.568,-30.448l34.408,105.912l-38.134,0Zm-250.431,-468.606l69.973,96.314c8.732,12.016 -6.205,26.953 -18.225,18.221l-157.645,-114.536l105.897,0Zm129.875,-206.149l-75.407,-103.762c18.74,-12.992 38.383,-23.235 58.568,-30.448l39.801,122.51c4.588,14.129 -14.23,23.716 -22.962,11.7Zm-80.828,616.496l-16.78,-51.641c5.287,-1.585 10.653,-2.901 15.987,-4.026c9.052,-1.808 17.846,-2.89 26.262,-3.226l-0.016,54.863c-0.004,14.855 -20.861,18.159 -25.453,4.03Zm95.883,-999.152l-163.596,-118.859c18.783,-24.891 39.937,-46.236 62.579,-63.493l119.242,164.131c8.732,12.016 -6.205,26.953 -18.225,18.221Zm-15.055,-86.238l-75.407,-103.762c18.74,-12.992 38.383,-23.235 58.568,-30.448l39.801,122.51c4.588,14.129 -14.23,23.716 -22.962,11.7Zm-113.747,674.899l-54.842,-75.464c18.74,-12.992 38.383,-23.235 58.568,-30.448l34.408,105.912l-38.134,0Zm-108.203,-292.562l-16.78,-51.641c5.287,-1.585 10.653,-2.901 15.987,-4.026c9.052,-1.808 17.846,-2.89 26.262,-3.226l-0.016,54.863c-0.004,14.855 -20.861,18.159 -25.453,4.03Zm380.64,292.706l5.392,16.598c4.588,14.129 -14.23,23.716 -22.962,11.7l-20.565,-28.298l38.134,0Zm-394.463,-0.144l-5.951,-4.323c18.783,-24.891 39.937,-46.236 62.579,-63.493l49.269,67.816l-105.897,0Zm414.716,351.598l-0.016,54.863c-0.004,14.855 -20.861,18.159 -25.453,4.03l-16.78,-51.641c5.287,-1.585 10.653,-2.901 15.987,-4.026c9.052,-1.808 17.846,-2.89 26.262,-3.226Zm-292.691,117.152l-54.842,-75.464c18.74,-12.992 38.383,-23.235 58.568,-30.448l34.408,105.912l-38.134,0Zm234.303,-937.644l-54.842,-75.464c18.74,-12.992 38.383,-23.235 58.568,-30.448l34.408,105.912l-38.134,0Zm-16.128,469.038l69.973,96.314c8.732,12.016 -6.205,26.953 -18.225,18.221l-157.645,-114.536l105.897,0Zm-340.2,468.606l-5.951,-4.323c18.783,-24.891 39.937,-46.236 62.579,-63.493l49.269,67.816l-105.897,0Zm250.827,-119.767l-163.596,-118.859c18.783,-24.891 39.937,-46.236 62.579,-63.493l119.242,164.131c8.732,12.016 -6.205,26.953 -18.225,18.221Zm-250.827,-817.876l-5.951,-4.323c18.783,-24.891 39.937,-46.236 62.579,-63.493l49.269,67.816l-105.897,0Zm13.823,-292.562l-16.78,-51.641c5.287,-1.585 10.653,-2.901 15.987,-4.026c9.052,-1.808 17.846,-2.89 26.262,-3.226l-0.016,54.863c-0.004,14.855 -20.861,18.159 -25.453,4.03Zm220.481,292.562l-5.951,-4.323c18.783,-24.891 39.937,-46.236 62.579,-63.493l49.269,67.816l-105.897,0Zm-79.359,-58.259l-16.78,-51.641c5.287,-1.585 10.653,-2.901 15.987,-4.026c9.052,-1.808 17.846,-2.89 26.262,-3.226l-0.016,54.863c-0.004,14.855 -20.861,18.159 -25.453,4.03Zm95.883,407.385l-163.596,-118.859c18.783,-24.891 39.937,-46.236 62.579,-63.493l119.242,164.131c8.732,12.016 -6.205,26.953 -18.225,18.221Zm-16.524,588.517l-5.951,-4.323c18.783,-24.891 39.937,-46.236 62.579,-63.493l49.269,67.816l-105.897,0Zm-74.143,-468.606l5.392,16.598c4.588,14.129 -14.23,23.716 -22.962,11.7l-20.565,-28.298l38.134,0Zm-146.337,176.044l-16.78,-51.641c5.287,-1.585 10.653,-2.901 15.987,-4.026c9.052,-1.808 17.846,-2.89 26.262,-3.226l-0.016,54.863c-0.004,14.855 -20.861,18.159 -25.453,4.03Zm234.303,0l-16.78,-51.641c5.287,-1.585 10.653,-2.901 15.987,-4.026c9.052,-1.808 17.846,-2.89 26.262,-3.226l-0.016,54.863c-0.004,14.855 -20.861,18.159 -25.453,4.03Zm-12.354,86.557l-75.407,-103.762c18.74,-12.992 38.383,-23.235 58.568,-30.448l39.801,122.51c4.588,14.129 -14.23,23.716 -22.962,11.7Zm-113.747,-731.639l-54.842,-75.464c18.74,-12.992 38.383,-23.235 58.568,-30.448l34.408,105.912l-38.134,0Zm126.1,-292.562l-16.78,-51.641c5.287,-1.585 10.653,-2.901 15.987,-4.026c9.052,-1.808 17.846,-2.89 26.262,-3.226l-0.016,54.863c-0.004,14.855 -20.861,18.159 -25.453,4.03Zm-87.966,-644.65l5.392,16.598c4.588,14.129 -14.23,23.716 -22.962,11.7l-20.565,-28.298l38.134,-0Zm234.303,0l5.392,16.598c4.588,14.129 -14.23,23.716 -22.962,11.7l-20.565,-28.298l38.134,-0Zm-288.566,0l69.973,96.314c8.732,12.016 -6.205,26.953 -18.225,18.221l-157.645,-114.536l105.897,-0Zm234.303,0l69.973,96.314c8.732,12.016 -6.205,26.953 -18.225,18.221l-157.645,-114.536l105.897,-0Zm1948.94,1757.848l-0.016,54.863c-0.004,14.855 -20.861,18.159 -25.453,4.03l-16.78,-51.641c5.287,-1.585 10.653,-2.901 15.987,-4.026c9.052,-1.808 17.846,-2.89 26.262,-3.226Zm0,-937.644l-0.016,54.863c-0.004,14.855 -20.861,18.159 -25.453,4.03l-16.78,-51.641c5.287,-1.585 10.653,-2.901 15.987,-4.026c9.052,-1.808 17.846,-2.89 26.262,-3.226Zm-166.59,293.483l-16.78,-51.641c5.287,-1.585 10.653,-2.901 15.987,-4.026c9.052,-1.808 17.846,-2.89 26.262,-3.226l-0.016,54.863c-0.004,14.855 -20.861,18.159 -25.453,4.03Zm146.337,-176.044l5.392,16.598c4.588,14.129 -14.23,23.716 -22.962,11.7l-20.565,-28.298l38.134,0Zm-468.606,468.75l5.392,16.598c4.588,14.129 -14.23,23.716 -22.962,11.7l-20.565,-28.298l38.134,0Zm-380.64,176.044l-16.78,-51.641c5.287,-1.585 10.653,-2.901 15.987,-4.026c9.052,-1.808 17.846,-2.89 26.262,-3.226l-0.016,54.863c-0.004,14.855 -20.861,18.159 -25.453,4.03Zm869.499,-293.34l-0.016,54.863c-0.004,14.855 -20.861,18.159 -25.453,4.03l-16.78,-51.641c5.287,-1.585 10.653,-2.901 15.987,-4.026c9.052,-1.808 17.846,-2.89 26.262,-3.226Zm-543.122,117.295l69.973,96.314c8.732,12.016 -6.205,26.953 -18.225,18.221l-157.645,-114.536l105.897,0Zm-89.373,348.839l-163.596,-118.859c18.783,-24.891 39.937,-46.236 62.579,-63.493l119.242,164.131c8.732,12.016 -6.205,26.953 -18.225,18.221Zm105.502,-817.876l-54.842,-75.464c18.74,-12.992 38.383,-23.235 58.568,-30.448l34.408,105.912l-38.134,0Zm-120.556,731.639l-75.407,-103.762c18.74,-12.992 38.383,-23.235 58.568,-30.448l39.801,122.51c4.588,14.129 -14.23,23.716 -22.962,11.7Zm12.354,-1024.201l-16.78,-51.641c5.287,-1.585 10.653,-2.901 15.987,-4.026c9.052,-1.808 17.846,-2.89 26.262,-3.226l-0.016,54.863c-0.004,14.855 -20.861,18.159 -25.453,4.03Zm166.59,175.41l-0.016,54.863c-0.004,14.855 -20.861,18.159 -25.453,4.03l-16.78,-51.641c5.287,-1.585 10.653,-2.901 15.987,-4.026c9.052,-1.808 17.846,-2.89 26.262,-3.226Zm-180.413,117.152l-5.951,-4.323c18.783,-24.891 39.937,-46.236 62.579,-63.493l49.269,67.816l-105.897,0Zm394.463,0.288l5.392,16.598c4.588,14.129 -14.23,23.716 -22.962,11.7l-20.565,-28.298l38.134,0Zm-214.05,820.205l-0.016,54.863c-0.004,14.855 -20.861,18.159 -25.453,4.03l-16.78,-51.641c5.287,-1.585 10.653,-2.901 15.987,-4.026c9.052,-1.808 17.846,-2.89 26.262,-3.226Zm-292.691,-820.492l-54.842,-75.464c18.74,-12.992 38.383,-23.235 58.568,-30.448l34.408,105.912l-38.134,0Zm32.919,879.385l-16.78,-51.641c5.287,-1.585 10.653,-2.901 15.987,-4.026c9.052,-1.808 17.846,-2.89 26.262,-3.226l-0.016,54.863c-0.004,14.855 -20.861,18.159 -25.453,4.03Zm-154.944,-879.385l-5.951,-4.323c18.783,-24.891 39.937,-46.236 62.579,-63.493l49.269,67.816l-105.897,0Zm702.909,468.894l-5.951,-4.323c18.783,-24.891 39.937,-46.236 62.579,-63.493l49.269,67.816l-105.897,0Zm-112.278,0l-54.842,-75.464c18.74,-12.992 38.383,-23.235 58.568,-30.448l34.408,105.912l-38.134,0Zm128.801,-119.767l-163.596,-118.859c18.783,-24.891 39.937,-46.236 62.579,-63.493l119.242,164.131c8.732,12.016 -6.205,26.953 -18.225,18.221Zm-564.489,-407.385l-16.78,-51.641c5.287,-1.585 10.653,-2.901 15.987,-4.026c9.052,-1.808 17.846,-2.89 26.262,-3.226l-0.016,54.863c-0.004,14.855 -20.861,18.159 -25.453,4.03Zm327.485,234.591l-16.78,-51.641c5.287,-1.585 10.653,-2.901 15.987,-4.026c9.052,-1.808 17.846,-2.89 26.262,-3.226l-0.016,54.863c-0.004,14.855 -20.861,18.159 -25.453,4.03Zm92.075,292.706l69.973,96.314c8.732,12.016 -6.205,26.953 -18.225,18.221l-157.645,-114.536l105.897,0Zm234.303,-468.75l69.973,96.314c8.732,12.016 -6.205,26.953 -18.225,18.221l-157.645,-114.536l105.897,0Zm-185.256,410.347l-16.78,-51.641c5.287,-1.585 10.653,-2.901 15.987,-4.026c9.052,-1.808 17.846,-2.89 26.262,-3.226l-0.016,54.863c-0.004,14.855 -20.861,18.159 -25.453,4.03Zm5.216,58.403l5.392,16.598c4.588,14.129 -14.23,23.716 -22.962,11.7l-20.565,-28.298l38.134,0Zm180.04,0l69.973,96.314c8.732,12.016 -6.205,26.953 -18.225,18.221l-157.645,-114.536l105.897,0Zm54.263,0l5.392,16.598c4.588,14.129 -14.23,23.716 -22.962,11.7l-20.565,-28.298l38.134,0Zm-239.519,410.347l-16.78,-51.641c5.287,-1.585 10.653,-2.901 15.987,-4.026c9.052,-1.808 17.846,-2.89 26.262,-3.226l-0.016,54.863c-0.004,14.855 -20.861,18.159 -25.453,4.03Zm95.883,-61.509l-163.596,-118.859c18.783,-24.891 39.937,-46.236 62.579,-63.493l119.242,164.131c8.732,12.016 -6.205,26.953 -18.225,18.221Zm-2.701,-172.795l-16.78,-51.641c5.287,-1.585 10.653,-2.901 15.987,-4.026c9.052,-1.808 17.846,-2.89 26.262,-3.226l-0.016,54.863c-0.004,14.855 -20.861,18.159 -25.453,4.03Zm-480.96,-851.087l-75.407,-103.762c18.74,-12.992 38.383,-23.235 58.568,-30.448l39.801,122.51c4.588,14.129 -14.23,23.716 -22.962,11.7Zm468.606,937.644l-75.407,-103.762c18.74,-12.992 38.383,-23.235 58.568,-30.448l39.801,122.51c4.588,14.129 -14.23,23.716 -22.962,11.7Zm-235.772,-731.639l-5.951,-4.323c18.783,-24.891 39.937,-46.236 62.579,-63.493l49.269,67.816l-105.897,0Zm13.823,-292.562l-16.78,-51.641c5.287,-1.585 10.653,-2.901 15.987,-4.026c9.052,-1.808 17.846,-2.89 26.262,-3.226l-0.016,54.863c-0.004,14.855 -20.861,18.159 -25.453,4.03Zm221.949,555.451l-75.407,-103.762c18.74,-12.992 38.383,-23.235 58.568,-30.448l39.801,122.51c4.588,14.129 -14.23,23.716 -22.962,11.7Zm-456.252,382.193l-16.78,-51.641c5.287,-1.585 10.653,-2.901 15.987,-4.026c9.052,-1.808 17.846,-2.89 26.262,-3.226l-0.016,54.863c-0.004,14.855 -20.861,18.159 -25.453,4.03Zm-234.303,-937.644l-16.78,-51.641c5.287,-1.585 10.653,-2.901 15.987,-4.026c9.052,-1.808 17.846,-2.89 26.262,-3.226l-0.016,54.863c-0.004,14.855 -20.861,18.159 -25.453,4.03Zm454.784,761.456l-5.951,-4.323c18.783,-24.891 39.937,-46.236 62.579,-63.493l49.269,67.816l-105.897,0Zm356.328,0l-54.842,-75.464c18.74,-12.992 38.383,-23.235 58.568,-30.448l34.408,105.912l-38.134,0Zm-250.431,-468.606l69.973,96.314c8.732,12.016 -6.205,26.953 -18.225,18.221l-157.645,-114.536l105.897,0Zm-323.676,-120.055l-163.596,-118.859c18.783,-24.891 39.937,-46.236 62.579,-63.493l119.242,164.131c8.732,12.016 -6.205,26.953 -18.225,18.221Zm231.602,764.849l-16.78,-51.641c5.287,-1.585 10.653,-2.901 15.987,-4.026c9.052,-1.808 17.846,-2.89 26.262,-3.226l-0.016,54.863c-0.004,14.855 -20.861,18.159 -25.453,4.03Zm342.506,-645.082l-54.842,-75.464c18.74,-12.992 38.383,-23.235 58.568,-30.448l34.408,105.912l-38.134,0Zm-122.025,0l-5.951,-4.323c18.783,-24.891 39.937,-46.236 62.579,-63.493l49.269,67.816l-105.897,0Zm-112.278,0l-54.842,-75.464c18.74,-12.992 38.383,-23.235 58.568,-30.448l34.408,105.912l-38.134,0Zm32.919,-58.259l-16.78,-51.641c5.287,-1.585 10.653,-2.901 15.987,-4.026c9.052,-1.808 17.846,-2.89 26.262,-3.226l-0.016,54.863c-0.004,14.855 -20.861,18.159 -25.453,4.03Zm95.883,-61.509l-163.596,-118.859c18.783,-24.891 39.937,-46.236 62.579,-63.493l119.242,164.131c8.732,12.016 -6.205,26.953 -18.225,18.221Zm-2.701,-172.795l-16.78,-51.641c5.287,-1.585 10.653,-2.901 15.987,-4.026c9.052,-1.808 17.846,-2.89 26.262,-3.226l-0.016,54.863c-0.004,14.855 -20.861,18.159 -25.453,4.03Zm-12.354,86.557l-75.407,-103.762c18.74,-12.992 38.383,-23.235 58.568,-30.448l39.801,122.51c4.588,14.129 -14.23,23.716 -22.962,11.7Zm-1407.287,205.861l-5.951,-4.323c18.783,-24.891 39.937,-46.236 62.579,-63.493l49.269,67.816l-105.897,0Zm-234.303,0l-5.951,-4.323c18.783,-24.891 39.937,-46.236 62.579,-63.493l49.269,67.816l-105.897,0Zm356.328,0l-54.842,-75.464c18.74,-12.992 38.383,-23.235 58.568,-30.448l34.408,105.912l-38.134,0Zm-201.384,-58.259l-16.78,-51.641c5.287,-1.585 10.653,-2.901 15.987,-4.026c9.052,-1.808 17.846,-2.89 26.262,-3.226l-0.016,54.863c-0.004,14.855 -20.861,18.159 -25.453,4.03Zm95.883,-61.509l-163.596,-118.859c18.783,-24.891 39.937,-46.236 62.579,-63.493l119.242,164.131c8.732,12.016 -6.205,26.953 -18.225,18.221Zm163.889,2.616l-0.016,54.863c-0.004,14.855 -20.861,18.159 -25.453,4.03l-16.78,-51.641c5.287,-1.585 10.653,-2.901 15.987,-4.026c9.052,-1.808 17.846,-2.89 26.262,-3.226Zm-400.893,-175.41l-16.78,-51.641c5.287,-1.585 10.653,-2.901 15.987,-4.026c9.052,-1.808 17.846,-2.89 26.262,-3.226l-0.016,54.863c-0.004,14.855 -20.861,18.159 -25.453,4.03Zm234.303,0l-16.78,-51.641c5.287,-1.585 10.653,-2.901 15.987,-4.026c9.052,-1.808 17.846,-2.89 26.262,-3.226l-0.016,54.863c-0.004,14.855 -20.861,18.159 -25.453,4.03Zm-126.1,292.562l-54.842,-75.464c18.74,-12.992 38.383,-23.235 58.568,-30.448l34.408,105.912l-38.134,0Zm113.747,-206.005l-75.407,-103.762c18.74,-12.992 38.383,-23.235 58.568,-30.448l39.801,122.51c4.588,14.129 -14.23,23.716 -22.962,11.7Zm338.731,206.293l69.973,96.314c8.732,12.016 -6.205,26.953 -18.225,18.221l-157.645,-114.536l105.897,0Zm54.263,0l5.392,16.598c4.588,14.129 -14.23,23.716 -22.962,11.7l-20.565,-28.298l38.134,0Zm-160.16,937.356l-5.951,-4.323c18.783,-24.891 39.937,-46.236 62.579,-63.493l49.269,67.816l-105.897,0Zm394.463,-937.356l5.392,16.598c4.588,14.129 -14.23,23.716 -22.962,11.7l-20.565,-28.298l38.134,0Zm-158.691,262.601l-75.407,-103.762c18.74,-12.992 38.383,-23.235 58.568,-30.448l39.801,122.51c4.588,14.129 -14.23,23.716 -22.962,11.7Zm12.354,-86.557l-16.78,-51.641c5.287,-1.585 10.653,-2.901 15.987,-4.026c9.052,-1.808 17.846,-2.89 26.262,-3.226l-0.016,54.863c-0.004,14.855 -20.861,18.159 -25.453,4.03Zm-93.182,234.303l-16.78,-51.641c5.287,-1.585 10.653,-2.901 15.987,-4.026c9.052,-1.808 17.846,-2.89 26.262,-3.226l-0.016,54.863c-0.004,14.855 -20.861,18.159 -25.453,4.03Zm201.384,58.259l-54.842,-75.464c18.74,-12.992 38.383,-23.235 58.568,-30.448l34.408,105.912l-38.134,0Zm-196.169,0.144l5.392,16.598c4.588,14.129 -14.23,23.716 -22.962,11.7l-20.565,-28.298l38.134,0Zm180.04,0l69.973,96.314c8.732,12.016 -6.205,26.953 -18.225,18.221l-157.645,-114.536l105.897,0Zm-326.378,-292.706l-16.78,-51.641c5.287,-1.585 10.653,-2.901 15.987,-4.026c9.052,-1.808 17.846,-2.89 26.262,-3.226l-0.016,54.863c-0.004,14.855 -20.861,18.159 -25.453,4.03Zm380.64,292.706l5.392,16.598c4.588,14.129 -14.23,23.716 -22.962,11.7l-20.565,-28.298l38.134,0Zm-394.463,-0.144l-5.951,-4.323c18.783,-24.891 39.937,-46.236 62.579,-63.493l49.269,67.816l-105.897,0Zm414.716,351.598l-0.016,54.863c-0.004,14.855 -20.861,18.159 -25.453,4.03l-16.78,-51.641c5.287,-1.585 10.653,-2.901 15.987,-4.026c9.052,-1.808 17.846,-2.89 26.262,-3.226Zm-163.889,-471.366l-163.596,-118.859c18.783,-24.891 39.937,-46.236 62.579,-63.493l119.242,164.131c8.732,12.016 -6.205,26.953 -18.225,18.221Zm89.373,-348.839l69.973,96.314c8.732,12.016 -6.205,26.953 -18.225,18.221l-157.645,-114.536l105.897,0Zm-105.897,468.606l-5.951,-4.323c18.783,-24.891 39.937,-46.236 62.579,-63.493l49.269,67.816l-105.897,0Zm-0,468.75l-5.951,-4.323c18.783,-24.891 39.937,-46.236 62.579,-63.493l49.269,67.816l-105.897,0Zm-112.278,-468.75l-54.842,-75.464c18.74,-12.992 38.383,-23.235 58.568,-30.448l34.408,105.912l-38.134,0Zm234.303,468.75l-54.842,-75.464c18.74,-12.992 38.383,-23.235 58.568,-30.448l34.408,105.912l-38.134,0Zm58.388,-585.902l-0.016,54.863c-0.004,14.855 -20.861,18.159 -25.453,4.03l-16.78,-51.641c5.287,-1.585 10.653,-2.901 15.987,-4.026c9.052,-1.808 17.846,-2.89 26.262,-3.226Zm-308.819,117.295l69.973,96.314c8.732,12.016 -6.205,26.953 -18.225,18.221l-157.645,-114.536l105.897,0Zm16.128,468.606l-54.842,-75.464c18.74,-12.992 38.383,-23.235 58.568,-30.448l34.408,105.912l-38.134,0Z" style="fill-opacity:0.05;"/><g><path d="M4297.911,893.111l-542.383,-276.16l-106.101,-98.245l0,-72.753l648.484,374.388l0.967,21.044l0,28.956l-0.967,22.769Z" style="fill:#124923;fill-rule:nonzero;"/><path d="M4253.352,970.28l-383.133,-151.228l-265.387,-223.196l44.59,-77.149l648.488,374.404l-6.136,12.675l-34.765,60.161l-3.658,4.333Z" style="fill:#165817;fill-rule:nonzero;"/><path d="M3032.175,926.495l572.657,-330.639l648.52,374.424l-735.186,425.663l-54.432,-30.787l-496.116,-347.804l64.557,-90.858Z" style="fill:#64c37c;fill-rule:nonzero;"/><path d="M3890.541,1039.316l-165.674,-95.656l-14.012,-16.798l179.687,103.757l116.83,-67.446l7.722,4.222l-124.553,71.92Zm125.63,-72.54l-6.483,-4.94l73.211,-42.266l-243.309,-140.471l-133.25,76.924l-4.388,-1.219l0,-4.956l137.638,-79.442l258.331,149.164l-81.75,47.206Zm-359.575,-62.533l-6.669,-3.851l3.457,0l3.212,3.851Z" style="fill:#275e07;fill-rule:nonzero;"/><path d="M3612.949,879.02l-24.205,-13.961l24.986,-14.423l10.394,6.002l0,15.93l-11.175,6.452Zm24.477,-37.906l-3.603,-2.08l162.32,-93.703l24.185,13.961l-136.714,78.929l-4.479,-2.585l-32.239,0l-9.471,5.477Z" style="fill:#275e07;fill-rule:nonzero;"/><path d="M3891.058,1009.654l-18.069,-10.433l83.025,-47.944l21.324,5.927l0.481,-0.576l2.529,1.464l-89.291,51.563Z" style="fill:#275e07;fill-rule:nonzero;"/><path d="M3855.051,988.846l-18.085,-10.418l70.433,-40.672l24.414,6.787l-76.762,44.302Zm106.922,-61.708l-24.422,-6.795l54.412,-31.418l18.116,10.453l-48.106,27.76Z" style="fill:#275e07;fill-rule:nonzero;"/><path d="M3818.897,967.976l-18.132,-10.449l57.794,-33.352l24.422,6.791l-64.084,37.01Zm94.239,-54.424l-24.402,-6.787l67.075,-38.707l18.069,10.417l-60.741,35.076Z" style="fill:#275e07;fill-rule:nonzero;"/><path d="M3357.968,1122.522l26.166,15.153l0,1.728l119.506,69.032l169.088,0l119.549,-69.032l-0.032,-97.605l-119.506,-69.024l-3.058,0.02l-26.166,-15.121l40.064,0l134.931,77.844l-0.032,110.181l-134.899,77.859l-190.795,0l-134.868,-77.859l0.051,-23.175Zm-0.051,-42.803l26.217,15.121l0,39.322l-26.217,-15.153l0,-39.291Zm0.051,-44.188l134.848,-77.844l70.437,-0.036l26.233,15.141l-85.846,-0.02l-119.506,69.024l0,49.515l-26.217,-15.121l0.051,-40.66Zm78.585,89.603l0,1.736l88.825,51.291l125.591,0l88.892,-51.306l0,-72.516l-88.861,-51.271l-3.011,-0.032l-43.848,-25.266l65.011,0l114.494,66.088l0.032,93.497l-114.526,66.12l-161.989,0l-114.447,-66.12l0,-37.539l43.837,25.318Zm210.904,-117.091l83.806,48.375l0,68.377l-83.806,48.39l-118.504,0l-83.77,-48.374l0,-68.393l83.77,-48.406l118.504,0.032Zm-122.063,-5.008l-88.841,51.302l0,67.264l-43.868,-25.298l0.032,-52.415l114.498,-66.104l90.822,0l43.837,25.282l-116.479,-0.032Zm112,-45.348l26.202,15.105l-68.053,-0.02l-26.202,-15.153l68.053,0.067Zm-593.22,12.11l305.175,176.202l-0.032,1.756l139.923,80.791l197.866,0l140.002,-80.842l-0.032,-114.187l-139.938,-80.823l-3.027,0l-305.163,-176.191l-3.027,1.709l302.101,174.498l-43.126,-0.051l-202.369,-116.763l-2.983,1.756l199.251,115.059l-68.069,-0.016l-96.816,-55.896l-3.027,1.74l15.425,8.918l-18.049,-0.016l0,2.514l10.725,0.016l-193.727,111.823l0.047,-6.215l-4.313,-0.032l0,10.449l18.148,0l0,-2.447l-10.757,0l193.66,-111.823l0.047,6.183l4.285,-0.016l-0.032,-10.418l78.309,45.218l-65.413,0l-139.923,80.775l0,37.744l-78.325,-45.218l-15.492,-8.89l-3.011,1.756l96.828,55.88l0,39.291l-188.715,-108.922l17.856,0.032l0,-2.51l-10.737,0l267.912,-154.708l-0.047,6.235l4.333,0.032l-0.02,-10.469l-18.085,0.016l0,2.478l10.761,0l-267.881,154.677l0,-6.231l-4.301,0l-0.047,10.303l-10.291,-5.974l-3.074,1.756l202.337,116.799l0.032,24.943l-288.187,-166.349l18.037,0.016l-0.047,-2.51l-10.71,0l317.029,-183.033l0,6.199l4.333,0.036l-0.067,-10.485l-18.081,0l0,2.462l10.804,0.047l-317.048,182.986l-0.032,-6.183l-4.297,0l0.047,10.402l-13.981,-8.05l-2.975,1.772Z" style="fill:#f6f6f6;fill-rule:nonzero;"/><path d="M4254.224,972.214l-736.769,425.355l-45.782,-26.427l0,-74.797l45.782,-79.311l43.189,-24.927l0.047,2.431l-42.317,24.446l-44.574,77.169l0,72.769l44.574,25.685l734.977,-424.325l44.559,-77.169l0,-72.769l-44.559,-25.72l-42.317,24.43l0,-2.431l43.189,-24.963l45.782,26.458l0,74.785l-45.782,79.311Z" style="fill:#9f9891;fill-rule:nonzero;"/><path d="M3471.673,1371.142l-648.488,-374.42l0.032,-74.785l602.529,309.946l45.928,64.463l0,74.797Z" style="fill:#cdcdcd;fill-rule:nonzero;"/><path d="M3471.673,1296.345l-648.457,-374.408l45.75,-79.307l581.496,313.323l66.992,61.081l-45.782,79.311Z" style="fill:#dcdad8;fill-rule:nonzero;"/><path d="M3517.455,1217.034l-648.488,-374.404l43.205,-24.963l648.472,374.44l-43.189,24.927Z" style="fill:#f0ebe5;fill-rule:nonzero;"/><path d="M4211.035,819.052l-648.504,-374.404l0,-2.447l44.492,13.444l604.012,360.976l0,2.431Z" style="fill:#b1aba3;fill-rule:nonzero;"/><path d="M4211.035,816.621l-648.504,-374.42l43.205,-24.931l648.488,374.388l-43.189,24.963Z" style="fill:#f0ebe5;fill-rule:nonzero;"/><path d="M3236.193,1323.64l-4.139,-2.435l-8.31,-4.798l-1.239,0.178l-4.573,-2.64l-231.972,-133.676l-26.17,-26.004l45.348,14.845l232.023,133.739l4.57,2.691l-0.335,0.659l8.259,4.846l4.238,2.399l-2.158,4.704l-7.261,4.27l-8.279,1.223Z" style="fill:#b2b2b2;fill-rule:nonzero;"/><path d="M2970.144,1149.77l1.997,-2.253l-12.351,-3.248l10.354,5.501Z" style="fill:#7f6a66;fill-rule:nonzero;"/><path d="M2968.81,1153.199l1.046,-2.77l-10.066,-6.16l9.021,8.93Z" style="fill:#3c312e;fill-rule:nonzero;"/><path d="M2968.81,1150.914l1.16,0l0.174,-2.336l-10.354,-4.309l9.021,6.645Z" style="fill:#64534d;fill-rule:nonzero;"/><path d="M2989.854,1174.263l10.84,-8.18l0.256,-11.033l-11.499,-1.93l-19.308,-4.542l-1.334,2.336l14.541,13.01l6.503,10.339Z" style="fill:#ebc188;fill-rule:nonzero;"/><path d="M2989.854,1174.263l0,-7.568l-21.044,-15.78l0,2.285l21.044,21.064Z" style="fill:#c39a5a;fill-rule:nonzero;"/><path d="M2994.495,1158.802l6.456,-3.753l-28.81,-7.533l-1.997,1.061l24.351,10.224Z" style="fill:#f3e2b8;fill-rule:nonzero;"/><path d="M3194.468,1284.831l4.621,-7.892l6.523,-3.784l4.573,2.675l0,7.438l-4.573,8.05l-6.523,3.705l-4.621,-2.624l0,-7.568Z" style="fill:#745853;fill-rule:nonzero;"/><path d="M3199.089,1276.939l6.523,-3.784l-204.661,-118.105l-6.456,3.753l203.726,118.251l0.868,-0.114Z" style="fill:#f7e577;fill-rule:nonzero;"/><path d="M3194.468,1284.831l4.621,-7.892l-204.594,-118.137l-4.641,7.892l203.809,118.586l0.805,-0.45Z" style="fill:#dfb95c;fill-rule:nonzero;"/><path d="M3194.468,1292.399l0,-7.568l-204.614,-118.137l0,7.568l204.614,118.137Z" style="fill:#c8904a;fill-rule:nonzero;"/><path d="M3221.684,1300.611l4.589,-8.003l6.491,-3.8l4.558,2.719l0,7.537l-4.558,7.892l-6.491,3.717l-4.589,-2.608l0,-7.454Z" style="fill:#d4cdc3;fill-rule:nonzero;"/><path d="M3226.273,1292.608l6.491,-3.8l-27.153,-15.654l-6.523,3.654l26.316,15.93l0.868,-0.13Z" style="fill:#e2ddd9;fill-rule:nonzero;"/><path d="M3221.684,1300.611l4.589,-8.003l-27.184,-15.8l-4.621,8.022l26.375,16.104l0.84,-0.324Z" style="fill:#cdcdcd;fill-rule:nonzero;"/><path d="M3221.684,1308.065l0,-7.454l-27.216,-15.78l0,7.568l27.216,15.666Z" style="fill:#9f9891;fill-rule:nonzero;"/><path d="M3235.436,1308.085l4.266,-7.312l5.959,-3.429l4.254,2.447l0,6.858l-4.254,7.328l-5.959,3.48l-4.266,-2.435l0,-6.937Z" style="fill:#be685c;fill-rule:nonzero;"/><path d="M3239.701,1300.773l5.959,-3.429l-12.525,-7.213l-5.962,3.477l11.728,7.296l0.801,-0.13Z" style="fill:#f8a18d;fill-rule:nonzero;"/><path d="M3235.436,1308.085l4.266,-7.312l-12.529,-7.166l-4.203,7.328l11.739,7.486l0.726,-0.335Z" style="fill:#d1786e;fill-rule:nonzero;"/><path d="M3235.436,1315.022l0,-6.937l-12.466,-7.15l0,6.842l12.466,7.245Z" style="fill:#a2475b;fill-rule:nonzero;"/><path d="M3175.677,1263.443l6.472,-3.816l-9.92,-5.734l-6.539,3.69l9.147,5.959l0.84,-0.099Z" style="fill:#f65a51;fill-rule:nonzero;"/><path d="M3171.151,1271.367l4.526,-7.924l-9.987,-5.86l-4.621,8.034l9.23,6.152l0.852,-0.402Z" style="fill:#c43f2f;fill-rule:nonzero;"/><path d="M3171.151,1278.856l0,-7.49l-10.082,-5.749l0,7.442l10.082,5.797Z" style="fill:#861b13;fill-rule:nonzero;"/><path d="M3511.078,1601.358l-150.987,-87.168l559.986,-323.516l150.904,87.136l-559.904,323.548Z" style="fill:#b2b2b2;fill-rule:nonzero;"/><path d="M3511.078,1583.277l-0.047,14.912l-145.301,-83.916l0,-14.944l145.348,83.948Z" style="fill:#d4cdc3;fill-rule:nonzero;"/><path d="M4065.379,1262.946l0,14.865l-554.347,320.379l0.047,-14.912l554.3,-320.332Z" style="fill:#9f9891;fill-rule:nonzero;"/><path d="M4065.379,1262.946l-145.301,-83.885l-554.347,320.268l145.348,83.948l554.3,-320.332Z" style="fill:#e2ddd9;fill-rule:nonzero;"/><path d="M3444.86,1427.038l-12.911,-7.407l0,118.152l12.911,7.458l0,-118.204Z" style="fill:#d4cdc3;fill-rule:nonzero;"/><path d="M3999.144,1106.691l-12.868,-7.371l-554.328,320.312l12.911,7.407l554.284,-320.347Z" style="fill:#d4cdc3;fill-rule:nonzero;"/><path d="M3999.144,1106.691l0,118.152l-554.284,320.399l0,-118.204l554.284,-320.347Z" style="fill:#9f9891;fill-rule:nonzero;"/><path d="M3511.078,1450.375l-0.047,14.892l-145.301,-83.912l0,-14.944l145.348,83.964Z" style="fill:#d4cdc3;fill-rule:nonzero;"/><path d="M4065.379,1130.059l0,14.849l-554.347,320.359l0.047,-14.892l554.3,-320.316Z" style="fill:#9f9891;fill-rule:nonzero;"/><path d="M4065.379,1130.059l-145.301,-83.916l-554.347,320.268l145.348,83.964l554.3,-320.316Z" style="fill:#e2ddd9;fill-rule:nonzero;"/><path d="M3280.137,962.356l-0.047,4.652l-45.103,-26.036l0,-4.656l45.151,26.04Z" style="fill:#d5ba90;fill-rule:nonzero;"/><path d="M3708.345,715.023l-0.032,4.609l-428.224,247.377l0.047,-4.652l428.208,-247.334Z" style="fill:#a88552;fill-rule:nonzero;"/><path d="M3708.345,715.023l-45.119,-26.02l-428.24,247.314l45.151,26.04l428.208,-247.334Z" style="fill:#ebcba0;fill-rule:nonzero;"/><path d="M3248.659,928.413l16.36,9.451l2.687,-1.547l-16.392,-9.435l-2.656,1.531Z" style="fill:#7f6a66;fill-rule:nonzero;"/><path d="M3275.259,913.051l16.376,9.451l2.691,-1.531l-16.344,-9.451l-2.723,1.531Z" style="fill:#7f6a66;fill-rule:nonzero;"/><path d="M3301.879,897.701l16.376,9.423l2.675,-1.547l-16.344,-9.435l-2.707,1.559Z" style="fill:#7f6a66;fill-rule:nonzero;"/><path d="M3328.531,882.307l16.376,9.455l2.64,-1.531l-16.344,-9.455l-2.671,1.531Z" style="fill:#7f6a66;fill-rule:nonzero;"/><path d="M3355.151,866.961l16.36,9.419l2.64,-1.547l-16.329,-9.419l-2.671,1.547Z" style="fill:#7f6a66;fill-rule:nonzero;"/><path d="M3381.767,851.567l16.345,9.435l2.66,-1.531l-16.329,-9.451l-2.675,1.547Z" style="fill:#7f6a66;fill-rule:nonzero;"/><path d="M3408.402,836.186l16.345,9.47l2.675,-1.547l-16.36,-9.451l-2.66,1.527Z" style="fill:#7f6a66;fill-rule:nonzero;"/><path d="M3435.007,820.84l16.36,9.423l2.671,-1.531l-16.329,-9.439l-2.703,1.547Z" style="fill:#7f6a66;fill-rule:nonzero;"/><path d="M3461.658,805.462l16.36,9.451l2.675,-1.547l-16.364,-9.451l-2.671,1.547Z" style="fill:#7f6a66;fill-rule:nonzero;"/><path d="M3488.274,790.08l16.364,9.47l2.656,-1.563l-16.36,-9.419l-2.66,1.511Z" style="fill:#7f6a66;fill-rule:nonzero;"/><path d="M3514.878,774.703l16.38,9.455l2.64,-1.531l-16.313,-9.435l-2.707,1.511Z" style="fill:#7f6a66;fill-rule:nonzero;"/><path d="M3541.514,759.341l16.396,9.471l2.64,-1.579l-16.376,-9.403l-2.66,1.511Z" style="fill:#7f6a66;fill-rule:nonzero;"/><path d="M3568.134,743.963l16.376,9.466l2.66,-1.559l-16.38,-9.439l-2.656,1.531Z" style="fill:#7f6a66;fill-rule:nonzero;"/><path d="M3594.738,728.597l16.36,9.486l2.671,-1.563l-16.344,-9.451l-2.687,1.527Z" style="fill:#7f6a66;fill-rule:nonzero;"/><path d="M3621.37,713.255l16.396,9.419l2.656,-1.547l-16.376,-9.439l-2.675,1.567Z" style="fill:#7f6a66;fill-rule:nonzero;"/><path d="M3650.666,696.326l-2.675,1.531l16.376,9.47l2.675,-1.547l-16.376,-9.455Z" style="fill:#7f6a66;fill-rule:nonzero;"/><path d="M3263.729,1407.15l-4.155,-2.399l-8.306,-4.798l-1.275,0.193l-4.526,-2.64l-231.972,-133.676l-26.233,-26.004l45.395,14.813l232.023,133.771l4.589,2.675l-0.355,0.659l8.263,4.83l4.234,2.415l-2.174,4.704l-7.277,4.25l-8.231,1.207Z" style="fill:#b2b2b2;fill-rule:nonzero;"/><path d="M2997.667,1233.331l1.997,-2.289l-12.402,-3.236l10.406,5.524Z" style="fill:#7f6a66;fill-rule:nonzero;"/><path d="M2996.329,1236.728l1.03,-2.739l-10.098,-6.183l9.068,8.922Z" style="fill:#3c312e;fill-rule:nonzero;"/><path d="M2996.329,1234.475l1.16,0l0.178,-2.336l-10.406,-4.333l9.068,6.669Z" style="fill:#64534d;fill-rule:nonzero;"/><path d="M3017.378,1257.824l10.836,-8.196l0.257,-11.049l-11.495,-1.914l-19.308,-4.526l-1.338,2.336l14.525,12.979l6.523,10.37Z" style="fill:#ebc188;fill-rule:nonzero;"/><path d="M3017.378,1257.824l0,-7.6l-21.048,-15.749l0,2.253l21.048,21.095Z" style="fill:#c39a5a;fill-rule:nonzero;"/><path d="M3021.983,1242.367l6.487,-3.788l-28.806,-7.537l-1.997,1.097l24.316,10.228Z" style="fill:#f3e2b8;fill-rule:nonzero;"/><path d="M3221.992,1368.376l4.637,-7.892l6.507,-3.768l4.57,2.656l0,7.426l-4.57,8.066l-6.507,3.721l-4.637,-2.64l0,-7.568Z" style="fill:#745853;fill-rule:nonzero;"/><path d="M3226.628,1360.484l6.507,-3.768l-204.665,-118.137l-6.487,3.788l203.726,118.211l0.919,-0.095Z" style="fill:#9f9281;fill-rule:nonzero;"/><path d="M3221.992,1368.376l4.637,-7.892l-204.646,-118.117l-4.605,7.857l203.789,118.586l0.825,-0.434Z" style="fill:#6f6253;fill-rule:nonzero;"/><path d="M3221.992,1375.945l0,-7.568l-204.614,-118.152l0,7.6l204.614,118.121Z" style="fill:#5a4136;fill-rule:nonzero;"/><path d="M3249.204,1384.156l4.589,-7.987l6.507,-3.8l4.558,2.719l0,7.505l-4.558,7.924l-6.507,3.705l-4.589,-2.628l0,-7.438Z" style="fill:#d4cdc3;fill-rule:nonzero;"/><path d="M3253.793,1376.17l6.507,-3.8l-27.165,-15.654l-6.507,3.654l26.344,15.914l0.821,-0.114Z" style="fill:#e2ddd9;fill-rule:nonzero;"/><path d="M3249.204,1384.156l4.589,-7.987l-27.164,-15.8l-4.637,8.007l26.391,16.1l0.821,-0.32Z" style="fill:#cdcdcd;fill-rule:nonzero;"/><path d="M3249.204,1391.595l0,-7.438l-27.212,-15.78l0,7.568l27.212,15.65Z" style="fill:#9f9891;fill-rule:nonzero;"/><path d="M3262.955,1391.626l4.27,-7.292l5.974,-3.445l4.234,2.462l0,6.827l-4.234,7.344l-5.974,3.496l-4.27,-2.466l0,-6.925Z" style="fill:#be685c;fill-rule:nonzero;"/><path d="M3267.225,1384.334l5.974,-3.445l-12.529,-7.233l-5.99,3.496l11.739,7.292l0.805,-0.11Z" style="fill:#f8a18d;fill-rule:nonzero;"/><path d="M3262.955,1391.626l4.27,-7.292l-12.544,-7.182l-4.171,7.324l11.704,7.49l0.742,-0.339Z" style="fill:#d1786e;fill-rule:nonzero;"/><path d="M3262.955,1398.552l0,-6.925l-12.446,-7.15l0,6.846l12.446,7.229Z" style="fill:#a2475b;fill-rule:nonzero;"/><path d="M3203.197,1347.004l6.475,-3.832l-9.924,-5.734l-6.519,3.69l9.179,5.958l0.789,-0.083Z" style="fill:#f65a51;fill-rule:nonzero;"/><path d="M3198.655,1354.897l4.542,-7.892l-9.968,-5.876l-4.593,8.018l9.182,6.183l0.837,-0.434Z" style="fill:#c43f2f;fill-rule:nonzero;"/><path d="M3198.655,1362.414l0,-7.517l-10.019,-5.749l0,7.438l10.019,5.828Z" style="fill:#861b13;fill-rule:nonzero;"/><path d="M3841.33,1075.225l-14.241,-6.136l-0.004,-2.522l14.245,8.658Zm-22.828,-9.837l-19.17,-8.259l-7.083,1.981l-0.004,-17.311l-40.305,-23.282l-34.437,-41.276l68.203,39.35l23.029,27.606l0,10.335l-1.014,0.26l10.781,6.554l0,4.041Zm-34.851,-8.863l-20.381,-24.43l20.377,11.763l0.004,12.667Zm-9.159,-53.378l-68.274,-39.433l-49.621,-59.471l68.27,39.417l49.625,59.487Zm247.294,-32.093l-6.693,-3.658l1.077,-0.62l5.615,4.278Zm-14.415,-7.88l-24.059,-13.152l-5.493,6.606l-15.54,-8.973l-6.266,3.622l-24.201,-6.732l30.16,-17.406l25.819,7.182l0,10.343l-0.257,0.288l22.153,16.885l-2.316,1.338Zm-99.973,-25.416l-24.418,-6.791l30.156,-17.414l24.414,6.791l-30.152,17.414Zm-196.544,-10.895l-63.606,-36.73l59.092,-34.11l182.394,50.742l-30.175,17.41l-156.654,-43.556l0,6.633l-16.262,9.388l25.211,30.223Zm-60.927,-26.47l-3.031,0l-22.773,-13.14l0,-14.683l59.49,-34.346l18.337,10.575l0,1.05l-69.79,40.285l17.765,10.26Zm-36.197,-49.756l-33.956,-19.604l0,-6.795l4.175,-7.198l5.876,-3.413l43.998,25.409l-20.093,11.601Z" style="fill:#1c4254;fill-rule:nonzero;"/><path d="M4015.094,967.396l-7.722,-4.222l2.316,-1.338l6.483,4.94l-1.077,0.62Zm-290.227,-23.735l-68.27,-39.417l-3.212,-3.851l-3.457,0l-17.765,-10.26l69.79,-40.285l0,4.956l4.388,1.219l-59.092,34.11l63.606,36.73l14.012,16.798Z" style="fill:#47626f;fill-rule:nonzero;"/><path d="M3624.125,872.568l0,-15.93l-10.394,-6.002l20.093,-11.601l3.603,2.08l9.471,-5.477l32.239,0l4.479,2.585l-59.49,34.346Z" style="fill:#47626f;fill-rule:nonzero;"/><path d="M3977.338,957.203l-21.324,-5.927l6.266,-3.622l15.54,8.973l-0.481,0.576Z" style="fill:#47626f;fill-rule:nonzero;"/><path d="M3931.813,944.544l-24.414,-6.787l30.152,-17.414l24.422,6.795l-30.16,17.406Z" style="fill:#47626f;fill-rule:nonzero;"/><path d="M3882.981,930.966l-24.422,-6.791l30.175,-17.41l24.402,6.787l-30.156,17.414Z" style="fill:#47626f;fill-rule:nonzero;"/><path d="M3827.089,1069.089l-8.587,-3.701l0,-4.041l8.583,5.221l0.004,2.522Zm-40.06,-8.516l-3.378,-4.049l-0.004,-12.667l-20.377,-11.763l-11.329,-13.578l40.305,23.282l0.004,17.311l-5.221,1.464Zm-1.322,-43.983l-68.203,-39.35l-11.286,-13.527l68.274,39.433l11.215,13.444Z" style="fill:#acacac;fill-rule:nonzero;"/><path d="M3628.394,849.89l4.151,-7.245l5.895,-3.382l4.155,2.399l0,6.795l-4.155,7.213l-5.895,3.429l-4.151,-2.431l0,-6.779Z" style="fill:#322826;fill-rule:nonzero;"/><path d="M3583.946,814.577l48.599,28.068l5.895,-3.382l-48.615,-28.088l-5.88,3.401Z" style="fill:#7f6a66;fill-rule:nonzero;"/><path d="M3579.775,821.806l48.619,28.084l4.151,-7.245l-48.599,-28.068l-4.171,7.229Z" style="fill:#64534d;fill-rule:nonzero;"/><path d="M3579.775,828.617l48.619,28.052l0,-6.779l-48.619,-28.084l0,6.811Z" style="fill:#50413d;fill-rule:nonzero;"/><path d="M3624.125,864.948l0,19.857l22.773,13.14l32.239,0l22.769,-13.14l0.047,-19.857l-22.816,-11.901l-32.239,0l-22.773,11.901Z" style="fill:#3c312e;fill-rule:nonzero;"/><path d="M3624.125,846.331l0,18.617l22.773,13.172l32.239,-0.016l22.769,-13.156l0.047,-18.617l-22.816,-13.156l-32.239,0.032l-22.773,13.124Z" style="fill:#534540;fill-rule:nonzero;"/><path d="M3669.102,847.219l-12.142,0l-8.551,4.944l0,7.004l8.551,4.96l12.142,0l8.567,-4.96l0,-7.004l-8.567,-4.944Z" style="fill:#3c312e;fill-rule:nonzero;"/><path d="M3649.344,882.788l0,10.354l137.685,164.98l21.707,-6.053l0,-10.323l-13.961,-4.475l-145.431,-154.483Z" style="fill:#9f9891;fill-rule:nonzero;"/><path d="M3676.157,882.788l-26.813,0l137.685,165l21.707,-6.041l-132.579,-158.958Z" style="fill:#d4cdc3;fill-rule:nonzero;"/><path d="M3841.33,1072.81l-39.646,-21.979l-7.588,-0.872l0,2.498l47.234,20.354Z" style="fill:#0a0808;fill-rule:nonzero;"/><path d="M3841.33,1072.81l-40.613,-24.702l-6.621,1.851l47.234,22.852Z" style="fill:#534540;fill-rule:nonzero;"/><path d="M3701.952,867.845l-0.047,10.323l275.433,76.589l10.453,-12.56l0,-10.323l-18.937,5.008l-192.342,-54.092l-74.56,-14.944Z" style="fill:#9f9891;fill-rule:nonzero;"/><path d="M3701.952,852.372l-0.047,15.472l275.433,76.573l10.453,-12.544l-285.839,-79.501Z" style="fill:#d4cdc3;fill-rule:nonzero;"/><path d="M4021.787,968.587l-40.581,-22.189l0,-2.462l3.204,-1.354l37.377,26.004Z" style="fill:#0a0808;fill-rule:nonzero;"/><path d="M4021.787,968.587l-40.581,-24.651l3.204,-3.836l37.377,28.486Z" style="fill:#534540;fill-rule:nonzero;"/></g></g></g></svg>