<?xml version="1.0" encoding="UTF-8" standalone="no"?><!DOCTYPE svg PUBLIC "-//W3C//DTD SVG 1.1//EN" "http://www.w3.org/Graphics/SVG/1.1/DTD/svg11.dtd"><svg width="100%" height="100%" viewBox="0 0 2084 2084" version="1.1" xmlns="http://www.w3.org/2000/svg" xmlns:xlink="http://www.w3.org/1999/xlink" xml:space="preserve" xmlns:serif="http://www.serif.com/" style="fill-rule:evenodd;clip-rule:evenodd;stroke-linejoin:round;stroke-miterlimit:2;"><g><rect x="0" y="-0" width="2083.333" height="2083.333" style="fill:#e91a1a;fill-opacity:0;"/><g><path d="M1070.694,790.759l118.794,552.469l-10.46,-6.082l-1.401,-2.082l-121.166,-546.488l14.232,2.183Z" style="fill:#e1dce1;fill-rule:nonzero;"/><path d="M1067.035,769.309l10.472,6.082l-29.449,16.996l-10.46,-6.082l29.437,-16.996Z" style="fill:#faf7fb;fill-rule:nonzero;"/><path d="M1027.908,785.951l0.77,-2.65l1.943,-3.015c0.921,-1.047 2.044,-1.968 3.344,-2.688l2.788,0.05l10.472,6.082l-102.731,696.636l-10.473,-6.082c-1.148,-0.669 -1.741,-2.271 -1.438,-4.454l95.325,-683.88Z" style="fill:#e6e2e7;fill-rule:nonzero;"/><path d="M1038.381,792.033c0.454,-3.167 2.624,-6.473 6.044,-8.353c2.852,-1.098 4.757,0.971 4.24,4.542l-0.606,4.164l29.449,-16.996l0.038,12.756l120.737,544.507c0.669,2.826 -1.123,7.078 -5.06,10.207c-2.397,1.388 -4.542,0.732 -5.123,-1.716l-121.178,-546.488l-20.806,12.012l-92.764,665.433c-0.454,3.167 -2.637,6.473 -6.056,8.34c-2.852,1.047 -4.757,-0.959 -4.239,-4.53l95.325,-683.88Z" style="fill:#beb9c4;fill-rule:nonzero;"/><path d="M1184.907,1294.6l2.612,-0.24l349.151,201.59l0,11.961l-354.374,-204.605c-0.656,-0.391 -1.047,-1.199 -1.047,-2.36c0,-2.334 1.64,-5.173 3.659,-6.346Z" style="fill:#e6e2e7;fill-rule:nonzero;"/><path d="M955.143,1427.26l2.612,-0.24l349.151,201.577l0,11.961l-354.374,-204.592c-0.656,-0.391 -1.047,-1.211 -1.047,-2.36c0,-2.334 1.64,-5.186 3.659,-6.346Z" style="fill:#e6e2e7;fill-rule:nonzero;"/><path d="M1454.694,597.245l-347.473,-201.791c41.221,31.152 6.902,205.778 -36.162,373.616l347.46,201.791c43.063,-167.837 77.383,-342.463 36.174,-373.616Z" style="fill:#e0dddd;fill-rule:nonzero;"/><path d="M1411.303,979.264c-0.353,1.35 -0.681,2.574 -1.022,3.899l-347.738,-200.756c12.756,-48.716 30.446,-119.538 43.265,-187.761c21.286,-113.292 21.576,-178.663 0.921,-194.296l347.46,201.791c20.655,15.633 20.365,81.017 -0.921,194.309c-12.39,65.901 -29.336,134.326 -41.966,182.815Z" style="fill:#f1eeee;fill-rule:nonzero;"/><path d="M1080.119,469.745l351.964,204.39l-78.468,562.878l-351.964,-204.391l78.468,-562.878Z" style="fill:#e6e2e7;fill-rule:nonzero;"/><path d="M1425.901,663.398l-339.94,-181.692l-76.26,547.005l338.085,196.328l78.115,-561.642Z" style="fill:#fff;fill-rule:nonzero;"/><path d="M1080.006,428.12l0.391,-1.312l1.009,-1.564l1.678,-1.35l16.554,-6.183l1.426,0.05l351.964,204.391l-25.21,52.653l-351.964,-204.403c-0.972,-0.568 -1.451,-1.905 -1.199,-3.722l5.35,-38.559Z" style="fill:#4f4642;fill-rule:nonzero;"/><path d="M1355.382,565.461l90.644,52.653l-1.426,-0.051l-16.554,6.183c-1.691,0.934 -2.826,2.612 -3.079,4.227l-5.35,38.559c-0.252,1.804 0.391,2.852 1.35,3.419l-65.586,-37.701l0,-67.289Z" style="fill:#352d2a;fill-rule:nonzero;"/><path d="M1432.197,673.328l2.385,-7.633l13.122,2.044l-78.531,563.459l-15.557,5.817l78.582,-563.686Z" style="fill:#beb9c4;fill-rule:nonzero;"/><path d="M1426.62,671.07l5.35,-38.559c0.252,-1.615 1.375,-3.293 3.079,-4.227l16.554,-6.17c1.476,-0.53 2.423,0.505 2.145,2.309l-6.119,43.884l-17.513,6.548c-2.372,0.846 -3.911,-0.845 -3.495,-3.785Z" style="fill:#352d2a;fill-rule:nonzero;"/><path d="M1421.169,670.943l-8.252,-4.795l-339.221,-196.996c-2.473,1.905 -4.24,3.217 -5.918,4.189c-3.495,2.007 0.252,4.479 0,4.328l337.492,198.41l0.808,0.404c2.599,1.161 5.678,0.669 9.16,-1.35c1.678,-0.959 3.445,-2.284 5.93,-4.189Z" style="fill:#e0dddd;fill-rule:nonzero;"/><path d="M1062.783,471.827c2.334,0.946 5.085,0.454 8.164,-1.325l328.609,187.824l21.689,12.617l-2.839,1.35c-3.079,1.779 -5.829,2.284 -8.163,1.338l-0.719,-0.366l-347.473,-201.804l0.732,0.366Z" style="fill:#f1eeee;fill-rule:nonzero;"/><path d="M1056.802,446.075c0.606,-4.353 2.082,-9.135 4.214,-13.93c3.129,-7.091 7.659,-14.232 12.857,-20.15c1.729,-1.968 3.52,-3.798 5.375,-5.45c2.46,-2.196 4.908,-4 7.306,-5.388c7.104,-4.088 13.778,-4.58 19.38,-1.325l347.46,201.791c-5.602,-3.255 -12.277,-2.763 -19.38,1.337c-2.397,1.388 -4.845,3.18 -7.305,5.388c-1.855,1.653 -3.646,3.482 -5.375,5.438c-5.198,5.93 -9.728,13.059 -12.857,20.15c-2.12,4.794 -3.609,9.576 -4.214,13.942c-1.388,10.157 -0.063,22.257 6.082,25.816l-347.46,-201.791c-6.145,-3.571 -7.47,-15.671 -6.082,-25.828Z" style="fill:#f5f4f4;fill-rule:nonzero;"/><path d="M1232.765,943.91l15.255,8.744l-0.694,4.959l-15.255,-8.744l0.694,-4.959Zm18.283,-10.788l7.987,4.58l-0.694,4.959l-7.987,-4.58l0.694,-4.959Zm-15.355,-8.782l9.286,5.312l-0.707,4.959l-9.286,-5.325l0.707,-4.946Zm63.289,41.587l-6.712,-3.836l0.694,-4.971l8.87,5.072l12.58,7.204l-0.694,4.971l-14.737,-8.441Zm25.954,14.851l-5.148,-2.94l0.694,-4.971l5.148,2.952l6.75,3.861l-0.694,4.971l-6.75,-3.874Zm-12.151,14.346l-8.908,-5.11l0.694,-4.959l15.343,8.782l9.867,5.653l-0.694,4.971l-16.302,-9.337Zm-14.283,-13.551l-16.567,-9.489l-0.694,4.959l16.567,9.488l0.694,-4.958Z" style="fill:#748e9d;fill-rule:nonzero;"/><path d="M1371.179,859.928l1.905,1.085l2.359,-16.87l-1.905,-1.085l-2.359,16.87Z" style="fill:#748e9d;fill-rule:nonzero;"/><path d="M1368.201,881.277l1.905,1.085l2.359,-16.87l-1.905,-1.085l-2.359,16.87Z" style="fill:#748e9d;fill-rule:nonzero;"/><path d="M1365.211,902.625l1.905,1.085l2.359,-16.882l-1.905,-1.085l-2.359,16.882Z" style="fill:#748e9d;fill-rule:nonzero;"/><path d="M1362.233,923.974l1.905,1.085l2.359,-16.882l-1.905,-1.085l-2.359,16.882Z" style="fill:#748e9d;fill-rule:nonzero;"/><path d="M1359.256,945.31l1.905,1.098l2.359,-16.882l-1.905,-1.085l-2.359,16.87Z" style="fill:#748e9d;fill-rule:nonzero;"/><path d="M1356.265,966.659l1.905,1.098l2.359,-16.882l-1.905,-1.085l-2.359,16.87Z" style="fill:#748e9d;fill-rule:nonzero;"/><path d="M1256.94,792.374l110.34,62.772l1.691,-12.113l-110.34,-62.734l-1.691,12.075Z" style="fill:#2f5ba8;fill-rule:nonzero;"/><path d="M1267.501,821.369l96.801,55.113l1.691,-12.113l-96.801,-55.088l-1.691,12.088Z" style="fill:#a6cc0a;fill-rule:nonzero;"/><path d="M1325.807,877.592l35.506,20.238l1.703,-12.113l-35.518,-20.226l-1.691,12.1Z" style="fill:#0094ef;fill-rule:nonzero;"/><path d="M1284.182,876.873l74.153,42.306l1.691,-12.113l-74.14,-42.281l-1.703,12.088Z" style="fill:#0094ef;fill-rule:nonzero;"/><path d="M1286.907,901.427l68.45,39.089l1.691,-12.113l-68.45,-39.064l-1.691,12.088Z" style="fill:#ea4040;fill-rule:nonzero;"/><path d="M1300.912,932.453l51.454,29.411l1.691,-12.113l-51.441,-29.399l-1.703,12.1Z" style="fill:#f2a532;fill-rule:nonzero;"/><path d="M1314.564,864.596c-0.29,2.082 0.795,4.53 2.435,5.464c1.628,0.934 3.192,0 3.482,-2.082c0.29,-2.094 -0.795,-4.529 -2.435,-5.463c-1.628,-0.934 -3.192,0 -3.482,2.082Z" style="fill:#0094ef;fill-rule:nonzero;"/><path d="M1272.649,863.751c-0.29,2.082 0.795,4.517 2.435,5.451c1.628,0.934 3.192,0 3.482,-2.082c0.29,-2.082 -0.795,-4.517 -2.423,-5.451c-1.64,-0.934 -3.205,0 -3.495,2.082Z" style="fill:#0094ef;fill-rule:nonzero;"/><path d="M1275.362,888.645c-0.29,2.082 0.808,4.53 2.435,5.464c1.64,0.934 3.192,0 3.482,-2.082c0.303,-2.082 -0.795,-4.53 -2.423,-5.464c-1.64,-0.933 -3.192,0 -3.495,2.082Z" style="fill:#ea4040;fill-rule:nonzero;"/><path d="M1246.354,779.933c-0.29,2.082 0.795,4.517 2.435,5.451c1.628,0.921 3.192,0 3.482,-2.082c0.29,-2.082 -0.795,-4.517 -2.423,-5.451c-1.64,-0.933 -3.192,0 -3.495,2.082Z" style="fill:#2f5ba8;fill-rule:nonzero;"/><path d="M1289.784,919.823c-0.29,2.082 0.795,4.53 2.435,5.463c1.628,0.934 3.192,0 3.482,-2.082c0.29,-2.082 -0.795,-4.53 -2.435,-5.464c-1.628,-0.934 -3.192,0 -3.482,2.082Z" style="fill:#f2a532;fill-rule:nonzero;"/><path d="M1256.272,808.31c-0.29,2.082 0.795,4.517 2.435,5.451c1.628,0.921 3.192,-0.013 3.482,-2.082c0.29,-2.082 -0.795,-4.529 -2.435,-5.45c-1.628,-0.934 -3.192,0 -3.482,2.082Z" style="fill:#a6cc0a;fill-rule:nonzero;"/><path d="M1367.028,798.721l6.637,3.772l11.659,-83.414l-6.637,-3.747l-11.659,83.389Z" style="fill:#748e9d;fill-rule:nonzero;"/><path d="M1360.088,794.784l7.104,4.038l10.132,-72.513l-7.104,-4.012l-10.132,72.487Z" style="fill:#a6cc0a;fill-rule:nonzero;"/><path d="M1340.569,783.706l6.624,3.76l10.902,-77.9l-6.624,-3.747l-10.901,77.888Z" style="fill:#748e9d;fill-rule:nonzero;"/><path d="M1333.617,779.756l7.104,4.038l12.087,-86.354l-7.104,-4.012l-12.088,86.329Z" style="fill:#a6cc0a;fill-rule:nonzero;"/><path d="M1313.984,768.628l6.637,3.76l14.51,-103.627l-6.624,-3.747l-14.523,103.615Z" style="fill:#748e9d;fill-rule:nonzero;"/><path d="M1307.044,764.679l7.104,4.037l6.019,-43l-7.104,-4.025l-6.019,42.988Z" style="fill:#a6cc0a;fill-rule:nonzero;"/><path d="M1287.5,753.588l6.624,3.76l13.16,-93.785l-6.637,-3.747l-13.147,93.773Z" style="fill:#748e9d;fill-rule:nonzero;"/><path d="M1280.548,749.639l7.104,4.038l11.797,-84.108l-7.104,-4.025l-11.797,84.096Z" style="fill:#a6cc0a;fill-rule:nonzero;"/><path d="M1207.896,708.417l6.637,3.76l13.463,-95.691l-6.624,-3.747l-13.475,95.678Z" style="fill:#748e9d;fill-rule:nonzero;"/><path d="M1200.944,704.468l7.116,4.037l7.406,-52.615l-7.116,-4.012l-7.406,52.59Z" style="fill:#a6cc0a;fill-rule:nonzero;"/><path d="M1181.362,693.365l6.637,3.76l10.334,-73.346l-6.624,-3.747l-10.346,73.333Z" style="fill:#748e9d;fill-rule:nonzero;"/><path d="M1174.422,689.415l7.104,4.038l8.126,-57.687l-7.104,-4.025l-8.126,57.674Z" style="fill:#a6cc0a;fill-rule:nonzero;"/><path d="M1154.84,678.299l6.624,3.773l17.475,-123.828l-6.637,-3.735l-17.463,123.79Z" style="fill:#748e9d;fill-rule:nonzero;"/><path d="M1147.888,674.363l7.104,4.025l14.964,-106.05l-7.104,-4.012l-14.964,106.037Z" style="fill:#a6cc0a;fill-rule:nonzero;"/><path d="M1128.305,663.247l6.624,3.76l15.57,-110.201l-6.637,-3.747l-15.557,110.188Z" style="fill:#748e9d;fill-rule:nonzero;"/><path d="M1121.353,659.31l7.104,4.025l13.236,-93.66l-7.104,-4.012l-13.236,93.647Z" style="fill:#a6cc0a;fill-rule:nonzero;"/><path d="M1101.771,648.194l6.637,3.76l10.384,-73.484l-6.624,-3.747l-10.397,73.472Z" style="fill:#748e9d;fill-rule:nonzero;"/><path d="M1094.819,644.245l7.104,4.038l12.176,-86.089l-7.104,-4.012l-12.176,86.064Z" style="fill:#a6cc0a;fill-rule:nonzero;"/><path d="M1260.978,738.535l6.624,3.773l2.877,-20.428l-6.637,-3.76l-2.864,20.415Z" style="fill:#748e9d;fill-rule:nonzero;"/><path d="M1254.026,734.599l7.104,4.025l7.192,-51.176l-7.104,-4.025l-7.192,51.176Z" style="fill:#a6cc0a;fill-rule:nonzero;"/><path d="M1234.469,723.495l6.637,3.76l2.864,-20.403l-6.637,-3.76l-2.864,20.403Z" style="fill:#748e9d;fill-rule:nonzero;"/><path d="M1227.517,719.558l7.104,4.025l1.287,-9.148l-7.104,-4.037l-1.287,9.16Z" style="fill:#a6cc0a;fill-rule:nonzero;"/><path d="M1086.541,647.159l295.135,167.548l1.072,-7.671l-295.135,-167.485l-1.072,7.608Z" style="fill:#748e9d;fill-rule:nonzero;"/><path d="M1349.313,993.459c-0.341,2.435 0.934,5.3 2.839,6.397c1.918,1.085 3.735,0 4.075,-2.435c0.341,-2.448 -0.934,-5.312 -2.839,-6.397c-1.905,-1.098 -3.735,0 -4.075,2.435Z" style="fill:#748e9d;fill-rule:nonzero;"/><path d="M1346.31,1014.971c-0.341,2.448 0.934,5.312 2.839,6.397c1.905,1.098 3.735,0.013 4.075,-2.423c0.341,-2.448 -0.934,-5.312 -2.839,-6.41c-1.918,-1.085 -3.735,0 -4.075,2.435Z" style="fill:#748e9d;fill-rule:nonzero;"/><path d="M1149.515,808.915l-40.527,-91.401c-36.439,11.154 -47.833,61.056 -25.449,111.538l65.977,-20.138Z" style="fill:#2f5ba8;fill-rule:nonzero;"/><path d="M1149.515,808.915l5.981,-85.887c-17.046,-8.226 -31.935,-9.993 -46.508,-5.514l40.527,91.401Z" style="fill:#0094ef;fill-rule:nonzero;"/><path d="M1149.515,808.915l40.553,91.59c36.427,-11.179 47.808,-61.321 25.412,-111.892l-65.964,20.302Z" style="fill:#ea4040;fill-rule:nonzero;"/><path d="M1149.515,808.915l-65.977,20.138c22.383,50.546 70.09,82.581 106.529,71.453l-40.553,-91.59Z" style="fill:#a6cc0a;fill-rule:nonzero;"/><path d="M1149.515,808.915l65.964,-20.302c-13.425,-30.32 -34.395,-53.245 -59.983,-65.586l-5.981,85.887Z" style="fill:#f2a532;fill-rule:nonzero;"/><path d="M1339.396,1109.577l-0.808,5.728l-10.826,-6.233l0.808,-5.716l10.826,6.221Zm2.637,-16.819l-14.195,-8.151l0.795,-5.716l14.195,8.151l-0.795,5.716Zm3.47,-22.51l-8.428,-4.845l0.808,-5.716l8.428,4.832l-0.808,5.728Zm-9.943,67.819l-13.804,-7.936l0.808,-5.728l13.791,7.949l-0.795,5.716Zm-264.374,-182.815l-0.807,5.678l-16.239,-9.35l0.808,-5.665l16.239,9.337Zm-12.782,-31.708l12.87,7.407l-0.808,5.678l-12.87,-7.407l0.807,-5.678Zm3.482,-22.333l18.636,10.7l-0.795,5.678l-18.636,-10.712l0.795,-5.665Zm-9.993,67.289l13.274,7.646l-0.808,5.678l-13.274,-7.646l0.807,-5.678Zm67.958,20.907l-33.966,-19.557l0.795,-5.678l33.979,19.545l-0.808,5.69Zm12.983,1.325l13.072,7.52l-0.795,5.69l-13.072,-7.52l0.795,-5.69Zm-42.698,-48.943l30.61,17.589l-0.808,5.69l-30.61,-17.601l0.807,-5.678Zm34.307,-4.668l16.037,9.223l-0.795,5.678l-16.049,-9.211l0.807,-5.69Zm-30.824,-17.69l18.636,10.7l-0.795,5.678l-18.636,-10.7l0.795,-5.678Zm-9.993,67.352l31.014,17.866l-0.807,5.678l-31.001,-17.867l0.795,-5.678Zm98.53,56.753l33.26,19.153l-0.807,5.703l-33.247,-19.166l0.795,-5.691Zm39.076,-44.678l-13.475,-7.735l0.807,-5.69l17.791,10.207l25.248,14.51l-0.795,5.703l-29.575,-16.996Zm83.654,48.06l-41.903,-24.074l0.795,-5.703l41.903,24.061l13.564,7.785l-0.795,5.716l-13.564,-7.798l0,0.013Zm-53.612,-6.334l-17.866,-10.271l0.808,-5.703l30.774,17.69l51.391,29.538l-0.795,5.716l-64.311,-36.969Zm19.633,29.588l42.571,24.503l-0.808,5.716l-42.571,-24.516l0.808,-5.703Zm-56.034,-26.08l0.795,-5.703l25.967,14.939l17.084,9.842l-0.795,5.703l-17.084,-9.842l-25.967,-14.939Zm43.505,43.354l51.795,29.827l-0.795,5.716l-61.334,-35.341l-21.248,-12.239l0.795,-5.703l30.787,17.728l0,0.013Zm-36.351,-69.838l-33.247,-19.116l-0.795,5.691l33.247,19.128l0.795,-5.703Z" style="fill:#748e9d;fill-rule:nonzero;"/><path d="M1333.036,1155.088l-0.808,5.716l-10.826,-6.246l0.808,-5.716l10.826,6.246Zm-268.235,-154.665l-0.808,5.665l-16.239,-9.362l0.807,-5.678l16.239,9.375Zm48.678,34.206l-33.979,-19.595l0.795,-5.678l33.979,19.595l-0.795,5.678Zm12.983,1.337l13.072,7.546l-0.807,5.69l-13.072,-7.545l0.808,-5.691Zm138.073,79.616l42.584,24.554l-0.808,5.716l-42.571,-24.554l0.795,-5.716Zm-56.034,-26.143l0.807,-5.703l25.954,14.977l17.097,9.854l-0.808,5.703l-17.084,-9.854l-25.967,-14.977Z" style="fill:#748e9d;fill-rule:nonzero;"/><path d="M1051.843,446.024c0.669,-4.832 2.309,-10.145 4.668,-15.494c3.47,-7.835 8.479,-15.747 14.233,-22.308c1.905,-2.157 3.886,-4.176 5.918,-5.993c2.738,-2.46 5.463,-4.454 8.126,-5.993c7.886,-4.555 15.28,-5.06 21.538,-1.438l347.46,201.804c-6.258,-3.634 -13.652,-3.117 -21.538,1.426c-2.662,1.539 -5.375,3.546 -8.126,6.006c-2.031,1.804 -4.012,3.823 -5.905,5.981c-5.754,6.561 -10.775,14.472 -14.245,22.32c-2.359,5.337 -4,10.649 -4.656,15.482c-1.615,11.28 -0.114,24.731 6.662,28.667l-347.46,-201.804c-6.776,-3.937 -8.277,-17.374 -6.675,-28.654Z" style="fill:#e5e5e5;fill-rule:nonzero;"/><path d="M1434.771,1000.953l118.794,552.469l-10.46,-6.082l-1.401,-2.069l-121.166,-546.501l14.233,2.183Z" style="fill:#e1dce1;fill-rule:nonzero;"/><path d="M1431.112,979.516l10.473,6.082l-29.437,16.996l-10.473,-6.082l29.437,-16.996Z" style="fill:#faf7fb;fill-rule:nonzero;"/><path d="M1391.985,996.159l0.77,-2.662l1.943,-3.015c0.921,-1.047 2.044,-1.968 3.344,-2.675l2.801,0.05l10.46,6.082l-102.731,696.636l-10.46,-6.082c-1.161,-0.682 -1.754,-2.284 -1.438,-4.467l95.312,-683.867Z" style="fill:#e6e2e7;fill-rule:nonzero;"/><path d="M1402.458,1002.241c0.454,-3.167 2.624,-6.473 6.056,-8.353c2.839,-1.098 4.744,0.971 4.24,4.542l-0.606,4.164l29.437,-16.996l0.038,12.743l120.737,544.507c0.681,2.826 -1.123,7.091 -5.06,10.208c-2.397,1.388 -4.542,0.744 -5.123,-1.703l-121.178,-546.501l-20.806,12.024l-92.764,665.42c-0.454,3.167 -2.637,6.473 -6.056,8.353c-2.839,1.047 -4.744,-0.972 -4.24,-4.542l95.325,-683.867Z" style="fill:#beb9c4;fill-rule:nonzero;"/><path d="M773.022,1350.394l106.706,56.98c0.353,1.868 0.934,4.782 0.934,4.782c2.069,22.144 -32.641,39.972 -60.248,13.148c-34.988,-38.256 -44.426,-47.631 -47.101,-61.548c-0.442,-2.309 -0.479,-7.482 -0.29,-13.362Z" style="fill:#ef9a33;fill-rule:nonzero;"/><path d="M829.031,1348.451c23.62,23.632 48.464,43.404 50.546,55.378c3.836,22.144 -32.111,38.319 -59.163,12.504c-34.988,-38.243 -44.426,-47.631 -47.101,-61.535c-1.148,-6.018 -0.303,-23.443 -0.303,-23.443c3.596,-3.117 49.359,1.527 49.359,1.527c0,0 -1.842,7.066 6.662,15.57Z" style="fill:#191619;fill-rule:nonzero;"/><path d="M521.72,1366.027c0,0 130.603,-33.701 130.654,-35.253l0,11.015c-0.05,1.539 -0.833,2.965 -2.107,3.836c-11.444,7.823 -67.276,44.237 -84.133,52.35c-19.999,9.627 -50.937,-6.523 -44.413,-31.948Z" style="fill:#ef9a33;fill-rule:nonzero;"/><path d="M652.374,1332.73c-0.05,1.552 -0.833,2.978 -2.107,3.848c-11.444,7.81 -69.8,45.095 -86.657,53.22c-23.961,11.532 -59.491,-18.939 -32.515,-37.083c19.015,-12.807 61.624,-40.616 62.078,-41.272c0.58,-0.833 0.555,-9.791 0.543,-13.21c0,-0.606 56.867,0.177 59.567,8.845l-0.908,25.652Z" style="fill:#191619;fill-rule:nonzero;"/><rect x="676.108" y="874.93" width="47.126" height="68.008" style="fill:#efefed;fill-rule:nonzero;"/><path d="M589.829,1079.939c-1.678,-73.989 -8.05,-103.337 -1.501,-160.986l41.082,-10.914c81.13,10.46 86.064,4.744 128.307,2.422l44.918,16.718c10.296,37.474 12.365,152.886 11.141,195.634c-0.265,9.514 0.341,18.875 1.83,28.276c2.12,13.274 5.426,38.584 8.933,82.922c1.3,16.415 2.725,101.167 2.725,101.167c2.738,17.122 -53.7,21.109 -58.684,8.113c-10.674,-59.744 -25.979,-130.44 -36.439,-189.54c-10.763,-60.829 -27.393,-110.1 -34.761,-155.498c-16.352,88.183 -36.313,270.077 -39.493,314.604c-0.114,1.653 -0.568,3.255 -1.678,4.492c-12.983,14.333 -65.8,9.74 -65.8,-8.719c0,-71.276 -3.596,-100.599 -3.596,-146.022c0,-27.923 3.899,-44.06 3.016,-82.67Z" style="fill:#231b23;fill-rule:nonzero;"/><path d="M838.823,649.557c5.842,35.594 14.46,82.746 23.241,114.996c1.35,4.959 3.571,9.614 6.435,13.879l62.532,93.117c10.157,12.92 -35.077,42.445 -44.186,30.168c-24.503,-36.843 -60.589,-82.884 -74.569,-100.473c-4.214,-5.287 -7.23,-11.381 -8.958,-17.917c-3.533,-13.362 -8.668,-35.354 -14.333,-57.776c-0.517,38.054 -15.885,71.1 21.21,209.412c4.618,18.485 -46.079,28.276 -94.581,29.6c-3.621,0.089 -6.712,-2.637 -7.129,-6.233l-8.428,-71.806l-8.479,73.32c-0.303,2.625 -2.523,4.618 -5.173,4.504c-45.36,-1.88 -105.949,-15.153 -104.006,-33.512c6.132,-57.813 32.339,-120.421 18.106,-172.216c-10.409,-37.827 -23.771,-112.005 -27.052,-130.477c-0.644,-3.71 -0.467,-7.507 0.883,-11.028c5.539,-14.384 23.998,-28.188 48.3,-38.294c25.285,-10.523 52.918,-14.523 80.285,-13.324c27.632,1.199 82.203,8.088 114.731,31.594c16.378,11.823 17.551,30.332 21.172,52.463Z" style="fill:#281e28;fill-rule:nonzero;"/><path d="M620.666,789.825c0,0 78.645,57.031 98.416,68.462c9.993,5.779 -17.993,51.076 -28.061,44.994c0,0 -130.187,-75.894 -135.979,-92.095c-4.164,-11.608 5.653,-173.566 18.85,-195.154c16.062,-26.257 63.882,-14.157 57.939,61.346c-2.877,36.591 -11.166,112.447 -11.166,112.447Z" style="fill:url(#_Linear1);"/><path d="M764.077,606.556c-15.027,72.866 -48.451,126.919 -65.384,183.269c-11.936,-43.694 -76.374,-183.887 -48.174,-220.251c6.397,-8.239 17.513,-8.441 27.935,-8.643c10.422,-0.189 52.842,0.845 62.898,4.353c19.355,6.763 26.547,22.699 22.724,41.272Z" style="fill:#352835;fill-rule:nonzero;"/><path d="M747.245,603.844c-10.801,68.538 -36.843,115.727 -49.006,168.721c-8.58,-41.095 -52.855,-169.301 -32.591,-203.507c4.593,-7.747 12.592,-7.937 20.074,-8.126c7.482,-0.189 37.966,0.795 45.196,4.101c13.904,6.359 19.078,21.349 16.327,38.811Z" style="fill:#efefed;fill-rule:nonzero;"/><path d="M712.749,633.886c-7.369,9.652 -23.431,10.737 -29.26,-3.861c-1.211,-3.028 -2.46,-6.334 -1.388,-9.413c2.359,-6.725 16.857,-12.264 30.03,-4.858c11.116,6.258 8.757,7.457 0.618,18.131Z" style="fill:#2f5ba8;fill-rule:nonzero;"/><path d="M737.063,602.746c0.908,-4.769 1.489,-36.225 3.381,-48.855l-2.776,-2.75l-1.3,-2.309c-6.46,-8.365 -16.302,-13.816 -26.673,-15.898c-10.359,-2.095 -21.21,-0.997 -31.329,2.094c-1.211,0.379 -2.448,0.795 -3.382,1.64c-1.804,1.628 -2.019,4.34 -2.082,6.763c-0.543,19.368 -2.826,40.616 -2.574,59.983c0.202,16.415 61.964,24.339 66.734,-0.669Z" style="fill:#f2a883;fill-rule:nonzero;"/><path d="M738.804,569.612c5.11,6.057 8.138,12.517 7.861,20.529c-0.921,26.068 -12.807,53.132 -12.807,53.132l-35.632,-24.97c51.126,-3.091 40.578,-48.691 40.578,-48.691Z" style="fill:#fff;fill-rule:nonzero;"/><path d="M698.226,618.303l-39.367,17.16c0,0 -1.375,-47.467 12.958,-70.179c0,0 -14.99,46.962 26.408,53.019Z" style="fill:#fff;fill-rule:nonzero;"/><path d="M751.522,547.708c-1.59,4.252 -5.602,6.221 -7.646,10.271c-2.082,4.114 -4.378,8.126 -6.902,11.987c-14.182,21.702 -46.268,35.026 -55.504,36.893c-11.633,2.335 -25.26,1.035 -26.598,-10.7c-2.624,-23.027 -9.35,-84.84 -5.754,-106.744c5.123,-31.178 120.434,3.71 108.435,42.445c-1.981,6.372 -3.697,9.615 -6.031,15.848Z" style="fill:#fbbd9e;fill-rule:nonzero;"/><path d="M695.009,438.366c28.011,-2.561 104.447,18.838 64.236,103.261c-6.788,11.633 -15.368,16.352 -15.368,16.352c0,0 6.599,-12.668 8.58,-18.283c5.287,-14.964 -10.195,-16.693 -16.075,-5.388c-2.549,4.921 -3.722,9.375 -9.753,8.592c-4.189,-0.543 -4.719,-7.419 -4.429,-13.059c0.328,-6.372 -1.867,-12.656 -6.536,-17.021c-17.235,-16.138 -54.179,-27.393 -66.544,-23.406c-3.545,-21.223 3.445,-47.177 45.89,-51.05Z" style="fill:#724a2f;fill-rule:nonzero;"/><path d="M694.971,634.126l7.835,3.621l12.933,77.648l-17.5,57.17l-16.15,-59.908l12.882,-78.531Z" style="fill:#2f5ba8;fill-rule:nonzero;"/><path d="M929.303,876.343c9.715,11.596 -28.667,39.102 -37.386,28.061c-7.255,-10.018 2.019,-20.314 14.27,-27.165c8.794,-4.908 18.712,-8 23.115,-0.896Z" style="fill:#fff;fill-rule:nonzero;"/><path d="M719.625,861.328l3.053,1.817c9.135,5.287 -16.44,46.697 -25.651,41.146l-2.687,-1.59c-7.015,-7.015 11.356,-47.682 25.285,-41.373Z" style="fill:#fff;fill-rule:nonzero;"/><path d="M769.78,907.963c7.722,9.4 -4.151,9.993 -11.469,3.546c-7.28,-6.422 -12.857,-16.832 -13.74,-16.453c-1.779,0.745 10.094,25.79 13.4,31.241c2.801,4.151 23.633,26.938 24.591,32.566c0.795,4.605 -3.583,5.867 -7.949,4.605l-0.492,3.092c-0.631,1.11 -1.729,1.905 -2.927,2.296c-2.195,0.745 -6.548,-0.114 -8.378,-1.527c-13.11,2.499 -31.165,-17.614 -35.96,-23.708c-2.536,-3.23 -16.933,-35.506 -22.144,-39.379c-4.29,-3.192 -7.772,-8.794 -0.479,-24.099c2.498,-5.262 8.858,-13.627 16.428,-10.801c13.488,5.035 27.102,5.236 37.007,15.822c3.634,3.886 7.116,16.706 12.113,22.8Z" style="fill:#fbbd9e;fill-rule:nonzero;"/><path d="M929.303,881.971c0,0 2.523,2.65 6.523,4.277c3.23,1.3 16.138,1.123 22.939,9.463c9.766,11.949 20.201,16.012 21.159,21.652c0.341,1.981 -2.536,5.261 -13.564,0.114c6.952,5.854 36.553,30.824 30.698,35.796c-2.46,1.981 -4.618,1.072 -6.132,0.05c-10.977,-7.419 -21.664,-19.456 -30.156,-25.777c0,0 26.459,27.796 31.897,34.282c3.18,3.785 -0.77,10.081 -9.135,4.656c-1.173,-0.757 -11.053,-9.791 -11.053,-9.791c6.195,6.75 11.066,11.709 3.773,14.195c-5.375,1.829 -23.897,-16.239 -29.802,-20.276c0,0 8.012,8.315 10.939,11.028c4.378,4.038 -3.154,10.51 -12.176,2.032c-11.949,-11.255 -41.903,-39.808 -45.89,-46.609c-1.678,-2.839 -2.46,-5.678 -2.574,-8.428l-2.019,-5.186c-5.627,-9.93 25.235,-31.909 34.572,-21.475Z" style="fill:#fbbd9e;fill-rule:nonzero;"/></g></g><defs><linearGradient id="_Linear1" x1="0" y1="0" x2="1" y2="0" gradientUnits="userSpaceOnUse" gradientTransform="matrix(-19.714803,-152.986871,-152.986871,19.714803,638.015483,836.665226)"><stop offset="0" style="stop-color:#342834;stop-opacity:1"/><stop offset="1" style="stop-color:#281d28;stop-opacity:1"/></linearGradient></defs></svg>