<?xml version="1.0" encoding="UTF-8"?>
<svg id="Layer_2" data-name="Layer 2" xmlns="http://www.w3.org/2000/svg" viewBox="0 0 223.68 60">
  <defs>
    <style>
      .cls-1 {
        fill: #252525;
      }

      .cls-2 {
        fill: #76b581;
      }
    </style>
  </defs>
  <g id="Layer_1-2" data-name="Layer 1">
    <g>
      <path class="cls-2" d="M41.2,15.08l-4.3-13.22c1.35-.41,2.73-.74,4.09-1.03,2.32-.46,4.57-.74,6.73-.83v14.05c0,3.8-5.35,4.65-6.52,1.03Z"/>
      <path class="cls-1" d="M38.04,37.25L18.73,10.68c4.8-3.33,9.83-5.95,15-7.8l10.19,31.37c1.18,3.62-3.64,6.07-5.88,3Z"/>
      <path class="cls-2" d="M41.89,59.33L0,28.89c4.81-6.37,10.23-11.84,16.02-16.26l30.53,42.03c2.24,3.08-1.59,6.9-4.67,4.67Z"/>
      <polygon class="cls-1" points="68.69 22.08 58.17 22.08 58.17 17.6 67.15 17.6 67.15 14.12 58.17 14.12 58.17 9.92 68.33 9.92 68.33 6.33 53.72 6.33 53.72 25.67 68.69 25.67 68.69 22.08"/>
      <polygon class="cls-1" points="82.2 25.67 90.57 6.33 86.12 6.33 80.15 20.14 74.27 6.33 69.44 6.33 77.78 25.67 82.2 25.67"/>
      <path class="cls-1" d="M93.73,23.15c.95.9,2.07,1.6,3.37,2.1,1.3.5,2.71.75,4.24.75s2.91-.25,4.19-.75c1.28-.5,2.39-1.19,3.34-2.09.95-.89,1.69-1.95,2.22-3.18.53-1.23.8-2.56.8-3.99s-.27-2.79-.8-3.99c-.54-1.21-1.28-2.26-2.22-3.16-.95-.9-2.06-1.6-3.34-2.1-1.28-.5-2.68-.75-4.21-.75s-2.91.25-4.2.75c-1.29.5-2.41,1.2-3.37,2.1-.96.9-1.7,1.96-2.22,3.18s-.79,2.54-.79,3.98.26,2.76.79,3.98c.52,1.22,1.26,2.27,2.21,3.18ZM95.72,13.49c.3-.76.73-1.41,1.28-1.96.55-.55,1.19-.98,1.92-1.27.73-.29,1.52-.44,2.39-.44s1.67.15,2.4.44c.74.29,1.38.72,1.92,1.27.54.55.97,1.2,1.27,1.96.3.76.46,1.59.46,2.51s-.15,1.76-.46,2.52c-.3.76-.73,1.41-1.28,1.96-.55.55-1.19.98-1.92,1.27-.73.29-1.52.44-2.39.44s-1.67-.15-2.4-.44c-.74-.29-1.38-.72-1.92-1.27-.54-.55-.97-1.21-1.27-1.97-.3-.76-.46-1.6-.46-2.5s.15-1.76.46-2.51Z"/>
      <polygon class="cls-1" points="129.44 22.02 119.74 22.02 119.74 6.33 115.27 6.33 115.27 25.67 129.44 25.67 129.44 22.02"/>
      <polygon class="cls-1" points="140.82 25.67 149.19 6.33 144.74 6.33 138.77 20.14 132.89 6.33 128.06 6.33 136.4 25.67 140.82 25.67"/>
      <polygon class="cls-1" points="165.76 22.08 155.24 22.08 155.24 17.6 164.21 17.6 164.21 14.12 155.24 14.12 155.24 9.92 165.4 9.92 165.4 6.33 150.79 6.33 150.79 25.67 165.76 25.67 165.76 22.08"/>
      <polygon class="cls-1" points="173.74 13.93 183.38 25.67 187.06 25.67 187.06 6.33 182.64 6.33 182.64 18.06 173.02 6.33 169.32 6.33 169.32 25.67 173.74 25.67 173.74 13.93"/>
      <polygon class="cls-1" points="189.46 9.98 195.65 9.98 195.65 25.67 200.12 25.67 200.12 9.98 206.31 9.98 206.31 6.33 189.46 6.33 189.46 9.98"/>
      <polygon class="cls-1" points="213.16 22.08 213.16 17.6 222.14 17.6 222.14 14.12 213.16 14.12 213.16 9.92 223.33 9.92 223.33 6.33 208.71 6.33 208.71 25.67 223.68 25.67 223.68 22.08 213.16 22.08"/>
      <polygon class="cls-2" points="68.38 50.23 58.35 50.23 58.35 34 53.72 34 53.72 54 68.38 54 68.38 50.23"/>
      <path class="cls-2" d="M77.38,34l-8.91,20h4.74l1.78-4.29h9.27l1.78,4.29h4.86l-8.94-20h-4.57ZM76.45,46.2l3.18-7.65,3.17,7.65h-6.35Z"/>
      <path class="cls-2" d="M109.55,41.93c.51-.77.77-1.68.77-2.73,0-1.56-.63-2.82-1.9-3.77-1.27-.95-3.16-1.43-5.67-1.43h-9.77v20h10.34c2.63,0,4.62-.48,5.97-1.44,1.35-.96,2.03-2.3,2.03-4.01,0-1.16-.27-2.14-.81-2.94-.54-.8-1.3-1.4-2.27-1.81-.18-.08-.37-.14-.56-.2.78-.41,1.41-.96,1.88-1.66ZM102.18,37.49c1.12,0,1.99.2,2.59.59s.9.98.9,1.76-.3,1.4-.9,1.79c-.6.39-1.46.59-2.59.59h-4.6v-4.72h4.6ZM105.71,49.93c-.62.39-1.53.59-2.73.59h-5.4v-4.94h5.4c1.2,0,2.11.2,2.73.61.62.41.93,1.03.93,1.87s-.31,1.48-.93,1.87Z"/>
    </g>
  </g>
</svg>