<?xml version="1.0" encoding="UTF-8"?>
<svg id="Layer_2" data-name="Layer 2" xmlns="http://www.w3.org/2000/svg" viewBox="0 0 198.19 60">
  <defs>
    <style>
      .cls-1 {
        fill: #252525;
      }

      .cls-2 {
        fill: #76b581;
      }
    </style>
  </defs>
  <g id="Layer_1-2" data-name="Layer 1">
    <g>
      <polygon class="cls-1" points="66.45 32.11 57.5 32.11 57.5 28.31 65.13 28.31 65.13 25.35 57.5 25.35 57.5 21.78 66.14 21.78 66.14 18.73 53.72 18.73 53.72 35.17 66.45 35.17 66.45 32.11"/>
      <polygon class="cls-1" points="74.17 35.17 77.93 35.17 85.04 18.73 81.26 18.73 76.19 30.47 71.19 18.73 67.08 18.73 74.17 35.17"/>
      <path class="cls-1" d="M87.73,33.03c.81.77,1.76,1.36,2.86,1.78,1.1.42,2.3.63,3.6.63s2.47-.21,3.56-.63c1.09-.42,2.03-1.01,2.84-1.77.81-.76,1.44-1.66,1.89-2.7.45-1.04.68-2.17.68-3.39s-.23-2.37-.68-3.39c-.45-1.03-1.08-1.92-1.89-2.69-.81-.77-1.75-1.36-2.84-1.78-1.09-.42-2.28-.63-3.58-.63s-2.47.21-3.57.63c-1.1.42-2.05,1.02-2.86,1.78-.81.77-1.44,1.67-1.89,2.7-.45,1.03-.67,2.16-.67,3.38s.22,2.35.67,3.38c.45,1.03,1.07,1.93,1.88,2.7ZM89.42,24.81c.26-.64.62-1.2,1.09-1.67.47-.47,1.01-.83,1.63-1.08s1.3-.38,2.03-.38,1.42.13,2.04.38c.63.25,1.17.61,1.63,1.08.46.47.82,1.02,1.08,1.67.26.64.39,1.35.39,2.14s-.13,1.5-.39,2.14c-.26.64-.62,1.2-1.09,1.67-.47.47-1.01.83-1.63,1.08-.62.25-1.3.38-2.03.38s-1.42-.13-2.04-.38c-.63-.25-1.17-.61-1.63-1.08-.46-.47-.82-1.03-1.08-1.68-.26-.65-.39-1.36-.39-2.13s.13-1.49.39-2.14Z"/>
      <polygon class="cls-1" points="118.08 32.07 109.84 32.07 109.84 18.73 106.03 18.73 106.03 35.17 118.08 35.17 118.08 32.07"/>
      <polygon class="cls-1" points="126.01 30.47 121.01 18.73 116.91 18.73 124 35.17 127.75 35.17 134.87 18.73 131.09 18.73 126.01 30.47"/>
      <polygon class="cls-1" points="140.01 28.31 147.64 28.31 147.64 25.35 140.01 25.35 140.01 21.78 148.65 21.78 148.65 18.73 136.23 18.73 136.23 35.17 148.95 35.17 148.95 32.11 140.01 32.11 140.01 28.31"/>
      <polygon class="cls-1" points="163.3 28.7 155.13 18.73 151.98 18.73 151.98 35.17 155.74 35.17 155.74 25.19 163.93 35.17 167.06 35.17 167.06 18.73 163.3 18.73 163.3 28.7"/>
      <polygon class="cls-1" points="169.1 21.83 174.36 21.83 174.36 35.17 178.16 35.17 178.16 21.83 183.42 21.83 183.42 18.73 169.1 18.73 169.1 21.83"/>
      <polygon class="cls-1" points="189.24 28.31 196.88 28.31 196.88 25.35 189.24 25.35 189.24 21.78 197.89 21.78 197.89 18.73 185.46 18.73 185.46 35.17 198.19 35.17 198.19 32.11 189.24 32.11 189.24 28.31"/>
      <polygon class="cls-2" points="66.18 53.24 57.66 53.24 57.66 39.45 53.72 39.45 53.72 56.45 66.18 56.45 66.18 53.24"/>
      <path class="cls-2" d="M85.32,56.45l-7.6-17h-3.89l-7.58,17h4.03l1.51-3.64h7.88l1.51,3.64h4.13ZM73.04,49.82l2.71-6.51,2.69,6.51h-5.4Z"/>
      <path class="cls-2" d="M100.96,55.22c1.15-.82,1.72-1.95,1.72-3.41,0-.99-.23-1.82-.69-2.5-.46-.68-1.1-1.19-1.93-1.54-.15-.07-.32-.12-.48-.17.66-.35,1.2-.81,1.6-1.41.44-.66.66-1.43.66-2.32,0-1.33-.54-2.4-1.61-3.21-1.08-.81-2.68-1.22-4.82-1.22h-8.31v17h8.79c2.23,0,3.93-.41,5.08-1.23ZM94.91,42.41c.96,0,1.69.17,2.2.5s.76.83.76,1.49-.26,1.19-.76,1.52c-.51.33-1.24.5-2.2.5h-3.91v-4.01h3.91ZM91,53.49v-4.2h4.59c1.02,0,1.79.17,2.32.52.53.35.79.88.79,1.59s-.26,1.26-.79,1.59c-.53.33-1.3.5-2.32.5h-4.59Z"/>
      <path class="cls-1" d="M60.02,12.47c.7-.35,1.25-.84,1.65-1.48.4-.63.59-1.38.59-2.24s-.2-1.61-.59-2.24c-.4-.63-.95-1.12-1.65-1.47-.7-.35-1.52-.53-2.44-.53h-3.86v8.49h3.86c.92,0,1.74-.18,2.44-.53ZM55.69,11.38v-5.27h1.8c.57,0,1.06.11,1.47.32s.74.52.97.91c.23.39.35.86.35,1.4s-.12,1-.35,1.4c-.23.4-.55.7-.97.92-.42.21-.91.32-1.47.32h-1.8Z"/>
      <path class="cls-1" d="M66.61,6.37c-.66,0-1.26.14-1.78.43-.53.29-.94.68-1.24,1.19-.3.51-.46,1.09-.46,1.74s.15,1.22.46,1.73c.31.51.74.9,1.3,1.19.56.29,1.22.44,1.96.44.59,0,1.11-.09,1.57-.27.45-.18.83-.44,1.13-.78l-1.01-1.09c-.22.21-.46.37-.72.47-.26.1-.57.16-.92.16-.39,0-.73-.07-1.01-.21-.29-.14-.51-.35-.67-.62-.09-.15-.14-.31-.18-.48h4.93c0-.08.02-.17.02-.26s.01-.18.01-.25c0-.7-.15-1.31-.45-1.81-.3-.51-.71-.89-1.22-1.17-.51-.27-1.09-.41-1.73-.41ZM65.77,8.02c.25-.14.53-.21.85-.21s.61.07.85.21.43.34.57.59c.09.16.14.36.17.56h-3.19c.03-.2.08-.39.17-.55.14-.25.33-.45.58-.59Z"/>
      <path class="cls-1" d="M74.46,11.51c-.18.1-.49.16-.93.16-.4,0-.8-.06-1.21-.18-.41-.12-.76-.27-1.06-.46l-.63,1.36c.3.2.7.37,1.22.5.51.13,1.05.2,1.61.2.65,0,1.21-.09,1.67-.27s.81-.42,1.05-.73c.24-.31.36-.67.36-1.07,0-.37-.07-.67-.22-.9-.15-.23-.33-.41-.56-.55-.23-.13-.49-.24-.77-.31-.28-.07-.56-.13-.84-.16-.28-.04-.54-.08-.77-.13-.23-.05-.42-.11-.56-.19-.14-.08-.21-.2-.21-.36,0-.18.1-.32.29-.44.19-.11.5-.17.92-.17.3,0,.61.03.93.1.32.07.64.2.95.38l.63-1.35c-.31-.19-.69-.33-1.15-.42-.46-.1-.91-.15-1.36-.15-.63,0-1.17.09-1.63.27-.45.18-.8.43-1.04.75-.24.31-.36.68-.36,1.09,0,.37.07.68.21.91.14.23.33.42.56.56.23.14.49.24.78.31.28.07.56.12.84.16.28.04.54.08.77.12.24.04.42.1.56.18.14.08.21.19.21.35,0,.19-.09.33-.27.44Z"/>
      <path class="cls-1" d="M79.51,3.73c-.22-.19-.5-.29-.85-.29s-.63.1-.85.3c-.22.2-.33.45-.33.75s.11.55.33.75c.22.2.5.3.85.3s.64-.1.85-.31.32-.47.32-.78-.11-.54-.33-.73Z"/>
      <rect class="cls-1" x="77.71" y="6.47" width="1.89" height="6.53"/>
      <path class="cls-1" d="M88.1,11.91v-5.44h-1.8v.87c-.2-.26-.42-.48-.7-.63-.42-.22-.91-.33-1.46-.33-.61,0-1.16.13-1.64.39-.49.26-.88.62-1.18,1.1-.3.47-.44,1.03-.44,1.67s.15,1.18.44,1.66c.3.47.69.84,1.18,1.1.49.26,1.04.39,1.64.39.55,0,1.03-.11,1.46-.34.23-.13.43-.3.61-.49v.3c0,.59-.15,1.03-.46,1.33-.3.3-.79.45-1.46.45-.41,0-.83-.07-1.26-.2-.42-.13-.77-.31-1.05-.54l-.75,1.36c.38.3.85.52,1.43.67.57.15,1.16.22,1.78.22,1.18,0,2.09-.29,2.72-.86.63-.57.95-1.47.95-2.68ZM86.01,10.37c-.15.24-.35.43-.61.56-.26.13-.55.2-.89.2s-.63-.07-.89-.2c-.26-.13-.46-.32-.61-.56-.15-.24-.22-.52-.22-.84s.07-.61.22-.84c.15-.24.35-.42.61-.56.26-.13.55-.2.89-.2s.63.07.89.2c.26.13.46.32.61.56.15.24.22.52.22.84s-.07.59-.22.84Z"/>
      <path class="cls-1" d="M89.86,6.47v6.53h1.89v-3.23c0-.4.07-.74.2-.99.13-.26.32-.45.56-.58.24-.13.51-.19.81-.19.42,0,.75.13.98.38.23.25.35.64.35,1.16v3.45h1.89v-3.74c0-.66-.12-1.21-.35-1.63-.23-.43-.56-.74-.96-.95-.41-.21-.87-.31-1.39-.31-.56,0-1.06.12-1.49.35-.26.14-.48.33-.67.55v-.8h-1.81Z"/>
      <path class="cls-1" d="M99.79,12.76c.23-.22.34-.51.34-.86s-.11-.63-.34-.84c-.23-.21-.51-.32-.84-.32s-.6.11-.83.32c-.23.21-.35.5-.35.84s.11.63.35.86c.23.22.51.33.83.33s.61-.11.84-.33Z"/>
      <path class="cls-1" d="M109.14,4.5h-4.15v8.49h4.39c1.12,0,1.96-.2,2.54-.61.57-.41.86-.98.86-1.7,0-.49-.12-.91-.35-1.25-.23-.34-.55-.6-.96-.77-.08-.03-.18-.05-.26-.08.34-.17.62-.41.82-.71.22-.33.33-.71.33-1.16,0-.66-.27-1.2-.81-1.6s-1.34-.61-2.41-.61ZM108.89,5.99c.48,0,.84.08,1.1.25.25.17.38.41.38.75s-.13.59-.38.76c-.25.17-.62.25-1.1.25h-1.95v-2h1.95ZM110.39,11.27c-.26.17-.65.25-1.16.25h-2.29v-2.1h2.29c.51,0,.9.09,1.16.26.26.17.4.44.4.79s-.13.63-.4.79Z"/>
      <path class="cls-1" d="M115.44,12.78c.43.21.91.32,1.45.32.5,0,.96-.11,1.39-.35.25-.14.46-.33.64-.54v.79h1.8v-6.53h-1.89v3.23c0,.4-.07.73-.19.99-.13.26-.31.46-.53.58-.23.13-.48.19-.78.19-.42,0-.75-.13-.98-.38-.23-.25-.35-.65-.35-1.19v-3.41h-1.89v3.69c0,.67.12,1.22.35,1.66.23.43.56.75.99.96Z"/>
      <rect class="cls-1" x="122.47" y="6.47" width="1.89" height="6.53"/>
      <path class="cls-1" d="M124.27,3.73c-.22-.19-.5-.29-.85-.29s-.63.1-.85.3c-.22.2-.33.45-.33.75s.11.55.33.75c.22.2.5.3.85.3s.64-.1.85-.31c.21-.21.32-.47.32-.78s-.11-.54-.33-.73Z"/>
      <rect class="cls-1" x="126.12" y="3.99" width="1.89" height="9"/>
      <path class="cls-1" d="M136.42,13V3.99h-1.89v3.17c-.15-.17-.32-.31-.51-.43-.41-.24-.89-.36-1.44-.36-.62,0-1.17.14-1.66.41-.49.27-.88.66-1.17,1.16-.29.5-.43,1.1-.43,1.78s.14,1.27.43,1.77c.29.5.68.89,1.17,1.17.49.28,1.05.42,1.66.42.57,0,1.07-.12,1.47-.36.22-.13.4-.3.56-.5v.76h1.81ZM134.34,10.7c-.15.27-.35.48-.6.62-.25.15-.53.22-.84.22s-.6-.07-.85-.22c-.25-.15-.45-.35-.6-.62-.15-.27-.22-.59-.22-.96s.07-.7.22-.97c.15-.27.35-.47.6-.62.25-.15.53-.22.85-.22s.59.07.84.22c.25.15.45.35.6.62.15.27.22.59.22.97s-.08.69-.22.96Z"/>
      <path class="cls-1" d="M138.06,11.06c-.23.21-.35.5-.35.84s.11.63.35.86c.23.22.51.33.83.33s.61-.11.84-.33c.23-.22.34-.51.34-.86s-.11-.63-.34-.84c-.23-.21-.51-.32-.84-.32s-.6.11-.83.32Z"/>
      <path class="cls-1" d="M150.54,10.27s.01,0,.02,0c.55-.24.97-.59,1.27-1.05.3-.46.45-1,.45-1.63s-.15-1.19-.45-1.65c-.3-.46-.72-.81-1.27-1.06-.55-.25-1.21-.37-1.97-.37h-3.68v8.49h1.96v-2.37h1.71s.06,0,.09,0l1.64,2.37h2.12l-1.9-2.72ZM149.84,6.49c.3.26.45.62.45,1.09s-.15.82-.45,1.09c-.3.26-.75.39-1.36.39h-1.6v-2.96h1.6c.61,0,1.06.13,1.36.39Z"/>
      <path class="cls-1" d="M160.08,10.01c0-.09.01-.18.01-.25,0-.7-.15-1.31-.45-1.81-.3-.51-.71-.89-1.22-1.17-.51-.27-1.09-.41-1.73-.41s-1.26.14-1.78.43c-.53.29-.94.68-1.24,1.19-.3.51-.46,1.09-.46,1.74s.15,1.22.46,1.73c.31.51.74.9,1.3,1.19.56.29,1.22.44,1.96.44.59,0,1.11-.09,1.57-.27.45-.18.83-.44,1.13-.78l-1.01-1.09c-.22.21-.46.37-.72.47-.26.1-.57.16-.92.16-.39,0-.73-.07-1.01-.21-.29-.14-.51-.35-.67-.62-.09-.15-.14-.31-.18-.48h4.93c0-.08.02-.17.02-.26ZM155.85,8.02c.25-.14.53-.21.85-.21s.61.07.85.21c.24.14.43.34.57.59.09.16.14.36.17.56h-3.19c.03-.2.08-.39.17-.55.14-.25.33-.45.58-.59Z"/>
      <path class="cls-1" d="M166.87,6.79c-.49-.28-1.04-.42-1.66-.42-.57,0-1.07.12-1.48.36-.22.13-.41.3-.57.5v-.76h-1.81v8.88h1.89v-3.06c.15.17.33.32.52.44.41.24.89.36,1.44.36.61,0,1.17-.14,1.66-.41.49-.28.88-.66,1.17-1.17s.43-1.1.43-1.78-.14-1.27-.43-1.77c-.29-.5-.68-.89-1.17-1.17ZM166.32,10.7c-.15.27-.35.48-.59.62-.25.15-.53.22-.84.22s-.6-.07-.85-.22c-.25-.15-.45-.35-.59-.62-.15-.27-.22-.59-.22-.96s.07-.7.22-.97c.15-.27.34-.47.59-.62.25-.15.53-.22.85-.22s.6.07.84.22c.25.15.45.35.59.62.15.27.23.59.23.97s-.07.69-.23.96Z"/>
      <path class="cls-1" d="M171.01,12.66c.56.29,1.22.44,1.96.44.59,0,1.11-.09,1.56-.27s.83-.44,1.13-.78l-1.01-1.09c-.22.21-.46.37-.72.47-.26.1-.57.16-.92.16-.39,0-.73-.07-1.01-.21-.29-.14-.51-.35-.67-.62-.09-.15-.14-.31-.18-.48h4.93c0-.08.02-.17.02-.26,0-.09.01-.18.01-.25,0-.7-.15-1.31-.45-1.81-.3-.51-.71-.89-1.22-1.17-.51-.27-1.09-.41-1.73-.41s-1.26.14-1.78.43c-.53.29-.94.68-1.24,1.19-.3.51-.46,1.09-.46,1.74s.15,1.22.46,1.73c.31.51.74.9,1.3,1.19ZM171.88,8.02c.25-.14.53-.21.85-.21s.61.07.85.21c.24.14.43.34.57.59.09.16.14.36.17.56h-3.19c.03-.2.08-.39.17-.55.14-.25.33-.45.58-.59Z"/>
      <path class="cls-1" d="M182.98,13v-3.72c0-1-.28-1.73-.83-2.2-.55-.47-1.32-.7-2.32-.7-.52,0-1.03.07-1.53.21-.5.14-.93.33-1.29.58l.68,1.32c.23-.19.52-.33.86-.44.33-.11.68-.16,1.02-.16.51,0,.89.11,1.13.34.25.23.37.54.37.95h-1.5c-.66,0-1.2.08-1.61.25-.41.17-.71.39-.9.69-.19.29-.29.63-.29,1.02s.1.71.29,1.01c.19.3.47.54.84.71.36.17.8.26,1.31.26.57,0,1.04-.11,1.41-.33.26-.16.44-.38.58-.64v.87h1.77ZM180.54,11.6c-.25.15-.53.22-.85.22-.33,0-.59-.07-.78-.21-.19-.14-.29-.33-.29-.58,0-.22.08-.4.25-.55.17-.15.47-.22.92-.22h1.3v.67c-.11.29-.3.51-.55.66Z"/>
      <path class="cls-1" d="M185.56,12.51c.43.39,1.03.59,1.8.59.29,0,.57-.03.84-.1.27-.07.5-.17.7-.31l-.51-1.33c-.21.16-.47.24-.76.24-.25,0-.45-.08-.59-.23-.15-.15-.22-.36-.22-.64v-2.66h1.63v-1.46h-1.63v-1.59h-1.89v1.59h-1.01v1.46h1.01v2.68c0,.78.21,1.36.64,1.75Z"/>
      <path class="cls-1" d="M191.64,12.76c.23-.22.34-.51.34-.86s-.11-.63-.34-.84c-.23-.21-.51-.32-.84-.32s-.6.11-.83.32c-.23.21-.35.5-.35.84s.12.63.35.86c.23.22.51.33.83.33s.61-.11.84-.33Z"/>
      <path class="cls-2" d="M41.2,15.08l-4.3-13.22c1.35-.41,2.73-.74,4.09-1.03,2.32-.46,4.57-.74,6.73-.83v14.05c0,3.8-5.35,4.65-6.52,1.03Z"/>
      <path class="cls-1" d="M38.04,37.25L18.73,10.68c4.8-3.33,9.83-5.95,15-7.8l10.19,31.37c1.18,3.62-3.64,6.07-5.88,3Z"/>
      <path class="cls-2" d="M41.89,59.33L0,28.89c4.81-6.37,10.23-11.84,16.02-16.26l30.53,42.03c2.24,3.08-1.59,6.9-4.67,4.67Z"/>
    </g>
  </g>
</svg>