<?xml version="1.0" encoding="UTF-8" standalone="no"?><!DOCTYPE svg PUBLIC "-//W3C//DTD SVG 1.1//EN" "http://www.w3.org/Graphics/SVG/1.1/DTD/svg11.dtd"><svg width="100%" height="100%" viewBox="0 0 549 257" version="1.1" xmlns="http://www.w3.org/2000/svg" xmlns:xlink="http://www.w3.org/1999/xlink" xml:space="preserve" xmlns:serif="http://www.serif.com/" style="fill-rule:evenodd;clip-rule:evenodd;stroke-linejoin:round;stroke-miterlimit:2;"><g><path d="M171.672,66.09l-17.904,-55.1c5.642,-1.692 11.367,-3.096 17.058,-4.296c9.658,-1.929 19.042,-3.083 28.021,-3.442l-0.017,58.537c-0.004,15.85 -22.258,19.375 -27.158,4.3" style="fill:#fff;fill-rule:nonzero;"/><path d="M158.491,158.445l-80.458,-110.712c19.996,-13.862 40.954,-24.792 62.487,-32.487l42.471,130.717c4.896,15.075 -15.183,25.304 -24.5,12.483" style="fill:#fff;fill-rule:nonzero;"/><path d="M174.554,250.459l-174.554,-126.821c20.042,-26.558 42.613,-49.333 66.771,-67.746l127.225,175.125c9.321,12.821 -6.617,28.758 -19.442,19.442" style="fill:#fff;fill-rule:nonzero;"/><path d="M261.181,52.291c-2.863,1.475 -6.237,2.208 -10.125,2.208l-12.333,0l0,-36.167l12.333,-0c3.888,0 7.262,0.737 10.125,2.208c2.863,1.471 5.083,3.554 6.667,6.25c1.579,2.696 2.375,5.904 2.375,9.625c0,3.667 -0.796,6.862 -2.375,9.583c-1.583,2.725 -3.804,4.821 -6.667,6.292m18.625,-0.5c2.721,-4.362 4.083,-9.483 4.083,-15.375c0,-5.946 -1.363,-11.083 -4.083,-15.417c-2.725,-4.333 -6.5,-7.708 -11.333,-10.125c-4.833,-2.417 -10.417,-3.625 -16.754,-3.625l-26.496,0l0,58.333l26.496,0c6.338,0 11.921,-1.208 16.754,-3.625c4.833,-2.417 8.608,-5.804 11.333,-10.167" style="fill:#fff;fill-rule:nonzero;"/><path d="M307.93,31.374c1.692,-0.971 3.65,-1.458 5.875,-1.458c2.221,0 4.167,0.487 5.833,1.458c1.667,0.971 2.967,2.321 3.917,4.042c0.621,1.129 0.958,2.442 1.171,3.833l-21.917,0c0.221,-1.379 0.558,-2.675 1.163,-3.792c0.942,-1.75 2.262,-3.113 3.958,-4.083m29.042,13.667c0.05,-0.638 0.083,-1.208 0.083,-1.708c0,-4.833 -1.029,-8.987 -3.083,-12.458c-2.058,-3.471 -4.85,-6.137 -8.375,-8c-3.529,-1.862 -7.487,-2.792 -11.875,-2.792c-4.558,0 -8.642,0.988 -12.25,2.958c-3.613,1.975 -6.463,4.696 -8.546,8.167c-2.083,3.471 -3.125,7.458 -3.125,11.958c0,4.446 1.058,8.404 3.171,11.875c2.108,3.471 5.096,6.208 8.958,8.208c3.858,2 8.342,3 13.458,3c4.054,0 7.637,-0.625 10.75,-1.875c3.108,-1.25 5.692,-3.042 7.746,-5.375l-6.917,-7.5c-1.496,1.446 -3.15,2.529 -4.954,3.25c-1.808,0.721 -3.904,1.083 -6.292,1.083c-2.671,0 -4.988,-0.487 -6.958,-1.458c-1.971,-0.971 -3.504,-2.387 -4.583,-4.25c-0.587,-1.008 -0.983,-2.117 -1.25,-3.292l33.875,0c0.054,-0.554 0.108,-1.15 0.167,-1.792" style="fill:#fff;fill-rule:nonzero;"/><path d="M372.261,64.417c3.142,-1.221 5.542,-2.904 7.208,-5.042c1.671,-2.138 2.5,-4.596 2.5,-7.375c0,-2.554 -0.5,-4.625 -1.496,-6.208c-1.004,-1.583 -2.292,-2.833 -3.879,-3.75c-1.583,-0.917 -3.346,-1.625 -5.287,-2.125c-1.946,-0.5 -3.875,-0.875 -5.792,-1.125c-1.917,-0.25 -3.683,-0.542 -5.296,-0.875c-1.608,-0.333 -2.904,-0.779 -3.871,-1.333c-0.975,-0.554 -1.463,-1.388 -1.463,-2.5c0,-1.221 0.667,-2.221 2.004,-3c1.333,-0.779 3.442,-1.167 6.329,-1.167c2.054,0 4.183,0.238 6.375,0.708c2.196,0.471 4.375,1.346 6.546,2.625l4.333,-9.25c-2.112,-1.279 -4.754,-2.25 -7.921,-2.917c-3.163,-0.667 -6.279,-1 -9.333,-1c-4.333,0 -8.054,0.625 -11.167,1.875c-3.113,1.25 -5.483,2.958 -7.125,5.125c-1.637,2.167 -2.454,4.667 -2.454,7.5c0,2.554 0.483,4.637 1.454,6.25c0.975,1.612 2.262,2.887 3.879,3.833c1.608,0.946 3.383,1.654 5.329,2.125c1.946,0.471 3.879,0.846 5.796,1.125c1.917,0.275 3.679,0.554 5.287,0.833c1.613,0.279 2.904,0.679 3.875,1.208c0.971,0.529 1.463,1.321 1.463,2.375c0,1.279 -0.629,2.275 -1.879,3c-1.246,0.721 -3.371,1.083 -6.375,1.083c-2.721,0 -5.483,-0.404 -8.288,-1.208c-2.808,-0.804 -5.238,-1.846 -7.292,-3.125l-4.333,9.333c2.054,1.388 4.846,2.542 8.375,3.458c3.525,0.917 7.204,1.375 11.038,1.375c4.5,0 8.321,-0.612 11.458,-1.833" style="fill:#fff;fill-rule:nonzero;"/><path d="M396.471,14.5c2.446,0 4.404,-0.708 5.875,-2.125c1.471,-1.417 2.208,-3.208 2.208,-5.375c0,-2.054 -0.75,-3.737 -2.25,-5.042c-1.5,-1.304 -3.446,-1.958 -5.833,-1.958c-2.387,0 -4.333,0.696 -5.833,2.083c-1.5,1.387 -2.25,3.112 -2.25,5.167c0,2.054 0.75,3.779 2.25,5.167c1.5,1.388 3.446,2.083 5.833,2.083" style="fill:#fff;fill-rule:nonzero;"/><rect x="389.972" y="20.752" width="12.996" height="44.833" style="fill:#fff;"/><path d="M446.968,47.5c-0.996,1.667 -2.387,2.958 -4.167,3.875c-1.779,0.917 -3.804,1.375 -6.083,1.375c-2.279,0 -4.304,-0.458 -6.083,-1.375c-1.779,-0.917 -3.179,-2.208 -4.208,-3.875c-1.029,-1.667 -1.542,-3.583 -1.542,-5.75c0,-2.221 0.512,-4.154 1.542,-5.792c1.029,-1.638 2.429,-2.917 4.208,-3.833c1.779,-0.917 3.804,-1.375 6.083,-1.375c2.279,0 4.304,0.458 6.083,1.375c1.779,0.917 3.171,2.196 4.167,3.833c1,1.638 1.5,3.571 1.5,5.792c0,2.167 -0.5,4.083 -1.5,5.75m-1.792,21.417c-2.083,2.054 -5.429,3.083 -10.042,3.083c-2.833,0 -5.708,-0.458 -8.621,-1.375c-2.917,-0.917 -5.325,-2.154 -7.212,-3.708l-5.167,9.333c2.613,2.054 5.875,3.596 9.796,4.625c3.912,1.025 7.983,1.542 12.204,1.542c8.112,0 14.337,-1.975 18.671,-5.917c4.329,-3.946 6.496,-10.083 6.496,-18.417l0,-37.333l-12.333,0l0,5.746c-1.342,-1.721 -2.938,-3.117 -4.833,-4.121c-2.887,-1.525 -6.221,-2.292 -10,-2.292c-4.167,0 -7.929,0.888 -11.292,2.667c-3.362,1.779 -6.054,4.292 -8.079,7.542c-2.033,3.25 -3.046,7.071 -3.046,11.458c0,4.333 1.013,8.125 3.046,11.375c2.025,3.25 4.717,5.779 8.079,7.583c3.363,1.808 7.125,2.708 11.292,2.708c3.779,0 7.113,-0.779 10,-2.333c1.592,-0.854 2.967,-1.983 4.167,-3.333l0,2c0,4.054 -1.042,7.108 -3.125,9.167" style="fill:#fff;fill-rule:nonzero;"/><path d="M503.845,33.915c1.583,1.725 2.375,4.392 2.375,8l0,23.667l13,0l0,-25.667c0,-4.554 -0.808,-8.292 -2.417,-11.208c-1.613,-2.917 -3.821,-5.083 -6.625,-6.5c-2.804,-1.417 -5.987,-2.125 -9.542,-2.125c-3.833,0 -7.25,0.808 -10.25,2.417c-1.783,0.958 -3.292,2.192 -4.583,3.642l0,-5.392l-12.417,0l0,44.833l13,0l0,-22.167c0,-2.775 0.458,-5.054 1.375,-6.833c0.917,-1.779 2.196,-3.096 3.833,-3.958c1.637,-0.863 3.483,-1.292 5.542,-1.292c2.887,0 5.125,0.863 6.708,2.583" style="fill:#fff;fill-rule:nonzero;"/><path d="M541.637,63.957c1.554,-1.525 2.333,-3.483 2.333,-5.875c0,-2.387 -0.779,-4.317 -2.333,-5.792c-1.554,-1.471 -3.471,-2.208 -5.75,-2.208c-2.221,0 -4.125,0.737 -5.708,2.208c-1.583,1.475 -2.375,3.404 -2.375,5.792c0,2.392 0.792,4.35 2.375,5.875c1.583,1.529 3.488,2.292 5.708,2.292c2.279,0 4.196,-0.763 5.75,-2.292" style="fill:#fff;fill-rule:nonzero;"/><path d="M252.054,108.167c3.279,0 5.796,0.571 7.546,1.708c1.746,1.142 2.621,2.846 2.621,5.125c0,2.333 -0.875,4.071 -2.621,5.208c-1.75,1.142 -4.267,1.708 -7.546,1.708l-13.417,0l0,-13.75l13.417,0Zm10.296,36.292c-1.808,1.142 -4.463,1.708 -7.958,1.708l-15.754,0l0,-14.417l15.754,0c3.496,0 6.15,0.596 7.958,1.792c1.8,1.192 2.704,3.017 2.704,5.458c0,2.5 -0.904,4.321 -2.704,5.458m-37.125,11.875l30.167,0c7.667,0 13.467,-1.404 17.412,-4.208c3.946,-2.808 5.917,-6.708 5.917,-11.708c0,-3.387 -0.792,-6.25 -2.375,-8.583c-1.583,-2.333 -3.792,-4.096 -6.625,-5.292c-0.562,-0.237 -1.217,-0.346 -1.817,-0.533c2.342,-1.204 4.262,-2.8 5.65,-4.883c1.504,-2.25 2.25,-4.9 2.25,-7.958c0,-4.554 -1.846,-8.221 -5.542,-11c-3.696,-2.775 -9.208,-4.167 -16.542,-4.167l-28.496,0l0,58.333Z" style="fill:#fff;fill-rule:nonzero;"/><path d="M333.222,111.501l-13,0l0,22.162c0,2.729 -0.45,4.992 -1.333,6.796c-0.887,1.804 -2.113,3.137 -3.667,4c-1.554,0.858 -3.333,1.292 -5.337,1.292c-2.887,0 -5.121,-0.875 -6.704,-2.625c-1.583,-1.75 -2.375,-4.483 -2.375,-8.208l0,-23.417l-13,0l0,25.333c0,4.612 0.804,8.404 2.417,11.375c1.608,2.971 3.871,5.179 6.792,6.621c2.917,1.45 6.238,2.171 9.958,2.171c3.442,0 6.625,-0.796 9.538,-2.375c1.717,-0.933 3.154,-2.158 4.379,-3.617l0,5.325l12.333,0l0,-44.833Z" style="fill:#fff;fill-rule:nonzero;"/><rect x="345.309" y="111.502" width="12.996" height="44.833" style="fill:#fff;"/><path d="M357.641,92.708c-1.5,-1.304 -3.446,-1.958 -5.833,-1.958c-2.392,0 -4.333,0.696 -5.838,2.083c-1.496,1.388 -2.25,3.112 -2.25,5.167c0,2.058 0.754,3.779 2.25,5.167c1.504,1.388 3.446,2.083 5.838,2.083c2.446,0 4.4,-0.708 5.875,-2.125c1.467,-1.417 2.208,-3.208 2.208,-5.375c0,-2.054 -0.754,-3.737 -2.25,-5.042" style="fill:#fff;fill-rule:nonzero;"/><rect x="370.388" y="94.502" width="12.996" height="61.833" style="fill:#fff;"/><path d="M426.847,140.542c-1.029,1.863 -2.4,3.292 -4.121,4.292c-1.725,1.004 -3.642,1.5 -5.754,1.5c-2.167,0 -4.108,-0.496 -5.833,-1.5c-1.725,-1 -3.096,-2.429 -4.125,-4.292c-1.029,-1.858 -1.542,-4.071 -1.542,-6.625c0,-2.608 0.512,-4.833 1.542,-6.667c1.029,-1.833 2.4,-3.25 4.125,-4.25c1.725,-1 3.667,-1.5 5.833,-1.5c2.113,0 4.029,0.5 5.754,1.5c1.721,1 3.092,2.417 4.121,4.25c1.029,1.833 1.542,4.058 1.542,6.667c0,2.554 -0.513,4.767 -1.542,6.625m1.296,-24.325c-1.038,-1.137 -2.192,-2.112 -3.5,-2.883c-2.838,-1.667 -6.142,-2.5 -9.921,-2.5c-4.221,0 -8.029,0.946 -11.412,2.833c-3.392,1.888 -6.071,4.558 -8.046,8c-1.971,3.446 -2.958,7.529 -2.958,12.25c0,4.667 0.987,8.725 2.958,12.167c1.975,3.446 4.654,6.125 8.046,8.042c3.383,1.917 7.192,2.875 11.412,2.875c3.946,0 7.321,-0.833 10.129,-2.5c1.475,-0.879 2.758,-2.012 3.871,-3.375l0,5.208l12.421,0l0,-61.833l-13,0l0,21.717Z" style="fill:#fff;fill-rule:nonzero;"/><path d="M458.052,157.001c2.279,0 4.196,-0.767 5.75,-2.292c1.554,-1.529 2.329,-3.488 2.329,-5.875c0,-2.388 -0.775,-4.321 -2.329,-5.796c-1.554,-1.467 -3.471,-2.204 -5.75,-2.204c-2.221,0 -4.125,0.738 -5.708,2.204c-1.583,1.475 -2.375,3.408 -2.375,5.796c0,2.387 0.792,4.346 2.375,5.875c1.583,1.525 3.487,2.292 5.708,2.292" style="fill:#fff;fill-rule:nonzero;"/><path d="M259.057,195.669c2.054,1.779 3.079,4.275 3.079,7.5c0,3.167 -1.025,5.654 -3.079,7.458c-2.058,1.808 -5.167,2.708 -9.333,2.708l-11,0l0,-20.337l11,0c4.167,0 7.275,0.892 9.333,2.671m-33.833,44.667l13.5,0l0,-16.25l11.746,0c0.217,0 0.408,-0.025 0.621,-0.025l11.213,16.275l14.583,0l-13.033,-18.704c0.037,-0.017 0.083,-0.029 0.121,-0.046c3.775,-1.667 6.692,-4.067 8.746,-7.208c2.054,-3.137 3.088,-6.875 3.088,-11.208c0,-4.388 -1.033,-8.167 -3.088,-11.333c-2.054,-3.171 -4.971,-5.6 -8.746,-7.292c-3.783,-1.696 -8.283,-2.542 -13.504,-2.542l-25.246,0l0,58.333Z" style="fill:#fff;fill-rule:nonzero;"/><path d="M300.349,206.128c1.692,-0.971 3.65,-1.458 5.875,-1.458c2.221,0 4.167,0.488 5.833,1.458c1.667,0.971 2.967,2.321 3.917,4.042c0.621,1.129 0.958,2.442 1.171,3.833l-21.917,0c0.221,-1.379 0.558,-2.675 1.163,-3.796c0.942,-1.746 2.262,-3.108 3.958,-4.079m29.042,13.667c0.05,-0.638 0.083,-1.208 0.083,-1.708c0,-4.833 -1.029,-8.983 -3.083,-12.458c-2.058,-3.471 -4.85,-6.137 -8.375,-8.004c-3.529,-1.858 -7.487,-2.788 -11.875,-2.788c-4.558,0 -8.642,0.983 -12.25,2.958c-3.613,1.971 -6.463,4.696 -8.546,8.167c-2.083,3.471 -3.125,7.458 -3.125,11.958c0,4.442 1.058,8.404 3.171,11.875c2.108,3.475 5.096,6.208 8.958,8.208c3.858,2 8.342,3 13.458,3c4.054,0 7.637,-0.625 10.75,-1.875c3.108,-1.25 5.692,-3.042 7.746,-5.375l-6.917,-7.5c-1.496,1.446 -3.15,2.529 -4.954,3.25c-1.808,0.721 -3.904,1.083 -6.292,1.083c-2.671,0 -4.988,-0.488 -6.958,-1.458c-1.971,-0.971 -3.504,-2.387 -4.583,-4.25c-0.587,-1.004 -0.983,-2.112 -1.25,-3.292l33.875,0c0.054,-0.554 0.108,-1.15 0.167,-1.792" style="fill:#fff;fill-rule:nonzero;"/><path d="M372.261,224.545c-1.029,1.863 -2.387,3.292 -4.079,4.292c-1.7,1.004 -3.629,1.5 -5.796,1.5c-2.167,0 -4.108,-0.496 -5.833,-1.5c-1.725,-1 -3.083,-2.429 -4.083,-4.292c-1,-1.858 -1.5,-4.071 -1.5,-6.625c0,-2.612 0.5,-4.833 1.5,-6.667c1,-1.833 2.358,-3.25 4.083,-4.25c1.725,-1 3.667,-1.5 5.833,-1.5c2.167,0 4.096,0.5 5.796,1.5c1.692,1 3.05,2.417 4.079,4.25c1.029,1.833 1.542,4.054 1.542,6.667c0,2.554 -0.513,4.767 -1.542,6.625m3.75,-26.837c-3.363,-1.917 -7.15,-2.871 -11.375,-2.871c-3.942,0 -7.333,0.833 -10.167,2.496c-1.496,0.883 -2.792,2.017 -3.917,3.379l0,-5.208l-12.413,0l0,61l12.996,0l0,-20.962c1.058,1.175 2.246,2.175 3.583,2.962c2.833,1.667 6.142,2.5 9.917,2.5c4.225,0 8.012,-0.942 11.375,-2.829c3.363,-1.892 6.029,-4.558 8,-8.004c1.971,-3.446 2.958,-7.525 2.958,-12.25c0,-4.667 -0.988,-8.721 -2.958,-12.167c-1.971,-3.446 -4.637,-6.125 -8,-8.046" style="fill:#fff;fill-rule:nonzero;"/><path d="M410.428,206.128c1.692,-0.971 3.65,-1.458 5.875,-1.458c2.221,0 4.167,0.488 5.833,1.458c1.667,0.971 2.967,2.321 3.917,4.042c0.621,1.129 0.958,2.442 1.171,3.833l-21.917,0c0.221,-1.379 0.558,-2.675 1.163,-3.796c0.942,-1.746 2.262,-3.108 3.958,-4.079m17.667,-8.504c-3.529,-1.858 -7.487,-2.788 -11.875,-2.788c-4.558,0 -8.642,0.983 -12.25,2.958c-3.613,1.971 -6.463,4.696 -8.546,8.167c-2.083,3.471 -3.125,7.458 -3.125,11.958c0,4.442 1.058,8.404 3.171,11.875c2.108,3.475 5.096,6.208 8.958,8.208c3.858,2 8.342,3 13.458,3c4.054,0 7.637,-0.625 10.75,-1.875c3.108,-1.25 5.692,-3.042 7.746,-5.375l-6.917,-7.5c-1.496,1.446 -3.15,2.529 -4.954,3.25c-1.808,0.721 -3.904,1.083 -6.292,1.083c-2.671,0 -4.988,-0.488 -6.958,-1.458c-1.971,-0.971 -3.504,-2.387 -4.583,-4.25c-0.587,-1.004 -0.983,-2.112 -1.25,-3.292l33.875,0c0.054,-0.554 0.108,-1.15 0.167,-1.792c0.05,-0.638 0.083,-1.208 0.083,-1.708c0,-4.833 -1.029,-8.983 -3.083,-12.458c-2.058,-3.471 -4.85,-6.137 -8.375,-8.004" style="fill:#fff;fill-rule:nonzero;"/><path d="M469.888,230.713c-1.725,1.025 -3.671,1.537 -5.833,1.537c-2.279,0 -4.071,-0.483 -5.375,-1.454c-1.308,-0.975 -1.958,-2.292 -1.958,-3.963c0,-1.496 0.571,-2.75 1.708,-3.746c1.133,-1 3.233,-1.5 6.292,-1.5l8.913,0l0,4.579c-0.775,2.004 -2.025,3.517 -3.746,4.546m-4.833,-35.879c-3.558,0 -7.058,0.471 -10.504,1.417c-3.442,0.946 -6.387,2.279 -8.833,4l4.667,9.083c1.613,-1.275 3.571,-2.292 5.875,-3.037c2.304,-0.75 4.654,-1.129 7.046,-1.129c3.5,0 6.096,0.783 7.792,2.338c1.692,1.554 2.538,3.721 2.538,6.496l-10.329,0c-4.558,0 -8.254,0.571 -11.083,1.708c-2.838,1.142 -4.904,2.713 -6.208,4.708c-1.308,2.004 -1.958,4.333 -1.958,7.004c0,2.554 0.667,4.858 1.996,6.912c1.337,2.058 3.254,3.683 5.75,4.879c2.504,1.192 5.5,1.792 9,1.792c3.95,0 7.171,-0.75 9.671,-2.25c1.704,-1.025 3.017,-2.396 4,-4.067l0,5.65l12.167,0l0,-25.583c0,-6.838 -1.892,-11.862 -5.671,-15.088c-3.775,-3.221 -9.083,-4.833 -15.912,-4.833" style="fill:#fff;fill-rule:nonzero;"/><path d="M518.554,230.668c-1.725,0 -3.083,-0.512 -4.083,-1.542c-1.004,-1.025 -1.5,-2.483 -1.5,-4.375l0,-18.25l11.167,0l0,-10l-11.167,0l0,-10.917l-13,0l0,10.917l-6.917,0l0,10l6.917,0l0,18.417c0,5.333 1.471,9.346 4.417,12.046c2.946,2.692 7.054,4.038 12.333,4.038c2,0 3.929,-0.233 5.792,-0.704c1.858,-0.475 3.454,-1.183 4.792,-2.125l-3.5,-9.167c-1.446,1.108 -3.196,1.662 -5.25,1.662" style="fill:#fff;fill-rule:nonzero;"/><path d="M540.384,224.838c-2.221,0 -4.125,0.738 -5.708,2.204c-1.583,1.475 -2.375,3.408 -2.375,5.796c0,2.387 0.792,4.346 2.375,5.875c1.583,1.525 3.488,2.292 5.708,2.292c2.279,0 4.196,-0.767 5.75,-2.292c1.554,-1.529 2.329,-3.488 2.329,-5.875c0,-2.388 -0.775,-4.321 -2.329,-5.796c-1.554,-1.467 -3.471,-2.204 -5.75,-2.204" style="fill:#fff;fill-rule:nonzero;"/></g></svg>