<?xml version="1.0" encoding="UTF-8"?>
<svg id="Layer_2" data-name="Layer 2" xmlns="http://www.w3.org/2000/svg" viewBox="0 0 131.63 61.56">
  <defs>
    <style>
      .cls-1 {
        fill: #252525;
      }

      .cls-2 {
        fill: #76b581;
      }
    </style>
  </defs>
  <g id="Layer_1-2" data-name="Layer 1">
    <g>
      <path class="cls-2" d="M41.2,15.86l-4.3-13.22c1.35-.41,2.73-.74,4.09-1.03,2.32-.46,4.57-.74,6.73-.83v14.05c0,3.8-5.35,4.65-6.52,1.03Z"/>
      <path class="cls-1" d="M38.04,38.03L18.73,11.46c4.8-3.33,9.83-5.95,15-7.8l10.19,31.37c1.18,3.62-3.64,6.07-5.88,3Z"/>
      <path class="cls-2" d="M41.89,60.11L0,29.67c4.81-6.37,10.23-11.84,16.02-16.26l30.53,42.03c2.24,3.08-1.59,6.9-4.67,4.67Z"/>
      <path class="cls-1" d="M67.15,12.43c.65-1.05.98-2.28.98-3.69s-.33-2.66-.98-3.7-1.56-1.85-2.72-2.43-2.5-.87-4.02-.87h-6.36v14h6.36c1.52,0,2.86-.29,4.02-.87s2.07-1.39,2.72-2.44ZM62.68,12.55c-.69.35-1.5.53-2.43.53h-2.96V4.4h2.96c.93,0,1.74.18,2.43.53.69.35,1.22.85,1.6,1.5.38.65.57,1.42.57,2.31s-.19,1.65-.57,2.3c-.38.65-.91,1.16-1.6,1.51Z"/>
      <path class="cls-1" d="M80.87,10.81c.01-.15.02-.29.02-.41,0-1.16-.25-2.16-.74-2.99-.49-.83-1.16-1.47-2.01-1.92-.85-.45-1.8-.67-2.85-.67s-2.07.24-2.94.71c-.87.47-1.55,1.13-2.05,1.96-.5.83-.75,1.79-.75,2.87s.25,2.02.76,2.85c.51.83,1.22,1.49,2.15,1.97s2,.72,3.23.72c.97,0,1.83-.15,2.58-.45.75-.3,1.37-.73,1.86-1.29l-1.66-1.8c-.36.35-.76.61-1.19.78-.43.17-.94.26-1.51.26-.64,0-1.2-.12-1.67-.35-.47-.23-.84-.57-1.1-1.02-.14-.24-.24-.51-.3-.79h8.13c.01-.13.03-.28.04-.43ZM73.9,7.53c.41-.23.88-.35,1.41-.35s1,.12,1.4.35c.4.23.71.56.94.97.15.27.23.59.28.92h-5.26c.05-.33.13-.64.28-.91.23-.42.54-.75.95-.98Z"/>
      <path class="cls-1" d="M89.34,15.46c.75-.29,1.33-.7,1.73-1.21.4-.51.6-1.1.6-1.77,0-.61-.12-1.11-.36-1.49-.24-.38-.55-.68-.93-.9-.38-.22-.8-.39-1.27-.51-.47-.12-.93-.21-1.39-.27s-.88-.13-1.27-.21-.7-.19-.93-.32c-.23-.13-.35-.33-.35-.6,0-.29.16-.53.48-.72.32-.19.83-.28,1.52-.28.49,0,1,.06,1.53.17.53.11,1.05.32,1.57.63l1.04-2.22c-.51-.31-1.14-.54-1.9-.7-.76-.16-1.51-.24-2.24-.24-1.04,0-1.93.15-2.68.45-.75.3-1.32.71-1.71,1.23-.39.52-.59,1.12-.59,1.8,0,.61.12,1.11.35,1.5s.54.69.93.92c.39.23.81.4,1.28.51s.93.2,1.39.27c.46.07.88.13,1.27.2.39.07.7.16.93.29.23.13.35.32.35.57,0,.31-.15.55-.45.72s-.81.26-1.53.26c-.65,0-1.32-.1-1.99-.29-.67-.19-1.26-.44-1.75-.75l-1.04,2.24c.49.33,1.16.61,2.01.83.85.22,1.73.33,2.65.33,1.08,0,2-.15,2.75-.44Z"/>
      <path class="cls-1" d="M95.15,3.48c.59,0,1.06-.17,1.41-.51.35-.34.53-.77.53-1.29,0-.49-.18-.9-.54-1.21-.36-.31-.83-.47-1.4-.47s-1.04.17-1.4.5c-.36.33-.54.75-.54,1.24s.18.91.54,1.24c.36.33.83.5,1.4.5Z"/>
      <rect class="cls-1" x="93.59" y="4.98" width="3.12" height="10.76"/>
      <path class="cls-1" d="M106.84,16.54c-.5.49-1.3.74-2.41.74-.68,0-1.37-.11-2.07-.33-.7-.22-1.28-.52-1.73-.89l-1.24,2.24c.63.49,1.41.86,2.35,1.11.94.25,1.92.37,2.93.37,1.95,0,3.44-.47,4.48-1.42,1.04-.95,1.56-2.42,1.56-4.42V4.98h-2.96v1.38c-.32-.41-.71-.75-1.16-.99-.69-.37-1.49-.55-2.4-.55-1,0-1.9.21-2.71.64s-1.45,1.03-1.94,1.81c-.49.78-.73,1.7-.73,2.75s.24,1.95.73,2.73c.49.78,1.13,1.39,1.94,1.82.81.43,1.71.65,2.71.65.91,0,1.71-.19,2.4-.56.38-.21.71-.48,1-.8v.48c0,.97-.25,1.71-.75,2.2ZM107.27,11.4c-.24.4-.57.71-1,.93-.43.22-.91.33-1.46.33s-1.03-.11-1.46-.33c-.43-.22-.76-.53-1.01-.93-.25-.4-.37-.86-.37-1.38s.12-1,.37-1.39.58-.7,1.01-.92c.43-.22.91-.33,1.46-.33s1.03.11,1.46.33c.43.22.76.53,1,.92.24.39.36.86.36,1.39s-.12.98-.36,1.38Z"/>
      <path class="cls-1" d="M120.92,8.14c.38.41.57,1.05.57,1.92v5.68h3.12v-6.16c0-1.09-.19-1.99-.58-2.69-.39-.7-.92-1.22-1.59-1.56-.67-.34-1.44-.51-2.29-.51-.92,0-1.74.19-2.46.58-.43.23-.79.53-1.1.87v-1.29h-2.98v10.76h3.12v-5.32c0-.67.11-1.21.33-1.64.22-.43.53-.74.92-.95.39-.21.84-.31,1.33-.31.69,0,1.23.21,1.61.62Z"/>
      <path class="cls-1" d="M129.99,15.35c.37-.37.56-.84.56-1.41s-.19-1.04-.56-1.39c-.37-.35-.83-.53-1.38-.53s-.99.18-1.37.53c-.38.35-.57.82-.57,1.39s.19,1.04.57,1.41c.38.37.84.55,1.37.55s1.01-.18,1.38-.55Z"/>
      <path class="cls-1" d="M54.05,37.52h7.24c1.84,0,3.23-.34,4.18-1.01.95-.67,1.42-1.61,1.42-2.81,0-.81-.19-1.5-.57-2.06-.38-.56-.91-.98-1.59-1.27-.14-.06-.29-.08-.44-.13.56-.29,1.02-.67,1.36-1.17.36-.54.54-1.18.54-1.91,0-1.09-.44-1.97-1.33-2.64-.89-.67-2.21-1-3.97-1h-6.84v14ZM62.96,34.67c-.43.27-1.07.41-1.91.41h-3.78v-3.46h3.78c.84,0,1.48.14,1.91.43.43.29.65.72.65,1.31s-.22,1.04-.65,1.31ZM60.49,25.96c.79,0,1.39.14,1.81.41s.63.68.63,1.23-.21.98-.63,1.25-1.02.41-1.81.41h-3.22v-3.3h3.22Z"/>
      <path class="cls-1" d="M79.97,26.76h-3.12v5.32c0,.65-.11,1.2-.32,1.63-.21.43-.51.75-.88.96-.37.21-.8.31-1.28.31-.69,0-1.23-.21-1.61-.63s-.57-1.08-.57-1.97v-5.62h-3.12v6.08c0,1.11.19,2.02.58,2.73.39.71.93,1.24,1.63,1.59.7.35,1.5.52,2.39.52.83,0,1.59-.19,2.29-.57.41-.22.76-.52,1.05-.87v1.28h2.96v-10.76Z"/>
      <rect class="cls-1" x="82.87" y="26.76" width="3.12" height="10.76"/>
      <path class="cls-1" d="M85.83,22.25c-.36-.31-.83-.47-1.4-.47s-1.04.17-1.4.5c-.36.33-.54.75-.54,1.24s.18.91.54,1.24c.36.33.83.5,1.4.5s1.06-.17,1.41-.51c.35-.34.53-.77.53-1.29,0-.49-.18-.9-.54-1.21Z"/>
      <rect class="cls-1" x="88.89" y="22.68" width="3.12" height="14.84"/>
      <path class="cls-1" d="M102.75,27.89c-.25-.27-.53-.51-.84-.69-.68-.4-1.47-.6-2.38-.6-1.01,0-1.93.23-2.74.68-.81.45-1.46,1.09-1.93,1.92-.47.83-.71,1.81-.71,2.94s.24,2.09.71,2.92c.47.83,1.12,1.47,1.93,1.93.81.46,1.73.69,2.74.69.95,0,1.76-.2,2.43-.6.35-.21.66-.48.93-.81v1.25h2.98v-14.84h-3.12v5.21ZM102.44,33.73c-.25.45-.58.79-.99,1.03-.41.24-.87.36-1.38.36s-.99-.12-1.4-.36c-.41-.24-.74-.58-.99-1.03-.25-.45-.37-.98-.37-1.59s.12-1.16.37-1.6.58-.78.99-1.02c.41-.24.88-.36,1.4-.36s.97.12,1.38.36c.41.24.74.58.99,1.02s.37.97.37,1.6-.12,1.14-.37,1.59Z"/>
      <path class="cls-1" d="M109.93,37.68c.55,0,1.01-.18,1.38-.55.37-.37.56-.84.56-1.41s-.19-1.04-.56-1.39c-.37-.35-.83-.53-1.38-.53s-.99.18-1.37.53c-.38.35-.57.82-.57,1.39s.19,1.04.57,1.41c.38.37.84.55,1.37.55Z"/>
      <path class="cls-1" d="M54.05,57.68h3.24v-3.9h2.82c.05,0,.1,0,.15,0l2.69,3.91h3.5l-3.13-4.49s.02,0,.03-.01c.91-.4,1.61-.98,2.1-1.73.49-.75.74-1.65.74-2.69s-.25-1.96-.74-2.72c-.49-.76-1.19-1.34-2.1-1.75-.91-.41-1.99-.61-3.24-.61h-6.06v14ZM62.17,46.96c.49.43.74,1.03.74,1.8s-.25,1.36-.74,1.79c-.49.43-1.24.65-2.24.65h-2.64v-4.88h2.64c1,0,1.75.21,2.24.64Z"/>
      <path class="cls-1" d="M79.05,52.75c.01-.15.02-.29.02-.41,0-1.16-.25-2.16-.74-2.99-.49-.83-1.16-1.47-2.01-1.92-.85-.45-1.8-.67-2.85-.67s-2.07.24-2.94.71c-.87.47-1.55,1.13-2.05,1.96s-.75,1.79-.75,2.87.25,2.02.76,2.85c.51.83,1.22,1.49,2.15,1.97.93.48,2,.72,3.23.72.97,0,1.83-.15,2.58-.45.75-.3,1.37-.73,1.86-1.29l-1.66-1.8c-.36.35-.76.61-1.19.78-.43.17-.94.26-1.51.26-.64,0-1.2-.12-1.67-.35-.47-.23-.84-.57-1.1-1.02-.14-.24-.24-.51-.3-.79h8.13c.01-.13.03-.28.04-.43ZM72.08,49.47c.41-.23.88-.35,1.41-.35s1,.12,1.4.35c.4.23.71.56.94.97.15.27.23.59.28.92h-5.26c.05-.33.13-.64.28-.91.23-.42.54-.75.95-.98Z"/>
      <path class="cls-1" d="M90.24,47.45c-.81-.46-1.72-.69-2.73-.69-.95,0-1.76.2-2.44.6-.36.21-.67.48-.94.81v-1.25h-2.98v14.64h3.12v-5.03c.25.28.54.52.86.71.68.4,1.47.6,2.38.6,1.01,0,1.92-.23,2.73-.68.81-.45,1.45-1.09,1.92-1.92.47-.83.71-1.81.71-2.94s-.24-2.09-.71-2.92c-.47-.83-1.11-1.47-1.92-1.93ZM89.34,53.89c-.25.45-.57.79-.98,1.03-.41.24-.87.36-1.39.36s-.99-.12-1.4-.36c-.41-.24-.74-.58-.98-1.03-.24-.45-.36-.98-.36-1.59s.12-1.16.36-1.6c.24-.44.57-.78.98-1.02.41-.24.88-.36,1.4-.36s.98.12,1.39.36c.41.24.73.58.98,1.02.25.44.37.97.37,1.6s-.12,1.14-.37,1.59Z"/>
      <path class="cls-1" d="M102.74,47.43c-.85-.45-1.8-.67-2.85-.67s-2.07.24-2.94.71c-.87.47-1.55,1.13-2.05,1.96s-.75,1.79-.75,2.87.25,2.02.76,2.85c.51.83,1.22,1.49,2.15,1.97.93.48,2,.72,3.23.72.97,0,1.83-.15,2.58-.45.75-.3,1.37-.73,1.86-1.29l-1.66-1.8c-.36.35-.76.61-1.19.78-.43.17-.94.26-1.51.26-.64,0-1.2-.12-1.67-.35-.47-.23-.84-.57-1.1-1.02-.14-.24-.24-.51-.3-.79h8.13c.01-.13.03-.28.04-.43.01-.15.02-.29.02-.41,0-1.16-.25-2.16-.74-2.99-.49-.83-1.16-1.47-2.01-1.92ZM98.5,49.47c.41-.23.88-.35,1.41-.35s1,.12,1.4.35c.4.23.71.56.94.97.15.27.23.59.28.92h-5.26c.05-.33.13-.64.28-.91.23-.42.54-.75.95-.98Z"/>
      <path class="cls-1" d="M111.61,46.76c-.85,0-1.69.11-2.52.34-.83.23-1.53.55-2.12.96l1.12,2.18c.39-.31.86-.55,1.41-.73.55-.18,1.12-.27,1.69-.27.84,0,1.46.19,1.87.56.41.37.61.89.61,1.56h-2.48c-1.09,0-1.98.14-2.66.41-.68.27-1.18.65-1.49,1.13-.31.48-.47,1.04-.47,1.68s.16,1.17.48,1.66c.32.49.78.88,1.38,1.17.6.29,1.32.43,2.16.43.95,0,1.72-.18,2.32-.54.41-.25.72-.57.96-.98v1.36h2.92v-6.14c0-1.64-.45-2.85-1.36-3.62-.91-.77-2.18-1.16-3.82-1.16ZM112.77,55.37c-.41.25-.88.37-1.4.37-.55,0-.98-.12-1.29-.35s-.47-.55-.47-.95c0-.36.14-.66.41-.9.27-.24.78-.36,1.51-.36h2.14v1.1c-.19.48-.49.84-.9,1.09Z"/>
      <path class="cls-1" d="M124.45,55.36c-.41,0-.74-.12-.98-.37-.24-.25-.36-.6-.36-1.05v-4.38h2.68v-2.4h-2.68v-2.62h-3.12v2.62h-1.66v2.4h1.66v4.42c0,1.28.35,2.24,1.06,2.89.71.65,1.69.97,2.96.97.48,0,.94-.06,1.39-.17.45-.11.83-.28,1.15-.51l-.84-2.2c-.35.27-.77.4-1.26.4Z"/>
      <path class="cls-1" d="M129.69,53.96c-.53,0-.99.18-1.37.53-.38.35-.57.82-.57,1.39s.19,1.04.57,1.41c.38.37.84.55,1.37.55s1.01-.18,1.38-.55c.37-.37.56-.84.56-1.41s-.19-1.04-.56-1.39c-.37-.35-.83-.53-1.38-.53Z"/>
    </g>
  </g>
</svg>