<?xml version="1.0" encoding="UTF-8" standalone="no"?><!DOCTYPE svg PUBLIC "-//W3C//DTD SVG 1.1//EN" "http://www.w3.org/Graphics/SVG/1.1/DTD/svg11.dtd"><svg width="100%" height="100%" viewBox="0 0 2084 2084" version="1.1" xmlns="http://www.w3.org/2000/svg" xmlns:xlink="http://www.w3.org/1999/xlink" xml:space="preserve" xmlns:serif="http://www.serif.com/" style="fill-rule:evenodd;clip-rule:evenodd;stroke-linejoin:round;stroke-miterlimit:2;"><g><rect x="0" y="0" width="2083.333" height="2083.333" style="fill:#e91a1a;fill-opacity:0;"/><g><path d="M1187.725,1016.741l0,183.849l166.511,96.155l0,-183.866l-166.511,-96.138Z" style="fill:#a8a9ac;fill-rule:nonzero;"/><path d="M1187.725,1016.741l126.073,-72.744l166.546,96.138l-126.107,72.744l-166.511,-96.138Z" style="fill:#bdbec0;fill-rule:nonzero;"/><path d="M1354.236,1112.879l126.107,-72.744l0,133.029l-29.225,67.691l-96.882,55.89l0,-183.866Z" style="fill:#949699;fill-rule:nonzero;"/><path d="M1067.985,1819.292l-755.485,-436.168l0,-103.457l755.485,436.203l0,103.423Z" style="fill:#1b364e;fill-rule:nonzero;"/><path d="M1067.985,1819.292l0,-103.423l595.688,-343.941l0,103.457l-595.688,343.906Z" style="fill:#0d2033;fill-rule:nonzero;"/><path d="M1068.003,1715.869l-755.503,-436.203l595.688,-343.923l755.485,436.185l-595.67,343.941Z" style="fill:#284e68;fill-rule:nonzero;"/><path d="M1613.044,1342.738l-636.057,-367.196l-100.274,0l-494.895,285.749l0,36.77l642.926,371.193l86.482,0l533.673,-308.14l0,-14.033l-31.856,-4.343Z" style="fill:#131315;fill-rule:nonzero;"/><path d="M926.841,932.543l-545.023,314.697l0,36.787l642.926,371.176l86.482,0l533.673,-308.122l-718.058,-414.538Z" style="fill:#535359;fill-rule:nonzero;"/><path d="M1105.689,1634.612l-75.408,0l-627.855,-362.489l0,-12.995l524.415,-302.81l676.841,390.764l-497.993,287.531Zm-217.331,-401.353l-82.451,44.643l270.21,156.008l82.434,-44.66l-270.193,-155.99Z" style="fill:#3b3b3e;fill-rule:nonzero;"/><path d="M1076.118,1433.909l-270.21,-156.008l82.451,-44.643l270.193,155.99l-82.434,44.66Z" style="fill:#28292a;fill-rule:nonzero;"/><path d="M848.422,1265.236l8.219,41.961l79.889,-46.148c-0.086,-1.99 -0.138,-3.945 -0.138,-5.901c0,-18.515 4.032,-33.603 11.161,-44.712c0,0 -78.887,-5.866 -99.131,54.8Z" style="fill:#a8a9ac;fill-rule:nonzero;"/><path d="M1062.846,955.262l-192.258,-50.768c0,136.731 50.076,214.113 159.676,397.581l45.854,131.835l82.434,-44.66l0,-21.3c0,-202.848 -190.39,-298.623 -95.705,-412.687Z" style="fill:#d2d3d4;fill-rule:nonzero;"/><path d="M980.395,999.904l-208.005,-120.085c0,136.749 169.158,310.596 33.517,376.782l0,21.3l50.734,29.295c-0.087,-1.99 -0.139,-3.962 -0.139,-5.935c0,-59.558 41.823,-83.714 93.422,-53.917c51.564,29.796 93.421,102.229 93.421,161.787c0,1.955 -0.069,3.893 -0.156,5.762l32.929,19.016l0,-21.318c0,-202.848 -190.407,-298.623 -95.723,-412.687Z" style="fill:#e7e7e8;fill-rule:nonzero;"/><path d="M980.395,999.904l-208.005,-120.085l82.468,-44.643l207.988,120.086l-82.451,44.643Z" style="fill:#fff;fill-rule:nonzero;"/><path d="M966.31,981.425l-161.302,-93.144l63.953,-34.607l161.303,93.144l-63.954,34.607Z" style="fill:#a8a9ac;fill-rule:nonzero;"/><path d="M1224.425,1144.163l0,23.879l63.106,36.406l0,-23.844l-63.106,-36.441Z" style="fill:#a8a9ac;fill-rule:nonzero;"/><path d="M1224.425,1144.163l55.181,-55.682l63.105,36.406l-55.181,55.717l-63.106,-36.441Z" style="fill:#bdbec0;fill-rule:nonzero;"/><path d="M1287.531,1180.605l55.181,-55.717l0,47.74l-55.181,31.821l0,-23.844Z" style="fill:#949699;fill-rule:nonzero;"/><path d="M1341.726,1080.141l83.074,-48.138l0,-57.067l-83.074,48.017l0,57.188Z" style="fill:#1b623c;fill-rule:nonzero;"/><path d="M1341.726,1080.141l0,-57.188l-99.028,-57.119l0,57.119l99.028,57.188Z" style="fill:#3ec11c;fill-rule:nonzero;"/><path d="M1341.726,1022.953l83.074,-48.017l-99.011,-57.223l-83.091,48.121l99.028,57.119Z" style="fill:#95e9ab;fill-rule:nonzero;"/><path d="M1397.599,841.111l0,140.14l-41.632,24.051l0,-140.106l41.632,-24.086Z" style="fill:#535359;fill-rule:nonzero;"/><path d="M1397.599,841.111l-41.632,24.086l-80.825,-46.737l41.65,-24.051l80.807,46.702Z" style="fill:#a8a9ac;fill-rule:nonzero;"/><path d="M1355.967,865.198l0,140.106l-80.876,-46.667l0.052,-140.175l80.825,46.737Z" style="fill:#bdbec0;fill-rule:nonzero;"/><path d="M1328.229,849.157l-0.035,140.157l-25.055,-14.517l0.017,-140.123l25.073,14.483Z" style="fill:#949699;fill-rule:nonzero;"/><path d="M1306.911,841.301l4.672,2.751l0.052,125.087l12.563,7.233l-0.035,5.416l-17.234,-9.932l-0.017,-130.555Z" style="fill:#2f3033;fill-rule:nonzero;"/><path d="M1311.583,844.053l12.545,7.198l0.069,125.121l-12.563,-7.233l-0.052,-125.087Z" style="fill:#535359;fill-rule:nonzero;"/><path d="M1341.726,882.259l83.074,-48.138l0,-190.545l-83.074,48.034l0,190.649Z" style="fill:#1b623c;fill-rule:nonzero;"/><path d="M1341.726,882.259l0,-190.649l-99.028,-57.084l0,190.528l99.028,57.205Z" style="fill:#3ec11c;fill-rule:nonzero;"/><path d="M1341.726,691.609l83.074,-48.034l-99.011,-57.205l-83.091,48.155l99.028,57.084Z" style="fill:#95e9ab;fill-rule:nonzero;"/><path d="M1397.599,544.305l0,104.755l-41.632,24.034l0,-104.755l41.632,-24.035Z" style="fill:#535359;fill-rule:nonzero;"/><path d="M1397.599,544.305l-41.632,24.035l-80.825,-46.702l41.65,-24.052l80.807,46.719Z" style="fill:#a8a9ac;fill-rule:nonzero;"/><path d="M1355.967,568.34l0,104.755l-80.876,-46.633l0.052,-104.824l80.825,46.702Z" style="fill:#bdbec0;fill-rule:nonzero;"/><path d="M1328.229,552.351l-0.035,104.738l-25.055,-14.5l0.017,-104.72l25.073,14.483Z" style="fill:#949699;fill-rule:nonzero;"/><path d="M1306.911,544.461l4.672,2.786l0.052,89.683l12.563,7.233l-0.035,5.416l-17.234,-9.95l-0.017,-95.169Z" style="fill:#2f3033;fill-rule:nonzero;"/><path d="M1311.583,547.247l12.545,7.198l0.069,89.718l-12.563,-7.233l-0.052,-89.683Z" style="fill:#535359;fill-rule:nonzero;"/><path d="M1004.17,929.549c1.627,0.9 4.153,0.9 5.745,0c1.61,-0.935 1.61,-2.423 0,-3.323c-1.592,-0.934 -4.118,-0.934 -5.745,0c-1.574,0.9 -1.574,2.388 0,3.323Z" style="fill:#9c2720;fill-rule:nonzero;"/><path d="M1014.639,902.192l0,27.564l-0.069,0l-2.111,3.011c-2.872,1.592 -7.475,1.592 -10.347,0l-2.111,-3.011l0,-27.564l14.639,0Z" style="fill:#131315;fill-rule:nonzero;"/><path d="M1002.111,905.238c2.873,1.575 7.475,1.575 10.347,0c2.855,-1.713 2.855,-4.378 0,-6.005c-2.872,-1.661 -7.475,-1.661 -10.347,0c-2.855,1.626 -2.855,4.292 0,6.005Z" style="fill:#5c5d5d;fill-rule:nonzero;"/><path d="M1028.707,895.098l0,6.177l-0.121,0c0,3.201 -2.059,6.246 -6.229,8.738c-8.306,4.828 -21.889,4.828 -30.229,0c-4.17,-2.492 -6.264,-5.537 -6.264,-8.738l0,-6.177l42.844,0Z" style="fill:#1b623c;fill-rule:nonzero;"/><path d="M992.127,903.836c8.34,4.758 21.923,4.758 30.229,0c8.305,-4.828 8.305,-12.649 0,-17.425c-8.306,-4.828 -21.889,-4.828 -30.229,0c-8.34,4.776 -8.34,12.597 0,17.425Z" style="fill:#95e9ab;fill-rule:nonzero;"/><path d="M1022.823,859.747l0,34.053l-0.086,0c0,2.18 -1.505,4.533 -4.499,6.246c-6.074,3.547 -15.902,3.547 -21.906,0c-3.028,-1.713 -4.586,-4.066 -4.586,-6.246l0,-34.053l31.077,0Z" style="fill:#131315;fill-rule:nonzero;"/><path d="M996.332,866.063c6.004,3.547 15.832,3.547 21.906,0c6.056,-3.495 6.056,-9.119 0,-12.614c-6.074,-3.564 -15.902,-3.564 -21.906,0c-6.109,3.495 -6.056,9.119 0,12.614Z" style="fill:#5c5d5d;fill-rule:nonzero;"/><path d="M1040.404,857.584l0,9.499l-0.208,0c0,4.897 -3.27,9.759 -9.655,13.497c-12.891,7.406 -33.742,7.406 -46.615,0c-6.454,-3.738 -9.672,-8.599 -9.672,-13.497l0,-9.499l66.151,0Z" style="fill:#1b623c;fill-rule:nonzero;"/><path d="M983.908,871.046c12.891,7.44 33.724,7.44 46.615,0c12.857,-7.44 12.857,-19.449 0,-26.889c-12.891,-7.458 -33.724,-7.458 -46.615,0c-12.874,7.44 -12.856,19.449 0,26.889Z" style="fill:#95e9ab;fill-rule:nonzero;"/><path d="M1032.133,827.822l0,27.461l-0.191,0c0,3.634 -2.405,7.285 -7.215,10.071c-9.638,5.589 -25.332,5.589 -35.022,0c-4.793,-2.786 -7.25,-6.437 -7.25,-10.071l0,-27.461l49.678,0Z" style="fill:#131315;fill-rule:nonzero;"/><path d="M989.704,837.962c9.69,5.554 25.384,5.554 35.022,0c9.707,-5.658 9.707,-14.691 0,-20.28c-9.638,-5.589 -25.332,-5.589 -35.022,0c-9.638,5.589 -9.638,14.621 0,20.28Z" style="fill:#5c5d5d;fill-rule:nonzero;"/><path d="M1049.09,810.882l0,12.112l-0.225,0c0,6.109 -4.083,12.268 -12.181,16.975c-16.283,9.378 -42.705,9.378 -58.953,0c-8.15,-4.707 -12.303,-10.866 -12.303,-16.975l0,-12.112l83.662,0Z" style="fill:#1b623c;fill-rule:nonzero;"/><path d="M977.731,827.909c16.248,9.413 42.67,9.413 58.953,0c16.265,-9.413 16.265,-24.606 0,-34.053c-16.283,-9.378 -42.705,-9.378 -58.953,0c-16.369,9.448 -16.334,24.64 0,34.053Z" style="fill:#95e9ab;fill-rule:nonzero;"/><path d="M1039.746,785.048l0,22.72l-0.19,0c0,4.81 -3.166,9.552 -9.465,13.185c-12.649,7.302 -33.136,7.302 -45.767,0c-6.316,-3.634 -9.465,-8.375 -9.465,-13.185l0,-22.72l64.888,0Z" style="fill:#1b623c;fill-rule:nonzero;"/><path d="M984.323,798.25c12.631,7.268 33.119,7.268 45.767,0c12.649,-7.302 12.649,-19.137 0,-26.405c-12.649,-7.319 -33.136,-7.319 -45.767,0c-12.649,7.268 -12.649,19.103 0,26.405Z" style="fill:#95e9ab;fill-rule:nonzero;"/><path d="M1034.659,775.549l0,7.873l-0.138,0c0,4.067 -2.665,8.098 -7.994,11.161c-10.659,6.16 -27.911,6.16 -38.569,0c-5.399,-3.063 -8.029,-7.094 -8.029,-11.161l0,-7.873l54.731,0Z" style="fill:#1b623c;fill-rule:nonzero;"/><path d="M987.957,786.674c10.659,6.16 27.911,6.16 38.569,0c10.659,-6.091 10.659,-16.144 0,-22.287c-10.659,-6.142 -27.911,-6.142 -38.569,0c-10.728,6.143 -10.728,16.196 0,22.287Z" style="fill:#95e9ab;fill-rule:nonzero;"/><path d="M996.557,846.96l124.308,-71.688l0,-68.02l-149.554,53.917l25.246,85.791Z" style="fill:#1b623c;fill-rule:nonzero;"/><path d="M996.557,846.96l0,-68.054l-99.097,-57.153l0,68.037l99.097,57.17Z" style="fill:#3ec11c;fill-rule:nonzero;"/><path d="M996.557,778.905l124.308,-71.654l-99.045,-57.222l-124.36,71.723l99.097,57.153Z" style="fill:#95e9ab;fill-rule:nonzero;"/><path d="M1539.556,541.416l42.463,-24.519l0,-167.204l-42.463,24.433l0,167.29Z" style="fill:#1b623c;fill-rule:nonzero;"/><path d="M1539.556,541.416l0,-167.29l-148.273,-85.566l0,167.307l148.273,85.548Z" style="fill:#3ec11c;fill-rule:nonzero;"/><path d="M1539.556,374.126l42.463,-24.433l-148.291,-85.652l-42.445,24.519l148.273,85.566Z" style="fill:#95e9ab;fill-rule:nonzero;"/><path d="M996.557,778.905l519.276,-299.713l0,-68.037l-441.583,222.574l-77.692,145.176Z" style="fill:#1b623c;fill-rule:nonzero;"/><path d="M996.557,778.905l102.938,-127.44l-99.062,-57.17l-102.973,127.457l99.097,57.153Z" style="fill:#3ec11c;fill-rule:nonzero;"/><path d="M1099.495,651.465l416.338,-240.31l-99.079,-57.223l-416.321,240.362l99.062,57.17Z" style="fill:#95e9ab;fill-rule:nonzero;"/><path d="M1454.406,406.138l-294.401,169.972l-28.655,-16.559l294.383,-169.955l28.672,16.543Z" style="fill:#535359;fill-rule:nonzero;"/><path d="M1430.388,412.817l6.108,-3.564l-16.196,-9.327l-267.805,154.606l6.16,3.547l261.645,-151.076l10.088,5.814Z" style="fill:#131315;fill-rule:nonzero;"/><path d="M1168.691,563.876l261.697,-151.059l-10.088,-5.814l-261.645,151.076l10.036,5.797Z" style="fill:#2f3033;fill-rule:nonzero;"/><path d="M1141.006,570.209l0,24.675c0,6.229 -4.136,12.441 -12.355,17.217c-16.473,9.5 -43.155,9.5 -59.627,0c-8.202,-4.776 -12.338,-10.988 -12.338,-17.217l0,-24.675l84.32,0Z" style="fill:#2f3033;fill-rule:nonzero;"/><path d="M1069.024,587.408c16.473,9.5 43.155,9.5 59.627,0c16.49,-9.482 16.49,-24.951 0,-34.382c-16.473,-9.552 -43.155,-9.552 -59.627,0c-16.438,9.431 -16.438,24.9 0,34.382Z" style="fill:#535359;fill-rule:nonzero;"/><path d="M1136.386,529.753l0,38.24c0,5.572 -3.668,11.161 -11.022,15.349c-14.605,8.496 -38.379,8.496 -53.052,0c-7.319,-4.188 -10.936,-9.776 -10.936,-15.349l0,-38.24l75.011,0Z" style="fill:#2f3033;fill-rule:nonzero;"/><path d="M1072.311,545.032c14.673,8.513 38.448,8.513 53.052,0c14.656,-8.444 14.656,-22.183 0,-30.609c-14.605,-8.462 -38.379,-8.462 -53.052,0c-14.604,8.427 -14.604,22.166 0,30.609Z" style="fill:#535359;fill-rule:nonzero;"/><path d="M1093.439,532.868c3.01,1.73 7.821,1.73 10.832,0c2.976,-1.73 2.976,-4.533 0,-6.264c-3.01,-1.713 -7.821,-1.713 -10.832,0c-2.994,1.73 -2.994,4.534 0,6.264Z" style="fill:#030404;fill-rule:nonzero;"/><path d="M1518.342,1683.027l252.491,-145.781l0,-161.026l-277.737,127.994l25.246,178.814Z" style="fill:#1b623c;fill-rule:nonzero;"/><path d="M1518.342,1683.027l0,-161.095l-99.062,-57.153l0,161.095l99.062,57.153Z" style="fill:#3ec11c;fill-rule:nonzero;"/><path d="M1518.342,1521.932l252.491,-145.712l-99.062,-57.223l-252.491,145.782l99.062,57.153Z" style="fill:#95e9ab;fill-rule:nonzero;"/><path d="M1521.491,1511.273l231.728,-133.807l-78.211,-42.878l-237.472,128.201l83.956,48.484Z" style="fill:#131315;fill-rule:nonzero;"/><path d="M1645.124,1261.17l1.056,-0.883l-11.195,-6.489c-20.954,-11.887 -49.765,-10.071 -81.586,8.288c-63.988,36.943 -115.864,126.817 -115.864,200.703l12.718,7.354l8.807,-19.778l210.22,-121.366c0,-30.8 -9.015,-53.969 -24.156,-67.829Z" style="fill:#bdbec0;fill-rule:nonzero;"/><path d="M1566.151,1269.457c-64.005,36.943 -115.898,126.783 -115.898,200.686l231.762,-133.807c0,-73.869 -51.875,-103.838 -115.864,-66.878Z" style="fill:#949699;fill-rule:nonzero;"/><path d="M1693.435,1314.671l0.917,-0.761l-57.223,-33.084c-17.943,-10.192 -42.653,-8.617 -69.906,7.129c-54.835,31.648 -99.304,108.666 -99.304,171.996l58.555,33.811l7.544,-16.958l180.129,-104.028c0,-26.37 -7.717,-46.217 -20.712,-58.105Z" style="fill:#535359;fill-rule:nonzero;"/><path d="M1575.062,1292.489c26.63,-15.365 50.768,-17.217 68.591,-7.856l-3.028,-1.782c-17.943,-10.192 -42.653,-8.634 -69.889,7.094c-54.852,31.682 -99.304,108.7 -99.304,172.03l4.326,2.492c0,-63.296 44.453,-140.314 99.304,-171.979Z" style="fill:#2f3033;fill-rule:nonzero;"/><path d="M1582.936,1297.022c26.613,-15.348 50.768,-17.234 68.608,-7.856l-3.028,-1.782c-17.961,-10.175 -42.67,-8.634 -69.94,7.146c-54.835,31.648 -99.305,108.666 -99.305,171.979l4.361,2.544c0,-63.365 44.453,-140.348 99.305,-172.03Z" style="fill:#2f3033;fill-rule:nonzero;"/><path d="M1590.67,1301.469c26.595,-15.348 50.768,-17.199 68.591,-7.839l-3.045,-1.782c-17.927,-10.174 -42.635,-8.617 -69.906,7.112c-54.834,31.682 -99.322,108.683 -99.322,172.014l4.361,2.509c0.017,-63.313 44.469,-140.331 99.322,-172.014Z" style="fill:#2f3033;fill-rule:nonzero;"/><path d="M1598.595,1306.055c26.63,-15.365 50.751,-17.234 68.573,-7.856l-3.028,-1.782c-17.944,-10.175 -42.653,-8.617 -69.906,7.112c-54.835,31.682 -99.322,108.7 -99.322,172.013l4.378,2.526c0,-63.33 44.453,-140.348 99.305,-172.013Z" style="fill:#2f3033;fill-rule:nonzero;"/><path d="M1606.399,1310.57c26.63,-15.365 50.768,-17.217 68.608,-7.856l-3.063,-1.782c-17.943,-10.174 -42.618,-8.617 -69.889,7.112c-54.852,31.682 -99.304,108.7 -99.322,172.014l4.36,2.526c0,-63.331 44.47,-140.348 99.305,-172.014Z" style="fill:#2f3033;fill-rule:nonzero;"/><path d="M1614.497,1315.243c26.596,-15.365 50.751,-17.217 68.574,-7.856l-3.028,-1.8c-17.961,-10.192 -42.653,-8.6 -69.906,7.129c-54.852,31.666 -99.322,108.683 -99.322,172.014l4.36,2.509c0,-63.33 44.47,-140.331 99.322,-171.996Z" style="fill:#2f3033;fill-rule:nonzero;"/><path d="M1625.779,1321.748c-54.852,31.682 -99.304,108.683 -99.304,172.014l198.609,-114.653c0,-63.331 -44.453,-89.026 -99.305,-57.361Z" style="fill:#949699;fill-rule:nonzero;"/><path d="M1667.169,1303.268l-3.841,-1.8c-17.39,-20.591 -35.662,-41.026 -54.956,-62.656c-44.487,-49.747 -90.445,-101.19 -125.935,-155.454c-40.421,-61.826 -60.96,-118.408 -62.69,-173c-5.693,-178.797 -55.596,-290.836 -96.467,-353.319c-46.01,-70.355 -104.703,-113.822 -153.551,-113.822l-1.332,0.017c-40.386,0.641 -64.49,32.98 -64.49,86.517c0,2.786 -2.25,5.052 -5.052,5.052c-2.769,0 -5.052,-2.266 -5.052,-5.052c0,-30.298 6.956,-54.263 20.625,-71.325c13.064,-16.196 31.666,-24.969 53.797,-25.297l1.453,-0.035c52.257,0 114.22,45.214 162.081,118.39c41.546,63.59 92.349,177.412 98.093,358.561c3.772,118.027 96.415,221.744 186.064,322.034c19.345,21.716 37.653,42.169 55.129,62.864c1.8,2.128 1.54,5.347 -0.606,7.129l-3.27,1.194Z" style="fill:#2f3033;fill-rule:nonzero;"/><path d="M1716.31,1302.282l1.073,-0.9l-11.195,-6.471c-20.937,-11.905 -49.765,-10.071 -81.568,8.306c-63.988,36.926 -115.864,126.8 -115.864,200.685l12.735,7.371l8.791,-19.812l210.202,-121.332c0,-30.835 -9.015,-53.97 -24.173,-67.847Z" style="fill:#bdbec0;fill-rule:nonzero;"/><path d="M1637.355,1310.553c-63.971,36.96 -115.864,126.8 -115.864,200.72l231.728,-133.807c0,-73.903 -51.858,-103.855 -115.864,-66.912Z" style="fill:#949699;fill-rule:nonzero;"/><path d="M1655.039,1406.172c-4.949,-1.35 -11.057,-0.259 -17.684,3.547c-14.31,8.271 -26.284,26.768 -29.26,43.968c-0.484,2.682 -0.727,5.364 -0.727,7.96l59.956,-34.607c0,-11.49 -4.828,-18.878 -12.285,-20.868Z" style="fill:#535359;fill-rule:nonzero;"/><path d="M1667.324,1427.04l-7.112,4.118c0.623,-2.647 0.589,-7.908 0.589,-7.908c0,-7.63 -2.129,-13.444 -5.762,-17.078c7.458,1.99 12.285,9.379 12.285,20.868Z" style="fill:#bdbec0;fill-rule:nonzero;"/></g></g></svg>