<?xml version="1.0" encoding="UTF-8" standalone="no"?><!DOCTYPE svg PUBLIC "-//W3C//DTD SVG 1.1//EN" "http://www.w3.org/Graphics/SVG/1.1/DTD/svg11.dtd"><svg width="100%" height="100%" viewBox="0 0 2084 2084" version="1.1" xmlns="http://www.w3.org/2000/svg" xmlns:xlink="http://www.w3.org/1999/xlink" xml:space="preserve" xmlns:serif="http://www.serif.com/" style="fill-rule:evenodd;clip-rule:evenodd;stroke-linejoin:round;stroke-miterlimit:2;"><g><rect x="0" y="0" width="2083.333" height="2083.333" style="fill:#e91a1a;fill-opacity:0;"/><g><path d="M1770.833,975.689c0,5.047 -4.079,11.486 -9.125,14.401c-5.036,2.904 -9.115,1.175 -9.115,-3.861c0,-5.036 4.079,-11.486 9.115,-14.39c5.047,-2.915 9.125,-1.186 9.125,3.85Z" style="fill:#2d640e;fill-rule:nonzero;"/><path d="M1752.593,986.228c0,-5.036 4.079,-11.486 9.115,-14.39c2.763,-1.599 5.221,-1.795 6.896,-0.827l0.011,0l-181.17,-111.767c-1.675,-0.968 -4.133,-0.761 -6.896,0.826c-5.036,2.904 -9.126,9.343 -9.126,14.39c0,2.284 0.848,3.872 2.23,4.677l181.159,111.778l0.011,-0.011c-1.392,-0.794 -2.23,-2.393 -2.23,-4.677Z" style="fill:#57ce53;fill-rule:nonzero;"/><path d="M1770.833,1024.264c0,5.047 -4.079,11.486 -9.125,14.39c-5.036,2.915 -9.115,1.185 -9.115,-3.85c0,-5.036 4.079,-11.486 9.115,-14.39c5.047,-2.915 9.125,-1.186 9.125,3.85Z" style="fill:#2d640e;fill-rule:nonzero;"/><path d="M1752.593,1034.803c0,-5.036 4.079,-11.486 9.115,-14.39c2.763,-1.599 5.221,-1.784 6.896,-0.827l0.011,0l-181.17,-111.767c-1.675,-0.968 -4.133,-0.772 -6.896,0.827c-5.036,2.904 -9.126,9.354 -9.126,14.39c0,2.284 0.848,3.872 2.23,4.677l181.159,111.778l0.011,-0.011c-1.392,-0.805 -2.23,-2.393 -2.23,-4.677Z" style="fill:#57ce53;fill-rule:nonzero;"/><path d="M1720.203,1110.199l-137.099,-83.216l68.544,-38.862l61.648,52.642l13.998,47.574l-7.092,21.862Z" style="fill:#0a090d;fill-rule:nonzero;"/><path d="M1642.784,1054.652c0,51.696 -41.896,117.782 -93.582,147.627c-51.696,29.845 -93.592,12.138 -93.592,-39.558c0,-51.685 41.896,-117.782 93.592,-147.627c51.685,-29.834 93.582,-12.127 93.582,39.558Z" style="fill:#0a090d;fill-rule:nonzero;"/><path d="M1455.61,1162.721c0,-51.685 41.896,-117.782 93.592,-147.627c28.268,-16.315 53.556,-18.327 70.708,-8.418l0.065,-0.087l-45.127,-25.93c-17.152,-9.909 -42.44,-7.896 -70.708,8.429c-51.696,29.834 -93.592,95.931 -93.592,147.627c0,23.406 8.658,39.765 22.873,47.976l45.007,26.104l0.054,-0.087c-14.216,-8.212 -22.873,-24.559 -22.873,-47.987Z" style="fill:#393942;fill-rule:nonzero;"/><path d="M1705.879,1091.143c0,51.685 -41.907,117.782 -93.592,147.627c-51.685,29.845 -93.592,12.127 -93.592,-39.558c0,-51.685 41.907,-117.782 93.592,-147.627c51.685,-29.834 93.592,-12.127 93.592,39.558Z" style="fill:#0a090d;fill-rule:nonzero;"/><path d="M1663.428,1115.648c0,28.246 -22.895,64.367 -51.141,80.682c-28.246,16.304 -51.141,6.624 -51.141,-21.622c0,-28.246 22.895,-64.367 51.141,-80.671c28.246,-16.315 51.141,-6.635 51.141,21.612Z" style="fill:#2d640e;fill-rule:nonzero;"/><path d="M1656.837,1119.466c0,24.592 -19.948,56.057 -44.55,70.262c-24.603,14.205 -44.55,5.775 -44.55,-18.827c0,-24.603 19.948,-56.068 44.55,-70.273c24.603,-14.205 44.55,-5.775 44.55,18.838Z" style="fill:#328701;fill-rule:nonzero;"/><path d="M1569.063,1159.72l23.678,13.726l39.134,-56.623l-23.678,-13.574c-19.208,12.715 -34.805,35.675 -39.134,56.471Z" style="fill:#2d640e;fill-rule:nonzero;"/><path d="M1638.216,1130.212c0,14.313 -11.616,32.619 -25.93,40.895c-14.314,8.255 -25.93,3.35 -25.93,-10.963c0,-14.313 11.616,-32.619 25.93,-40.885c14.314,-8.277 25.93,-3.361 25.93,10.953Z" style="fill:#57ce53;fill-rule:nonzero;"/><path d="M1518.694,1199.212c0,-51.685 41.907,-117.782 93.592,-147.627c28.268,-16.326 53.556,-18.327 70.719,-8.419l0.054,-0.087l-45.116,-25.93c-17.163,-9.908 -42.451,-7.896 -70.719,8.419c-51.685,29.845 -93.592,95.942 -93.592,147.627c0,23.417 8.669,39.775 22.873,47.987l45.007,26.104l0.054,-0.098c-14.215,-8.201 -22.873,-24.559 -22.873,-47.976Z" style="fill:#393942;fill-rule:nonzero;"/><path d="M1480.648,1222.608c0,51.685 -41.897,117.771 -93.592,147.616c-51.685,29.845 -93.582,12.127 -93.582,-39.558c0,-51.685 41.897,-117.782 93.582,-147.616c51.696,-29.845 93.592,-12.138 93.592,39.558Z" style="fill:#0a090d;fill-rule:nonzero;"/><path d="M1438.208,1247.101c0,28.257 -22.906,64.367 -51.152,80.682c-28.246,16.304 -51.141,6.624 -51.141,-21.612c0,-28.257 22.895,-64.378 51.141,-80.682c28.246,-16.304 51.152,-6.635 51.152,21.612Z" style="fill:#2d640e;fill-rule:nonzero;"/><path d="M1431.606,1250.919c0,24.603 -19.948,56.057 -44.55,70.262c-24.603,14.205 -44.539,5.775 -44.539,-18.827c0,-24.603 19.937,-56.057 44.539,-70.262c24.603,-14.216 44.55,-5.775 44.55,18.827Z" style="fill:#328701;fill-rule:nonzero;"/><path d="M1343.832,1291.173l23.678,13.726l39.134,-56.612l-23.678,-13.574c-19.208,12.704 -34.805,35.664 -39.134,56.46Z" style="fill:#2d640e;fill-rule:nonzero;"/><path d="M1412.985,1261.665c0,14.324 -11.605,32.63 -25.93,40.895c-14.314,8.266 -25.919,3.361 -25.919,-10.963c0,-14.313 11.605,-32.619 25.919,-40.885c14.325,-8.266 25.93,-3.361 25.93,10.953Z" style="fill:#57ce53;fill-rule:nonzero;"/><path d="M1293.474,1330.666c0,-51.685 41.897,-117.782 93.582,-147.616c28.268,-16.326 53.556,-18.338 70.719,-8.43l0.065,-0.087l-45.126,-25.93c-17.163,-9.908 -42.44,-7.896 -70.708,8.43c-51.696,29.834 -93.592,95.931 -93.592,147.616c0,23.417 8.658,39.775 22.874,47.976l44.996,26.104l0.065,-0.087c-14.215,-8.201 -22.873,-24.559 -22.873,-47.976Z" style="fill:#393942;fill-rule:nonzero;"/><path d="M1274.408,1362.752l-129.452,-62.431c0,0 9.593,-98.465 59.636,-148.323c50.054,-49.858 318.497,-215.953 370.269,-229.353c51.772,-13.4 122.208,72.59 122.208,72.59l-171.435,79.681l-183.389,104.306l-44.648,89.873l-23.189,93.658Z" style="fill:#35353f;fill-rule:nonzero;"/><path d="M1731.33,1103.205c0.587,-58.733 -18.447,-92.233 -37.1,-110.941c-15.912,-15.956 -40.732,-18.827 -60.212,-7.494l-285.226,165.845l6.896,48.172l307.914,-174.59c62.496,-5.547 56.601,86.001 56.601,86.001l11.127,-6.994Z" style="fill:#292930;fill-rule:nonzero;"/><path d="M1348.792,1150.616c-58.679,48.292 -74.384,212.136 -74.384,212.136l20.306,-7.886c0,-107.765 60.974,-156.078 60.974,-156.078l-6.896,-48.172Z" style="fill:#292930;fill-rule:nonzero;"/><path d="M999.95,1230.939l32.912,19.349l-113.203,66.173l0.109,-38.927l80.181,-46.595Z" style="fill:#292930;fill-rule:nonzero;"/><path d="M999.95,1230.939l-80.181,46.595l-101.25,-58.733l80.182,-46.595l101.249,58.733Z" style="fill:#35353f;fill-rule:nonzero;"/><path d="M1239.712,1218.942l-0.304,110.19l-226.95,131.888l0.316,-110.201l226.938,-131.878Z" style="fill:#292930;fill-rule:nonzero;"/><path d="M1012.773,1350.82l-0.316,110.201l-84.467,-48.77l0.315,-110.19l84.467,48.759Z" style="fill:#0a090d;fill-rule:nonzero;"/><path d="M1239.712,1218.942l-226.938,131.878l-84.467,-48.759l226.949,-131.889l84.456,48.77Z" style="fill:#35353f;fill-rule:nonzero;"/><path d="M1005.421,1324.934c1.936,1.131 4.492,1.697 7.037,1.686l0,15.662c-2.523,0 -5.047,-0.566 -6.972,-1.686c-1.914,-1.109 -2.861,-2.556 -2.871,-4.013l-0.065,-15.651c0,1.447 0.957,2.904 2.871,4.002Z" style="fill:#0a090d;fill-rule:nonzero;"/><path d="M1019.386,1324.934c1.947,-1.109 2.926,-2.589 2.926,-4.068l0.054,15.662c0.011,1.468 -0.957,2.947 -2.915,4.068c-1.936,1.12 -4.47,1.686 -6.994,1.686l0,-15.662c2.502,-0.011 5.014,-0.576 6.929,-1.686Z" style="fill:#292930;fill-rule:nonzero;"/><path d="M1005.464,1316.853c-3.872,2.24 -3.894,5.862 -0.043,8.081c3.839,2.24 10.093,2.24 13.965,0c3.872,-2.219 3.894,-5.841 0.043,-8.081c-3.85,-2.23 -10.093,-2.23 -13.965,0Z" style="fill:#35353f;fill-rule:nonzero;"/><path d="M1003.017,1322.302c2.599,1.512 6.025,2.262 9.441,2.241l0,6.678c-3.382,0 -6.776,-0.74 -9.354,-2.251c-2.556,-1.479 -3.85,-3.437 -3.85,-5.373l-0.087,-6.689c0,1.958 1.284,3.905 3.85,5.395Z" style="fill:#2d640e;fill-rule:nonzero;"/><path d="M1021.746,1322.302c2.621,-1.512 3.927,-3.491 3.916,-5.471l0.087,6.689c0.011,1.969 -1.294,3.948 -3.905,5.449c-2.599,1.512 -5.993,2.251 -9.387,2.251l0,-6.678c3.361,-0.011 6.722,-0.761 9.289,-2.241Z" style="fill:#2d640e;fill-rule:nonzero;"/><path d="M1003.071,1311.447c-5.188,2.991 -5.21,7.853 -0.054,10.855c5.155,2.991 13.541,2.991 18.729,0c5.199,-3.002 5.221,-7.864 0.065,-10.855c-5.155,-3.002 -13.541,-3.002 -18.74,0Z" style="fill:#319d2a;fill-rule:nonzero;"/><path d="M1756.553,704.005l-461.838,-266.648l11.039,-6.352l461.838,266.638l-11.039,6.363Z" style="fill:#e3e3e1;fill-rule:nonzero;"/><path d="M1756.553,704.005l0,201.107l11.039,-6.352l0,-201.118l-11.039,6.363Z" style="fill:#939294;fill-rule:nonzero;"/><path d="M1294.714,437.356l0,201.118l461.838,266.637l0,-201.107l-461.838,-266.648Z" style="fill:#b4b3b5;fill-rule:nonzero;"/><path d="M1054.941,1310.109l684.35,-414.96l-423.151,-244.308l-712.64,411.35l451.44,247.919Z" style="fill:#818182;fill-rule:nonzero;"/><path d="M1316.141,449.734l-734.067,426.598l0,-27.615l712.64,-411.36l21.427,12.377Z" style="fill:#e3e3e1;fill-rule:nonzero;"/><path d="M1316.141,650.84l0,-201.107l-734.067,426.598l21.427,185.858l712.64,-411.35Z" style="fill:#939294;fill-rule:nonzero;"/><path d="M1756.553,704.005l-734.067,426.598l0,-27.615l712.64,-411.36l21.427,12.377Z" style="fill:#e3e3e1;fill-rule:nonzero;"/><path d="M1756.553,905.111l0,-201.107l-701.557,407.695l-0.054,198.409l701.611,-404.998Z" style="fill:#939294;fill-rule:nonzero;"/><path d="M1729.524,740.572l-656.506,378.644l-0.043,149.269l656.549,-378.981l0,-148.932Z" style="fill:#727173;fill-rule:nonzero;"/><path d="M1729.524,740.572l0,148.932l9.006,5.199l0,-159.373l-9.006,5.242Z" style="fill:#b4b3b5;fill-rule:nonzero;"/><path d="M1729.524,889.504l-656.549,378.981l0,10.398l665.555,-384.18l-9.006,-5.199Z" style="fill:#e3e3e1;fill-rule:nonzero;"/><path d="M1630.385,797.804l0,148.921l9.006,5.21l0,-159.373l-9.006,5.242Z" style="fill:#b4b3b5;fill-rule:nonzero;"/><path d="M1495.212,875.853l0,148.921l9.006,5.21l0,-159.374l-9.006,5.242Z" style="fill:#b4b3b5;fill-rule:nonzero;"/><path d="M1360.017,953.903l0,148.921l9.017,5.199l0,-159.363l-9.017,5.242Z" style="fill:#b4b3b5;fill-rule:nonzero;"/><path d="M1233.849,1026.711l0,159.363l36.056,-20.807l0,-159.374l-36.056,20.818Z" style="fill:#939294;fill-rule:nonzero;"/><path d="M1369.033,948.661l0,159.363l36.045,-20.807l0,-159.374l-36.045,20.818Z" style="fill:#939294;fill-rule:nonzero;"/><path d="M1504.217,870.611l0,159.374l36.045,-20.818l0,-159.363l-36.045,20.807Z" style="fill:#939294;fill-rule:nonzero;"/><path d="M1638.629,794.084l0,159.363l36.056,-20.818l0,-159.363l-36.056,20.818Z" style="fill:#939294;fill-rule:nonzero;"/><path d="M1224.843,1031.953l0,148.921l9.006,5.199l0,-159.363l-9.006,5.243Z" style="fill:#b4b3b5;fill-rule:nonzero;"/><path d="M1254.732,479.372l43.636,-71.122c1.816,-2.958 4.438,-5.351 7.559,-6.906l0.598,-0.294c2.926,-1.457 6.395,0.479 6.689,3.731l3.481,37.818l-61.963,36.773Z" style="fill:#939294;fill-rule:nonzero;"/><path d="M1305.928,401.344l0.598,-0.294l2.534,-0.402l0.033,-0.098l-6.809,-4.318l-0.065,0.065c-1.316,-0.946 -3.067,-1.262 -4.699,-0.457l-0.609,0.305c-3.111,1.544 -5.732,3.937 -7.548,6.896l-43.647,71.121l9.017,5.21l43.636,-71.122c1.816,-2.958 4.438,-5.351 7.559,-6.906Z" style="fill:#e3e3e1;fill-rule:nonzero;"/><path d="M1312.965,413.689c0,3.111 -2.512,7.059 -5.601,8.854c-3.1,1.794 -5.612,0.729 -5.612,-2.371c0,-3.1 2.512,-7.059 5.612,-8.842c3.089,-1.795 5.601,-0.729 5.601,2.36Z" style="fill:#0a090d;fill-rule:nonzero;"/><path d="M1301.751,420.171c0,-3.1 2.512,-7.059 5.612,-8.842c1.686,-0.979 3.165,-1.044 4.188,-0.446l0.054,-0.065l-2.121,-1.131c-1.033,-0.598 -2.502,-0.533 -4.199,0.446c-3.1,1.784 -5.601,5.743 -5.601,8.843c0,1.403 0.555,2.317 1.403,2.817l2.034,1.262l0.044,-0.076c-0.848,-0.489 -1.414,-1.403 -1.414,-2.806Z" style="fill:#35353f;fill-rule:nonzero;"/><path d="M1696.318,734.317l43.647,-71.111c1.817,-2.969 4.438,-5.362 7.548,-6.907l0.609,-0.304c2.926,-1.447 6.385,0.489 6.689,3.741l3.48,37.818l-61.974,36.763Z" style="fill:#939294;fill-rule:nonzero;"/><path d="M1747.514,656.3l0.609,-0.304l2.524,-0.403l0.043,-0.087l-6.809,-4.318l-0.065,0.065c-1.327,-0.946 -3.067,-1.262 -4.709,-0.457l-0.598,0.304c-3.121,1.544 -5.743,3.937 -7.559,6.896l-43.636,71.122l9.005,5.199l43.647,-71.111c1.817,-2.969 4.438,-5.362 7.548,-6.907Z" style="fill:#e3e3e1;fill-rule:nonzero;"/><path d="M1754.562,668.645c0,3.1 -2.512,7.059 -5.612,8.853c-3.1,1.784 -5.602,0.729 -5.602,-2.371c0,-3.1 2.502,-7.059 5.602,-8.843c3.1,-1.794 5.612,-0.729 5.612,2.36Z" style="fill:#0a090d;fill-rule:nonzero;"/><path d="M1743.348,675.128c0,-3.1 2.502,-7.059 5.602,-8.843c1.697,-0.989 3.165,-1.044 4.198,-0.446l0.043,-0.065l-2.121,-1.131c-1.023,-0.598 -2.502,-0.544 -4.188,0.435c-3.1,1.795 -5.612,5.754 -5.612,8.853c0,1.403 0.565,2.317 1.414,2.817l2.034,1.262l0.043,-0.076c-0.859,-0.49 -1.414,-1.403 -1.414,-2.806Z" style="fill:#35353f;fill-rule:nonzero;"/><path d="M1043.912,1035.553l-461.838,-266.638l11.029,-6.363l461.838,266.638l-11.029,6.363Z" style="fill:#e3e3e1;fill-rule:nonzero;"/><path d="M1043.912,1035.553l0,280.908l11.029,-6.352l0,-280.918l-11.029,6.363Z" style="fill:#939294;fill-rule:nonzero;"/><path d="M582.074,768.916l0,280.908l461.838,266.638l0,-280.908l-461.838,-266.638Z" style="fill:#b4b3b5;fill-rule:nonzero;"/><path d="M1238.624,1348.601l-6.352,-3.687l0.054,-84.325l6.352,3.687l-0.054,84.325Z" style="fill:#57ce53;fill-rule:nonzero;"/><path d="M1027.576,1471.386l-6.352,-3.698l211.048,-122.774l6.352,3.687l-211.048,122.785Z" style="fill:#319d2a;fill-rule:nonzero;"/><path d="M1014.785,1493.531l-6.352,-3.687l0.076,-113.758l6.352,3.687l-0.076,113.758Z" style="fill:#57ce53;fill-rule:nonzero;"/><path d="M1014.861,1379.773l-6.352,-3.687l236.608,-137.653l6.352,3.687l-236.608,137.653Z" style="fill:#319d2a;fill-rule:nonzero;"/><path d="M1238.624,1348.601l-211.048,122.785l0.054,-84.336l211.048,-122.774l-0.054,84.325Zm-223.838,144.93l236.651,-137.631l0.033,-113.779l-236.608,137.653l-0.076,113.758Z" style="fill:#2d640e;fill-rule:nonzero;"/><path d="M334.307,1336.452l0,136.141l352.301,194.657l121.458,-61.583l0,-149.258c0,0 -104.708,47.954 -174.688,31.389c-69.979,-16.554 -299.071,-151.346 -299.071,-151.346Z" style="fill:#319d2a;fill-rule:nonzero;"/><path d="M697.887,1538.211l-1.849,122.056l71.284,-32.999l-0.294,-13.933l5.253,-98.335l-74.395,23.211Z" style="fill:#2d640e;fill-rule:nonzero;"/><path d="M944.197,1361c3.002,1.077 5.895,2.349 8.701,3.752l8.582,-1.849c0,0 14.585,4.122 28.279,23.591c13.791,19.556 20.045,70.317 20.045,70.317l-1.349,5.71l-129.768,-68.554c0,0 42.603,-41.211 65.509,-32.967Z" style="fill:#0a090d;fill-rule:nonzero;"/><path d="M952.039,1370.506l0,0.098l17.218,10.898c0,0 30.008,5.134 39.199,81.019l2.436,-1.175l2.251,-1.077c0,0 -6.309,-54.437 -20.089,-73.993c-13.704,-19.469 -38.035,-35.958 -38.035,-35.958l-2.98,20.187Z" style="fill:#292930;fill-rule:nonzero;"/><path d="M1011.946,1491.714c0,51.685 -41.907,117.782 -93.592,147.627c-51.685,29.845 -93.592,12.127 -93.592,-39.558c0,-51.685 41.907,-117.782 93.592,-147.627c51.685,-29.845 93.592,-12.128 93.592,39.558Z" style="fill:#0a090d;fill-rule:nonzero;"/><path d="M969.507,1516.219c0,28.246 -22.906,64.367 -51.152,80.682c-28.246,16.304 -51.152,6.624 -51.152,-21.623c0,-28.246 22.906,-64.367 51.152,-80.682c28.246,-16.304 51.152,-6.624 51.152,21.623Z" style="fill:#2d640e;fill-rule:nonzero;"/><path d="M962.904,1520.026c0,24.614 -19.947,56.068 -44.55,70.273c-24.603,14.205 -44.55,5.775 -44.55,-18.827c0,-24.603 19.947,-56.068 44.55,-70.273c24.603,-14.205 44.55,-5.775 44.55,18.827Z" style="fill:#328701;fill-rule:nonzero;"/><path d="M875.12,1560.291l23.689,13.715l39.134,-56.601l-23.689,-13.574c-19.197,12.704 -34.794,35.664 -39.134,56.46Z" style="fill:#2d640e;fill-rule:nonzero;"/><path d="M944.284,1530.783c0,14.314 -11.616,32.63 -25.93,40.885c-14.314,8.277 -25.919,3.361 -25.919,-10.953c0,-14.314 11.605,-32.619 25.919,-40.896c14.313,-8.266 25.93,-3.35 25.93,10.963Z" style="fill:#57ce53;fill-rule:nonzero;"/><path d="M824.762,1599.783c0,-51.685 41.907,-117.782 93.592,-147.627c28.268,-16.315 53.556,-18.327 70.708,-8.419l0.065,-0.087l-45.126,-25.93c-17.153,-9.909 -42.44,-7.907 -70.708,8.418c-51.685,29.845 -93.592,95.942 -93.592,147.627c0,23.417 8.669,39.775 22.873,47.976l45.007,26.104l0.054,-0.087c-14.216,-8.201 -22.873,-24.559 -22.873,-47.976Z" style="fill:#393942;fill-rule:nonzero;"/><path d="M955.041,1350.352l14.194,22.199c0,0 -69.881,40.863 -90.993,63.802c-21.111,22.938 -48.313,56.677 -55.601,92.287c-7.287,35.61 -6.526,93.658 -6.526,93.658l-16.108,0l-11.855,-39.928l6.482,-76.799l26.277,-75.733l78.615,-64.237l55.514,-15.249Z" style="fill:#292930;fill-rule:nonzero;"/><path d="M948.232,1344.512l6.809,5.841c0,0 -64.128,42.832 -73.416,49.227c-27.648,19.023 -59.951,67.26 -69.729,92.57c-9.778,25.31 -11.888,106.709 -11.888,130.148l-13.607,-3.404l-19.371,-5.558c0,0 -3.644,-87.676 7.864,-129.931c11.507,-42.255 97.269,-125.265 143.613,-140.144l29.726,1.251Z" style="fill:#35353f;fill-rule:nonzero;"/><path d="M717.944,1660.985l98.171,-38.688l0,13.084l-98.498,39.275l0.327,-13.672Z" style="fill:#0a090d;fill-rule:nonzero;"/><path d="M800.018,1622.297l-32.989,-8.962l-49.412,29.149l0.327,18.501l98.171,-38.688l-16.097,0Z" style="fill:#35353f;fill-rule:nonzero;"/><path d="M766.485,1547.206l27.387,7.668c0,0 -50.304,37.404 -74.047,37.208l-8.211,-15.728l54.872,-29.149Z" style="fill:#35353f;fill-rule:nonzero;"/><path d="M719.825,1592.083c23.744,0.196 74.047,-37.208 74.047,-37.208l0,5.634c0,0 -51.522,37.187 -75.266,36.98l-6.993,-15.499l0,-5.634l8.211,15.728Z" style="fill:#0a090d;fill-rule:nonzero;"/><path d="M342.008,1400.275l-14.781,-8.549c0,0 -27.67,17.283 -7.146,29.127c20.502,11.845 348.07,200.966 348.07,200.966c0,0 18.153,10.648 48.64,-5.841l-23.994,-13.334l-35.044,-10.638l-305.706,-176.373l-10.039,-15.358Z" style="fill:#319d2a;fill-rule:nonzero;"/><path d="M716.791,1615.978c-30.487,16.489 -48.64,5.841 -48.64,5.841c0,0 -345.873,-199.693 -348.07,-200.966c-5.547,-3.198 -7.505,-6.787 -7.505,-10.332l-0.076,-0.022l0,62.757l0.076,0.011c0,3.546 1.958,7.135 7.505,10.333c20.502,11.844 348.07,200.965 348.07,200.965c0,0 16.641,9.767 44.811,-3.872c2.414,-1.175 4.34,-3.459 5.058,-6.047c8.94,-32.107 -1.229,-58.668 -1.229,-58.668Z" style="fill:#57ce53;fill-rule:nonzero;"/><path d="M654.958,1630.792l-63.236,-36.523l0,29.475l63.236,36.523l0,-29.475Z" style="fill:#35353f;fill-rule:nonzero;"/><path d="M653.152,1631.836l0,25.31l-23.102,-13.345l0,-25.31l23.102,13.345Z" style="fill:#da7d25;fill-rule:nonzero;"/><path d="M593.527,1597.401l36.523,21.09l0,25.31l-36.523,-21.09l0,-25.31Z" style="fill:#fff;fill-rule:nonzero;"/><path d="M321.353,1468.362l63.247,36.512l0,-29.465l-63.247,-36.523l0,29.475Z" style="fill:#35353f;fill-rule:nonzero;"/><path d="M323.159,1467.329l0,-25.321l23.113,13.345l0,25.31l-23.113,-13.334Z" style="fill:#da7d25;fill-rule:nonzero;"/><path d="M382.795,1501.753l-36.523,-21.09l0,-25.31l36.523,21.09l0,25.31Z" style="fill:#fff;fill-rule:nonzero;"/><path d="M342.008,1338.377l-11.844,-6.83c-1.838,-1.066 -4.122,-0.968 -5.819,0.315c-6.493,4.895 -20.535,17.707 -4.264,27.104c20.502,11.845 348.07,200.955 348.07,200.955c0,0 18.153,10.659 48.64,-5.83l-23.994,-13.334l-35.044,-10.637l-305.706,-176.374l-10.039,-15.369Z" style="fill:#319d2a;fill-rule:nonzero;"/><path d="M403.819,1445.794l0,8.766l22.134,-12.932l0,-9.049l-22.134,13.215Z" style="fill:#2d640e;fill-rule:nonzero;"/><path d="M716.791,1554.091c-30.487,16.489 -48.64,5.83 -48.64,5.83c0,0 -345.873,-199.693 -348.07,-200.955c-5.547,-3.198 -7.505,-6.787 -7.505,-10.332l-0.076,-0.022l0.076,47.269c0,3.546 1.958,7.135 7.505,10.332c6.123,3.535 39.732,22.939 83.738,48.346l0,-8.766l175.101,100.815l0,9.049c51.065,29.486 89.231,51.522 89.231,51.522c0,0 18.153,10.648 48.64,-5.841c9.593,-16.413 0,-47.247 0,-47.247Z" style="fill:#57ce53;fill-rule:nonzero;"/><path d="M472.711,1474.388l-77.919,-44.985l0,-13.041l77.919,44.985l0,13.041Z" style="fill:#319d2a;fill-rule:nonzero;"/><path d="M394.791,1429.403l11.083,-6.645l-11.083,-6.396l0,13.041Z" style="fill:#2d640e;fill-rule:nonzero;"/><path d="M571.839,1531.62l-77.908,-44.985l0,-13.041l77.908,44.985l0,13.041Z" style="fill:#319d2a;fill-rule:nonzero;"/><path d="M493.931,1486.635l11.083,-6.635l-11.083,-6.406l0,13.041Z" style="fill:#2d640e;fill-rule:nonzero;"/><path d="M320.081,1372.845c-5.547,-3.198 -7.505,-6.819 -7.505,-10.354l-0.076,0l0,23.515l0.076,0.022c0,3.546 1.958,7.135 7.505,10.333c3.611,2.088 16.815,9.712 36.034,20.807l0,-23.515c-21.764,-12.573 -35.61,-20.556 -36.034,-20.807Z" style="fill:#fff;fill-rule:nonzero;"/><path d="M321.876,1395.316c3.47,2.056 16.032,9.256 34.239,19.773l0,2.078c-19.219,-11.094 -32.423,-18.719 -36.034,-20.807c-5.547,-3.198 -7.57,-6.809 -7.581,-10.354l0,-5.112c0.011,1.794 0.62,9.234 9.376,14.422Z" style="fill:#319d2a;fill-rule:nonzero;"/><path d="M668.151,1573.799c0,0 -15.717,-9.071 -40.33,-23.276l0,23.515c24.646,14.226 40.33,23.276 40.33,23.276c0,0 12.095,7.092 33.108,0.74l0,-23.515c-21.013,6.352 -33.108,-0.74 -33.108,-0.74Z" style="fill:#fff;fill-rule:nonzero;"/><path d="M629.626,1551.557l0,21.438l-1.805,1.044l0,-23.515l1.805,1.033Z" style="fill:#2d640e;fill-rule:nonzero;"/><path d="M629.626,1572.994c24.646,14.237 40.33,23.287 40.33,23.287c0,0 12.127,5.46 29.312,0.533l1.99,1.24c-21.013,6.352 -33.108,-0.74 -33.108,-0.74c0,0 -15.684,-9.049 -40.33,-23.276l1.805,-1.044Z" style="fill:#319d2a;fill-rule:nonzero;"/><path d="M701.259,1574.539l0,23.515l-1.99,-1.24l0,-21.807l1.99,-0.468Z" style="fill:#2d640e;fill-rule:nonzero;"/><path d="M364.62,1026.7l3.176,-1.849l-0.185,67.108l-3.176,1.849l0.185,-67.108Z" style="fill:#292930;fill-rule:nonzero;"/><path d="M342.236,1013.779l3.176,-1.849l22.384,12.921l-3.176,1.849l-22.384,-12.921Z" style="fill:#656575;fill-rule:nonzero;"/><path d="M364.62,1026.7l-0.185,67.108l-22.384,-12.921l0.185,-67.108l22.384,12.921Z" style="fill:#0a090d;fill-rule:nonzero;"/><path d="M364.544,1100.323l3.176,-1.849l-0.033,14.683l-3.176,1.849l0.033,-14.683Z" style="fill:#c5c5c5;fill-rule:nonzero;"/><path d="M342.16,1087.402l3.176,-1.849l22.384,12.921l-3.176,1.849l-22.384,-12.921Z" style="fill:#656575;fill-rule:nonzero;"/><path d="M364.544,1100.323l-0.033,14.683l-22.395,-12.921l0.043,-14.683l22.384,12.921Z" style="fill:#0a090d;fill-rule:nonzero;"/><path d="M387.124,1152.955c1.033,0 2.056,-0.479 2.719,-1.381c1.109,-1.501 0.783,-3.622 -0.718,-4.72l-36.523,-26.876l0,-105.948l29.802,13.965c1.686,0.772 3.698,0.054 4.481,-1.62c0.794,-1.697 0.076,-3.709 -1.62,-4.503l-34.598,-16.217c-1.055,-0.49 -2.284,-0.414 -3.252,0.206c-0.979,0.62 -1.566,1.697 -1.566,2.861l0,112.974c0,1.066 0.511,2.078 1.381,2.719l37.894,27.877l2.001,0.664Z" style="fill:#292930;fill-rule:nonzero;"/><path d="M723.338,1544.498l0,-160.331l32.51,-171.501l192.384,-109.461l0,241.306l-52.958,34.446c-28.17,18.327 -51.598,42.995 -68.348,72.133c-7.396,12.878 -15.999,28.355 -25.484,46.334l-78.104,47.074Z" style="fill:#2d640e;fill-rule:nonzero;"/><path d="M892.218,1298.841l-3.263,-1.457l-37.274,20.731l3.263,1.947l37.274,-21.22Z" style="fill:#319d2a;fill-rule:nonzero;"/><path d="M854.944,1320.061l0,10.311l-3.263,-1.958l0,-10.3l3.263,1.947Z" style="fill:#319d2a;fill-rule:nonzero;"/><path d="M892.218,1298.841l0,10.311l-37.274,21.22l0,-10.311l37.274,-21.22Z" style="fill:#57ce53;fill-rule:nonzero;"/><path d="M679.397,1538.211l0,-173.383l32.51,-152.162c0,0 21.862,12.562 43.941,0l-32.51,171.501l0,160.331c0,0 -29.649,10.137 -43.941,-6.287Z" style="fill:#57ce53;fill-rule:nonzero;"/><path d="M330.022,1200.354l0,128.669c0,7.592 4.09,14.585 10.703,18.305l338.694,190.894l0,-134.466l-349.397,-203.402Z" style="fill:#57ce53;fill-rule:nonzero;"/><path d="M679.419,1364.818l0,38.938c-48.759,-18.566 -312.993,-177.178 -332.277,-189.436c-7.57,-4.775 -13.16,-9.724 -17.12,-13.965c0,-27.659 6.765,-46.323 6.765,-46.323l4.981,11.757l337.65,199.029Z" style="fill:#319d2a;fill-rule:nonzero;"/><path d="M679.419,1403.756c0,0 22.09,11.529 43.919,-0.283l0,-19.306l4.601,-24.276c0,0 -19.132,24.45 -48.52,4.927l0,38.938Z" style="fill:#319d2a;fill-rule:nonzero;"/><path d="M338.799,1147.821l-1.751,5.286c-1.599,4.808 0.381,10.083 4.742,12.66l346.362,204.631c8.212,4.949 18.816,0.196 20.611,-9.212l26.071,-129.659c3.045,-15.999 -8.571,-18.479 -22.884,-26.267l-373.151,-57.439Z" style="fill:#0a090d;fill-rule:nonzero;"/><path d="M344.553,1163.015l348.179,204.772c8.081,4.906 18.773,0.141 20.513,-9.245l2.882,-14.585l23.254,-115.084c3.035,-15.891 -8.669,-18.49 -22.96,-26.288l-248.104,-132.421l-88.089,-47.085l-41.45,124.775c-1.871,5.775 0.435,11.986 5.775,15.162Z" style="fill:#202026;fill-rule:nonzero;"/><path d="M388.189,1026.7l109.744,62.061l-122.828,70.512l-25.233,-25.799l38.318,-106.775Z" style="fill:#6a687d;fill-rule:nonzero;"/><path d="M338.777,1147.853l8.321,-25.048l43.408,25.092c0,0 46.41,-17.652 80.617,1.697c60.615,34.283 26.365,60.212 77.202,93.136l49.749,2.752c9.397,0.511 18.294,4.361 25.114,10.833l89.622,85.043l3.317,2.599l-2.882,14.585c-1.74,9.387 -12.432,14.151 -20.513,9.245l-348.179,-204.772c-5.34,-3.176 -7.646,-9.387 -5.775,-15.162Z" style="fill:#34343e;fill-rule:nonzero;"/><path d="M676.7,1358.401l12.715,12.671c13.193,5.242 22.09,-3.143 23.831,-12.53l26.136,-129.67c1.447,-7.657 -0.435,-12.28 -4.622,-15.749l-1.588,3.47c0,0 3.317,4.046 2.164,10.398c-1.153,6.504 -26.43,129.963 -26.43,129.963c0,0 -3.774,15.423 -19.512,8.353c-4.623,-2.023 -8.712,-4.079 -12.693,-6.907Z" style="fill:#0a090d;fill-rule:nonzero;"/><path d="M629.072,1155.967l0.837,-0.816l-27.431,-14.585l-0.805,0.772l27.398,14.629Z" style="fill:#b4b3be;"/><path d="M516.837,1264.613l0.174,-0.163l-26.549,-15.618l-0.196,0.185l26.571,15.597Z" style="fill:#3a3945;fill-rule:nonzero;"/><path d="M543.115,1239.173l85.957,-83.206l-27.398,-14.629l-79.138,76.495c4.198,6.896 10.354,13.954 20.578,21.34Z" style="fill:#454452;fill-rule:nonzero;"/><path d="M517.011,1264.449l26.104,-25.277c-10.224,-7.385 -16.38,-14.444 -20.578,-21.34l-32.075,30.998l26.549,15.618Z" style="fill:#4f4e5e;fill-rule:nonzero;"/><path d="M623.046,1256.183l68.033,-65.858l-16.402,-8.07l-67.151,64.911c5.754,1.762 11.083,4.829 15.521,9.017Z" style="fill:#454452;fill-rule:nonzero;"/><path d="M578.006,1299.787l45.04,-43.604c-4.438,-4.188 -9.767,-7.255 -15.521,-9.017l-45.05,43.539l15.531,9.082Z" style="fill:#4f4e5e;fill-rule:nonzero;"/><path d="M561.942,1120.129l0.826,-0.794l-54.448,-29.171l-0.903,0.87l54.524,29.095Z" style="fill:#b4b3be;fill-rule:nonzero;"/><path d="M451.85,1226.49l0.239,-0.228l-52.555,-30.911l-0.25,0.239l52.566,30.9Z" style="fill:#3a3945;fill-rule:nonzero;"/><path d="M503.535,1176.556l58.407,-56.427l-54.524,-29.095l-53.61,51.838c5.928,1.425 11.779,3.589 17.315,6.721c16.837,9.528 26.354,18.403 32.412,26.963Z" style="fill:#454452;fill-rule:nonzero;"/><path d="M452.089,1226.262l51.446,-49.706c-6.058,-8.56 -15.575,-17.435 -32.412,-26.963c-5.536,-3.132 -11.388,-5.297 -17.315,-6.721l-54.274,52.479l52.555,30.911Z" style="fill:#4f4e5e;fill-rule:nonzero;"/><path d="M675.264,1457.682l0.054,-10.257l-331.386,-191.318l-9.234,4.949l340.565,196.626Z" style="fill:#319d2a;fill-rule:nonzero;"/><path d="M334.699,1261.056l9.234,-4.949l-9.18,-5.307l-0.054,10.256Z" style="fill:#2d640e;fill-rule:nonzero;"/><path d="M675.264,1487.788l0.054,-10.256l-331.386,-191.329l-9.234,4.96l340.565,196.625Z" style="fill:#319d2a;fill-rule:nonzero;"/><path d="M334.699,1291.162l9.234,-4.96l-9.18,-5.297l-0.054,10.257Z" style="fill:#2d640e;fill-rule:nonzero;"/><path d="M675.264,1517.894l0.054,-10.256l-331.386,-191.329l-9.234,4.96l340.565,196.626Z" style="fill:#319d2a;fill-rule:nonzero;"/><path d="M334.699,1321.268l9.234,-4.96l-9.18,-5.297l-0.054,10.256Z" style="fill:#2d640e;fill-rule:nonzero;"/><path d="M948.243,1103.205l-192.405,109.494c0,0 -18.294,12.715 -43.974,0c0,0 -320.922,-180.332 -331.647,-189.523c0,0 1.893,-6.667 8.473,-14.509l2.154,-2.436c10.463,-11.083 31.912,-28.649 64.802,-48.117c57.232,-33.794 116.444,-65.966 120.044,-67.946l0.185,-0.098l372.368,213.136Z" style="fill:#57ce53;fill-rule:nonzero;"/><path d="M948.243,1103.205l-19.273,-3.687l-174.753,99.194c-11.333,6.439 -25.223,6.384 -36.502,-0.131l-329.025,-189.915l2.154,-2.436c10.463,-11.083 31.912,-28.649 64.802,-48.117c57.232,-33.794 116.444,-65.966 120.044,-67.946l0.185,-0.098l372.368,213.136Z" style="fill:#319d2a;fill-rule:nonzero;"/><path d="M887.258,1165.636l0,108.308l-145.604,85.522l19.425,-121.589l126.179,-72.242Z" style="fill:#34343e;fill-rule:nonzero;"/><path d="M742.579,1353.669l140.176,-82.324l4.503,2.6l-145.604,85.522l0.924,-5.797Z" style="fill:#319d2a;fill-rule:nonzero;"/><path d="M887.258,1165.636l0,108.308l-4.503,-2.6l0,-103.12l4.503,-2.589Z" style="fill:#57ce53;fill-rule:nonzero;"/><path d="M801.606,1274.293l3.176,-1.838l-0.196,67.108l-3.176,1.838l0.196,-67.108Z" style="fill:#292930;fill-rule:nonzero;"/><path d="M779.211,1261.371l3.176,-1.838l22.395,12.921l-3.176,1.838l-22.395,-12.921Z" style="fill:#656575;fill-rule:nonzero;"/><path d="M801.606,1274.293l-0.196,67.108l-22.384,-12.921l0.185,-67.108l22.395,12.921Z" style="fill:#0a090d;fill-rule:nonzero;"/><path d="M801.53,1347.916l3.176,-1.838l-0.043,14.672l-3.176,1.849l0.043,-14.683Z" style="fill:#292930;fill-rule:nonzero;"/><path d="M779.146,1334.995l3.176,-1.849l22.384,12.932l-3.176,1.838l-22.384,-12.921Z" style="fill:#656575;fill-rule:nonzero;"/><path d="M801.53,1347.916l-0.043,14.683l-22.384,-12.921l0.043,-14.683l22.384,12.921Z" style="fill:#0a090d;fill-rule:nonzero;"/><path d="M786.204,1372.66l2.175,-0.794c0.761,-0.642 1.207,-1.588 1.207,-2.589l0,-112.963c0,-1.24 -0.664,-2.371 -1.751,-2.958l-30.346,-16.848c-1.631,-0.913 -3.687,-0.315 -4.601,1.316c-0.903,1.632 -0.315,3.687 1.316,4.601l28.616,15.869l0,106.959l-21.34,-3.752c-1.849,-0.337 -3.6,0.914 -3.916,2.741c-0.326,1.838 0.903,3.589 2.741,3.915l25.31,4.448l0.587,0.054Z" style="fill:#292930;fill-rule:nonzero;"/><path d="M930.721,1094.972l-432.787,-249.866l102.283,-58.635l432.787,249.877l-102.283,58.624Z" style="fill:#e3e3e1;fill-rule:nonzero;"/><path d="M930.721,1094.972l0,15.934l29.345,-16.554l72.938,5.645l0,-63.649l-102.283,58.624Z" style="fill:#939294;fill-rule:nonzero;"/><path d="M497.933,845.106l0,15.934l432.787,249.866l0,-15.934l-432.787,-249.866Z" style="fill:#b4b3b5;fill-rule:nonzero;"/><path d="M822.641,1528.64c7.287,-35.61 34.49,-69.349 55.601,-92.287c16.804,-18.262 64.509,-47.878 83.271,-59.201c4.905,-2.958 11.072,-2.871 15.804,0.359c4.438,3.024 9.593,7.091 12.486,11.29c5.678,8.473 17.489,37.219 21.09,72.546l-2.436,1.175c-6.569,-54.274 -23.787,-72.35 -33.065,-78.256c-3.274,-2.078 -7.374,-2.056 -10.703,-0.087c-14.835,8.777 -61.702,37.143 -79.355,55.437c-21.09,21.862 -51.196,63.182 -56.558,95.387c-5.373,32.216 -6.308,98.552 -6.308,98.552l-6.352,1.827l0,-13.084c0,0 -0.761,-58.048 6.526,-93.658Z" style="fill:#35353f;fill-rule:nonzero;"/><path d="M503.176,1364.067l-0.054,34.598l-2.132,1.447l0.054,-34.598l2.132,-1.447Z" style="fill:#2d640e;fill-rule:nonzero;"/><path d="M501.044,1365.514l-0.054,34.598l-34,-19.872l0.054,-34.141l34,19.415Z" style="fill:#57ce53;fill-rule:nonzero;"/><path d="M503.176,1364.067l-2.132,1.447l-34,-19.415l2.143,-1.447l33.989,19.414Z" style="fill:#319d2a;fill-rule:nonzero;"/></g></g></svg>